%TF.GenerationSoftware,KiCad,Pcbnew,(6.0.9)*%
%TF.CreationDate,2023-09-05T16:32:31-05:00*%
%TF.ProjectId,Pulse_Temp,50756c73-655f-4546-956d-702e6b696361,rev?*%
%TF.SameCoordinates,Original*%
%TF.FileFunction,Legend,Bot*%
%TF.FilePolarity,Positive*%
%FSLAX46Y46*%
G04 Gerber Fmt 4.6, Leading zero omitted, Abs format (unit mm)*
G04 Created by KiCad (PCBNEW (6.0.9)) date 2023-09-05 16:32:31*
%MOMM*%
%LPD*%
G01*
G04 APERTURE LIST*
G04 Aperture macros list*
%AMRoundRect*
0 Rectangle with rounded corners*
0 $1 Rounding radius*
0 $2 $3 $4 $5 $6 $7 $8 $9 X,Y pos of 4 corners*
0 Add a 4 corners polygon primitive as box body*
4,1,4,$2,$3,$4,$5,$6,$7,$8,$9,$2,$3,0*
0 Add four circle primitives for the rounded corners*
1,1,$1+$1,$2,$3*
1,1,$1+$1,$4,$5*
1,1,$1+$1,$6,$7*
1,1,$1+$1,$8,$9*
0 Add four rect primitives between the rounded corners*
20,1,$1+$1,$2,$3,$4,$5,0*
20,1,$1+$1,$4,$5,$6,$7,0*
20,1,$1+$1,$6,$7,$8,$9,0*
20,1,$1+$1,$8,$9,$2,$3,0*%
G04 Aperture macros list end*
%ADD10C,0.200000*%
%ADD11C,0.150000*%
%ADD12C,0.100000*%
%ADD13C,0.152400*%
%ADD14C,0.120000*%
%ADD15R,1.700000X1.700000*%
%ADD16R,1.041400X0.381000*%
%ADD17RoundRect,0.218750X0.218750X0.256250X-0.218750X0.256250X-0.218750X-0.256250X0.218750X-0.256250X0*%
%ADD18RoundRect,0.200000X0.200000X0.275000X-0.200000X0.275000X-0.200000X-0.275000X0.200000X-0.275000X0*%
%ADD19RoundRect,0.225000X0.225000X0.250000X-0.225000X0.250000X-0.225000X-0.250000X0.225000X-0.250000X0*%
%ADD20RoundRect,0.218750X-0.218750X-0.256250X0.218750X-0.256250X0.218750X0.256250X-0.218750X0.256250X0*%
%ADD21RoundRect,0.200000X-0.200000X-0.275000X0.200000X-0.275000X0.200000X0.275000X-0.200000X0.275000X0*%
%ADD22O,1.700000X1.700000*%
%ADD23RoundRect,0.225000X-0.225000X-0.250000X0.225000X-0.250000X0.225000X0.250000X-0.225000X0.250000X0*%
%ADD24R,0.812800X0.889000*%
G04 APERTURE END LIST*
D10*
X165313721Y-87274400D02*
G75*
G03*
X165313721Y-87274400I-35921J0D01*
G01*
D11*
X179527295Y-81291180D02*
X180146342Y-81291180D01*
X179813009Y-81672133D01*
X179955866Y-81672133D01*
X180051104Y-81719752D01*
X180098723Y-81767371D01*
X180146342Y-81862609D01*
X180146342Y-82100704D01*
X180098723Y-82195942D01*
X180051104Y-82243561D01*
X179955866Y-82291180D01*
X179670152Y-82291180D01*
X179574914Y-82243561D01*
X179527295Y-82195942D01*
X180432057Y-81291180D02*
X180765390Y-82291180D01*
X181098723Y-81291180D01*
D12*
X157522990Y-88818209D02*
X157808704Y-88818209D01*
X157665847Y-88318209D02*
X157665847Y-88818209D01*
X157856323Y-88270590D02*
X158237276Y-88270590D01*
X158332514Y-88342019D02*
X158403942Y-88318209D01*
X158522990Y-88318209D01*
X158570609Y-88342019D01*
X158594419Y-88365828D01*
X158618228Y-88413447D01*
X158618228Y-88461066D01*
X158594419Y-88508685D01*
X158570609Y-88532495D01*
X158522990Y-88556304D01*
X158427752Y-88580114D01*
X158380133Y-88603923D01*
X158356323Y-88627733D01*
X158332514Y-88675352D01*
X158332514Y-88722971D01*
X158356323Y-88770590D01*
X158380133Y-88794400D01*
X158427752Y-88818209D01*
X158546800Y-88818209D01*
X158618228Y-88794400D01*
X159118228Y-88365828D02*
X159094419Y-88342019D01*
X159022990Y-88318209D01*
X158975371Y-88318209D01*
X158903942Y-88342019D01*
X158856323Y-88389638D01*
X158832514Y-88437257D01*
X158808704Y-88532495D01*
X158808704Y-88603923D01*
X158832514Y-88699161D01*
X158856323Y-88746780D01*
X158903942Y-88794400D01*
X158975371Y-88818209D01*
X159022990Y-88818209D01*
X159094419Y-88794400D01*
X159118228Y-88770590D01*
X159570609Y-88318209D02*
X159332514Y-88318209D01*
X159332514Y-88818209D01*
X157604800Y-85828933D02*
X158004800Y-85828933D01*
X157804800Y-85128933D02*
X157804800Y-85828933D01*
X158071466Y-85062266D02*
X158604800Y-85062266D01*
X158738133Y-85162266D02*
X158838133Y-85128933D01*
X159004800Y-85128933D01*
X159071466Y-85162266D01*
X159104800Y-85195600D01*
X159138133Y-85262266D01*
X159138133Y-85328933D01*
X159104800Y-85395600D01*
X159071466Y-85428933D01*
X159004800Y-85462266D01*
X158871466Y-85495600D01*
X158804800Y-85528933D01*
X158771466Y-85562266D01*
X158738133Y-85628933D01*
X158738133Y-85695600D01*
X158771466Y-85762266D01*
X158804800Y-85795600D01*
X158871466Y-85828933D01*
X159038133Y-85828933D01*
X159138133Y-85795600D01*
X159438133Y-85128933D02*
X159438133Y-85828933D01*
X159604800Y-85828933D01*
X159704800Y-85795600D01*
X159771466Y-85728933D01*
X159804800Y-85662266D01*
X159838133Y-85528933D01*
X159838133Y-85428933D01*
X159804800Y-85295600D01*
X159771466Y-85228933D01*
X159704800Y-85162266D01*
X159604800Y-85128933D01*
X159438133Y-85128933D01*
X160104800Y-85328933D02*
X160438133Y-85328933D01*
X160038133Y-85128933D02*
X160271466Y-85828933D01*
X160504800Y-85128933D01*
X157536533Y-77762933D02*
X157536533Y-78462933D01*
X157803200Y-78462933D01*
X157869866Y-78429600D01*
X157903200Y-78396266D01*
X157936533Y-78329600D01*
X157936533Y-78229600D01*
X157903200Y-78162933D01*
X157869866Y-78129600D01*
X157803200Y-78096266D01*
X157536533Y-78096266D01*
X158069866Y-77696266D02*
X158603200Y-77696266D01*
X158736533Y-77796266D02*
X158836533Y-77762933D01*
X159003200Y-77762933D01*
X159069866Y-77796266D01*
X159103200Y-77829600D01*
X159136533Y-77896266D01*
X159136533Y-77962933D01*
X159103200Y-78029600D01*
X159069866Y-78062933D01*
X159003200Y-78096266D01*
X158869866Y-78129600D01*
X158803200Y-78162933D01*
X158769866Y-78196266D01*
X158736533Y-78262933D01*
X158736533Y-78329600D01*
X158769866Y-78396266D01*
X158803200Y-78429600D01*
X158869866Y-78462933D01*
X159036533Y-78462933D01*
X159136533Y-78429600D01*
X159836533Y-77829600D02*
X159803200Y-77796266D01*
X159703200Y-77762933D01*
X159636533Y-77762933D01*
X159536533Y-77796266D01*
X159469866Y-77862933D01*
X159436533Y-77929600D01*
X159403200Y-78062933D01*
X159403200Y-78162933D01*
X159436533Y-78296266D01*
X159469866Y-78362933D01*
X159536533Y-78429600D01*
X159636533Y-78462933D01*
X159703200Y-78462933D01*
X159803200Y-78429600D01*
X159836533Y-78396266D01*
X160469866Y-77762933D02*
X160136533Y-77762933D01*
X160136533Y-78462933D01*
D11*
X179178057Y-71724780D02*
X178606628Y-71724780D01*
X178892342Y-71724780D02*
X178892342Y-70724780D01*
X178797104Y-70867638D01*
X178701866Y-70962876D01*
X178606628Y-71010495D01*
X179606628Y-71629542D02*
X179654247Y-71677161D01*
X179606628Y-71724780D01*
X179559009Y-71677161D01*
X179606628Y-71629542D01*
X179606628Y-71724780D01*
X180225676Y-71153352D02*
X180130438Y-71105733D01*
X180082819Y-71058114D01*
X180035200Y-70962876D01*
X180035200Y-70915257D01*
X180082819Y-70820019D01*
X180130438Y-70772400D01*
X180225676Y-70724780D01*
X180416152Y-70724780D01*
X180511390Y-70772400D01*
X180559009Y-70820019D01*
X180606628Y-70915257D01*
X180606628Y-70962876D01*
X180559009Y-71058114D01*
X180511390Y-71105733D01*
X180416152Y-71153352D01*
X180225676Y-71153352D01*
X180130438Y-71200971D01*
X180082819Y-71248590D01*
X180035200Y-71343828D01*
X180035200Y-71534304D01*
X180082819Y-71629542D01*
X180130438Y-71677161D01*
X180225676Y-71724780D01*
X180416152Y-71724780D01*
X180511390Y-71677161D01*
X180559009Y-71629542D01*
X180606628Y-71534304D01*
X180606628Y-71343828D01*
X180559009Y-71248590D01*
X180511390Y-71200971D01*
X180416152Y-71153352D01*
X180892342Y-70724780D02*
X181225676Y-71724780D01*
X181559009Y-70724780D01*
X180149523Y-76109580D02*
X179673333Y-76109580D01*
X179625714Y-76585771D01*
X179673333Y-76538152D01*
X179768571Y-76490533D01*
X180006666Y-76490533D01*
X180101904Y-76538152D01*
X180149523Y-76585771D01*
X180197142Y-76681009D01*
X180197142Y-76919104D01*
X180149523Y-77014342D01*
X180101904Y-77061961D01*
X180006666Y-77109580D01*
X179768571Y-77109580D01*
X179673333Y-77061961D01*
X179625714Y-77014342D01*
X180482857Y-76109580D02*
X180816190Y-77109580D01*
X181149523Y-76109580D01*
D12*
X158406266Y-71698800D02*
X157706266Y-71698800D01*
X157706266Y-71965466D01*
X157739600Y-72032133D01*
X157772933Y-72065466D01*
X157839600Y-72098800D01*
X157939600Y-72098800D01*
X158006266Y-72065466D01*
X158039600Y-72032133D01*
X158072933Y-71965466D01*
X158072933Y-71698800D01*
X158472933Y-72232133D02*
X158472933Y-72765466D01*
X158406266Y-72932133D02*
X157706266Y-72932133D01*
X158406266Y-73265466D02*
X157706266Y-73265466D01*
X158406266Y-73665466D01*
X157706266Y-73665466D01*
X157706266Y-73898800D02*
X157706266Y-74298800D01*
X158406266Y-74098800D02*
X157706266Y-74098800D01*
X157519866Y-75375333D02*
X157519866Y-76075333D01*
X157786533Y-76075333D01*
X157853200Y-76042000D01*
X157886533Y-76008666D01*
X157919866Y-75942000D01*
X157919866Y-75842000D01*
X157886533Y-75775333D01*
X157853200Y-75742000D01*
X157786533Y-75708666D01*
X157519866Y-75708666D01*
X158053200Y-75308666D02*
X158586533Y-75308666D01*
X158719866Y-75408666D02*
X158819866Y-75375333D01*
X158986533Y-75375333D01*
X159053200Y-75408666D01*
X159086533Y-75442000D01*
X159119866Y-75508666D01*
X159119866Y-75575333D01*
X159086533Y-75642000D01*
X159053200Y-75675333D01*
X158986533Y-75708666D01*
X158853200Y-75742000D01*
X158786533Y-75775333D01*
X158753200Y-75808666D01*
X158719866Y-75875333D01*
X158719866Y-75942000D01*
X158753200Y-76008666D01*
X158786533Y-76042000D01*
X158853200Y-76075333D01*
X159019866Y-76075333D01*
X159119866Y-76042000D01*
X159419866Y-75375333D02*
X159419866Y-76075333D01*
X159586533Y-76075333D01*
X159686533Y-76042000D01*
X159753200Y-75975333D01*
X159786533Y-75908666D01*
X159819866Y-75775333D01*
X159819866Y-75675333D01*
X159786533Y-75542000D01*
X159753200Y-75475333D01*
X159686533Y-75408666D01*
X159586533Y-75375333D01*
X159419866Y-75375333D01*
X160086533Y-75575333D02*
X160419866Y-75575333D01*
X160019866Y-75375333D02*
X160253200Y-76075333D01*
X160486533Y-75375333D01*
X158157866Y-83542933D02*
X158224533Y-83542933D01*
X158291200Y-83509600D01*
X158324533Y-83476266D01*
X158357866Y-83409600D01*
X158391200Y-83276266D01*
X158391200Y-83109600D01*
X158357866Y-82976266D01*
X158324533Y-82909600D01*
X158291200Y-82876266D01*
X158224533Y-82842933D01*
X158157866Y-82842933D01*
X158091200Y-82876266D01*
X158057866Y-82909600D01*
X158024533Y-82976266D01*
X157991200Y-83109600D01*
X157991200Y-83276266D01*
X158024533Y-83409600D01*
X158057866Y-83476266D01*
X158091200Y-83509600D01*
X158157866Y-83542933D01*
X157556266Y-80901333D02*
X157989600Y-80901333D01*
X157756266Y-80634666D01*
X157856266Y-80634666D01*
X157922933Y-80601333D01*
X157956266Y-80568000D01*
X157989600Y-80501333D01*
X157989600Y-80334666D01*
X157956266Y-80268000D01*
X157922933Y-80234666D01*
X157856266Y-80201333D01*
X157656266Y-80201333D01*
X157589600Y-80234666D01*
X157556266Y-80268000D01*
X158189600Y-80901333D02*
X158422933Y-80201333D01*
X158656266Y-80901333D01*
D11*
%TO.C,5V Reg*%
X164563180Y-85761580D02*
X165039371Y-85761580D01*
X165086990Y-86237771D01*
X165039371Y-86190152D01*
X164944133Y-86142533D01*
X164706038Y-86142533D01*
X164610800Y-86190152D01*
X164563180Y-86237771D01*
X164515561Y-86333009D01*
X164515561Y-86571104D01*
X164563180Y-86666342D01*
X164610800Y-86713961D01*
X164706038Y-86761580D01*
X164944133Y-86761580D01*
X165039371Y-86713961D01*
X165086990Y-86666342D01*
X164229847Y-85761580D02*
X163896514Y-86761580D01*
X163563180Y-85761580D01*
X161896514Y-86761580D02*
X162229847Y-86285390D01*
X162467942Y-86761580D02*
X162467942Y-85761580D01*
X162086990Y-85761580D01*
X161991752Y-85809200D01*
X161944133Y-85856819D01*
X161896514Y-85952057D01*
X161896514Y-86094914D01*
X161944133Y-86190152D01*
X161991752Y-86237771D01*
X162086990Y-86285390D01*
X162467942Y-86285390D01*
X161086990Y-86713961D02*
X161182228Y-86761580D01*
X161372704Y-86761580D01*
X161467942Y-86713961D01*
X161515561Y-86618723D01*
X161515561Y-86237771D01*
X161467942Y-86142533D01*
X161372704Y-86094914D01*
X161182228Y-86094914D01*
X161086990Y-86142533D01*
X161039371Y-86237771D01*
X161039371Y-86333009D01*
X161515561Y-86428247D01*
X160182228Y-86094914D02*
X160182228Y-86904438D01*
X160229847Y-86999676D01*
X160277466Y-87047295D01*
X160372704Y-87094914D01*
X160515561Y-87094914D01*
X160610800Y-87047295D01*
X160182228Y-86713961D02*
X160277466Y-86761580D01*
X160467942Y-86761580D01*
X160563180Y-86713961D01*
X160610800Y-86666342D01*
X160658419Y-86571104D01*
X160658419Y-86285390D01*
X160610800Y-86190152D01*
X160563180Y-86142533D01*
X160467942Y-86094914D01*
X160277466Y-86094914D01*
X160182228Y-86142533D01*
%TO.C,D1*%
X171273695Y-75120780D02*
X171273695Y-74120780D01*
X171035600Y-74120780D01*
X170892742Y-74168400D01*
X170797504Y-74263638D01*
X170749885Y-74358876D01*
X170702266Y-74549352D01*
X170702266Y-74692209D01*
X170749885Y-74882685D01*
X170797504Y-74977923D01*
X170892742Y-75073161D01*
X171035600Y-75120780D01*
X171273695Y-75120780D01*
X169749885Y-75120780D02*
X170321314Y-75120780D01*
X170035600Y-75120780D02*
X170035600Y-74120780D01*
X170130838Y-74263638D01*
X170226076Y-74358876D01*
X170321314Y-74406495D01*
D12*
%TO.C,4.7k_R4*%
X162128000Y-71071600D02*
X162128000Y-71538266D01*
X162294666Y-70804933D02*
X162461333Y-71304933D01*
X162028000Y-71304933D01*
X161761333Y-71471600D02*
X161728000Y-71504933D01*
X161761333Y-71538266D01*
X161794666Y-71504933D01*
X161761333Y-71471600D01*
X161761333Y-71538266D01*
X161494666Y-70838266D02*
X161028000Y-70838266D01*
X161328000Y-71538266D01*
X160761333Y-71538266D02*
X160761333Y-70838266D01*
X160694666Y-71271600D02*
X160494666Y-71538266D01*
X160494666Y-71071600D02*
X160761333Y-71338266D01*
X160361333Y-71604933D02*
X159828000Y-71604933D01*
X159261333Y-71538266D02*
X159494666Y-71204933D01*
X159661333Y-71538266D02*
X159661333Y-70838266D01*
X159394666Y-70838266D01*
X159328000Y-70871600D01*
X159294666Y-70904933D01*
X159261333Y-70971600D01*
X159261333Y-71071600D01*
X159294666Y-71138266D01*
X159328000Y-71171600D01*
X159394666Y-71204933D01*
X159661333Y-71204933D01*
X158661333Y-71071600D02*
X158661333Y-71538266D01*
X158828000Y-70804933D02*
X158994666Y-71304933D01*
X158561333Y-71304933D01*
D11*
%TO.C,10u_C3*%
X156343200Y-90695428D02*
X156686057Y-90695428D01*
X156514628Y-90695428D02*
X156514628Y-90095428D01*
X156571771Y-90181142D01*
X156628914Y-90238285D01*
X156686057Y-90266857D01*
X155971771Y-90095428D02*
X155914628Y-90095428D01*
X155857485Y-90124000D01*
X155828914Y-90152571D01*
X155800342Y-90209714D01*
X155771771Y-90324000D01*
X155771771Y-90466857D01*
X155800342Y-90581142D01*
X155828914Y-90638285D01*
X155857485Y-90666857D01*
X155914628Y-90695428D01*
X155971771Y-90695428D01*
X156028914Y-90666857D01*
X156057485Y-90638285D01*
X156086057Y-90581142D01*
X156114628Y-90466857D01*
X156114628Y-90324000D01*
X156086057Y-90209714D01*
X156057485Y-90152571D01*
X156028914Y-90124000D01*
X155971771Y-90095428D01*
X155257485Y-90295428D02*
X155257485Y-90695428D01*
X155514628Y-90295428D02*
X155514628Y-90609714D01*
X155486057Y-90666857D01*
X155428914Y-90695428D01*
X155343200Y-90695428D01*
X155286057Y-90666857D01*
X155257485Y-90638285D01*
X155114628Y-90752571D02*
X154657485Y-90752571D01*
X154171771Y-90638285D02*
X154200342Y-90666857D01*
X154286057Y-90695428D01*
X154343200Y-90695428D01*
X154428914Y-90666857D01*
X154486057Y-90609714D01*
X154514628Y-90552571D01*
X154543200Y-90438285D01*
X154543200Y-90352571D01*
X154514628Y-90238285D01*
X154486057Y-90181142D01*
X154428914Y-90124000D01*
X154343200Y-90095428D01*
X154286057Y-90095428D01*
X154200342Y-90124000D01*
X154171771Y-90152571D01*
X153971771Y-90095428D02*
X153600342Y-90095428D01*
X153800342Y-90324000D01*
X153714628Y-90324000D01*
X153657485Y-90352571D01*
X153628914Y-90381142D01*
X153600342Y-90438285D01*
X153600342Y-90581142D01*
X153628914Y-90638285D01*
X153657485Y-90666857D01*
X153714628Y-90695428D01*
X153886057Y-90695428D01*
X153943200Y-90666857D01*
X153971771Y-90638285D01*
D12*
%TO.C,2.2u_L1*%
X164561600Y-83046133D02*
X164528266Y-83012800D01*
X164461600Y-82979466D01*
X164294933Y-82979466D01*
X164228266Y-83012800D01*
X164194933Y-83046133D01*
X164161600Y-83112800D01*
X164161600Y-83179466D01*
X164194933Y-83279466D01*
X164594933Y-83679466D01*
X164161600Y-83679466D01*
X163861600Y-83612800D02*
X163828266Y-83646133D01*
X163861600Y-83679466D01*
X163894933Y-83646133D01*
X163861600Y-83612800D01*
X163861600Y-83679466D01*
X163561600Y-83046133D02*
X163528266Y-83012800D01*
X163461600Y-82979466D01*
X163294933Y-82979466D01*
X163228266Y-83012800D01*
X163194933Y-83046133D01*
X163161600Y-83112800D01*
X163161600Y-83179466D01*
X163194933Y-83279466D01*
X163594933Y-83679466D01*
X163161600Y-83679466D01*
X162561600Y-83212800D02*
X162561600Y-83679466D01*
X162861600Y-83212800D02*
X162861600Y-83579466D01*
X162828266Y-83646133D01*
X162761600Y-83679466D01*
X162661600Y-83679466D01*
X162594933Y-83646133D01*
X162561600Y-83612800D01*
X162394933Y-83746133D02*
X161861600Y-83746133D01*
X161361600Y-83679466D02*
X161694933Y-83679466D01*
X161694933Y-82979466D01*
X160761600Y-83679466D02*
X161161600Y-83679466D01*
X160961600Y-83679466D02*
X160961600Y-82979466D01*
X161028266Y-83079466D01*
X161094933Y-83146133D01*
X161161600Y-83179466D01*
%TO.C,10k_R1*%
X176017066Y-82612666D02*
X176417066Y-82612666D01*
X176217066Y-82612666D02*
X176217066Y-81912666D01*
X176283733Y-82012666D01*
X176350400Y-82079333D01*
X176417066Y-82112666D01*
X175583733Y-81912666D02*
X175517066Y-81912666D01*
X175450400Y-81946000D01*
X175417066Y-81979333D01*
X175383733Y-82046000D01*
X175350400Y-82179333D01*
X175350400Y-82346000D01*
X175383733Y-82479333D01*
X175417066Y-82546000D01*
X175450400Y-82579333D01*
X175517066Y-82612666D01*
X175583733Y-82612666D01*
X175650400Y-82579333D01*
X175683733Y-82546000D01*
X175717066Y-82479333D01*
X175750400Y-82346000D01*
X175750400Y-82179333D01*
X175717066Y-82046000D01*
X175683733Y-81979333D01*
X175650400Y-81946000D01*
X175583733Y-81912666D01*
X175050400Y-82612666D02*
X175050400Y-81912666D01*
X174983733Y-82346000D02*
X174783733Y-82612666D01*
X174783733Y-82146000D02*
X175050400Y-82412666D01*
X174650400Y-82679333D02*
X174117066Y-82679333D01*
X173550400Y-82612666D02*
X173783733Y-82279333D01*
X173950400Y-82612666D02*
X173950400Y-81912666D01*
X173683733Y-81912666D01*
X173617066Y-81946000D01*
X173583733Y-81979333D01*
X173550400Y-82046000D01*
X173550400Y-82146000D01*
X173583733Y-82212666D01*
X173617066Y-82246000D01*
X173683733Y-82279333D01*
X173950400Y-82279333D01*
X172883733Y-82612666D02*
X173283733Y-82612666D01*
X173083733Y-82612666D02*
X173083733Y-81912666D01*
X173150400Y-82012666D01*
X173217066Y-82079333D01*
X173283733Y-82112666D01*
D11*
%TO.C,0.1u_C1*%
X177310857Y-86285428D02*
X177253714Y-86285428D01*
X177196571Y-86314000D01*
X177168000Y-86342571D01*
X177139428Y-86399714D01*
X177110857Y-86514000D01*
X177110857Y-86656857D01*
X177139428Y-86771142D01*
X177168000Y-86828285D01*
X177196571Y-86856857D01*
X177253714Y-86885428D01*
X177310857Y-86885428D01*
X177368000Y-86856857D01*
X177396571Y-86828285D01*
X177425142Y-86771142D01*
X177453714Y-86656857D01*
X177453714Y-86514000D01*
X177425142Y-86399714D01*
X177396571Y-86342571D01*
X177368000Y-86314000D01*
X177310857Y-86285428D01*
X176853714Y-86828285D02*
X176825142Y-86856857D01*
X176853714Y-86885428D01*
X176882285Y-86856857D01*
X176853714Y-86828285D01*
X176853714Y-86885428D01*
X176253714Y-86885428D02*
X176596571Y-86885428D01*
X176425142Y-86885428D02*
X176425142Y-86285428D01*
X176482285Y-86371142D01*
X176539428Y-86428285D01*
X176596571Y-86456857D01*
X175739428Y-86485428D02*
X175739428Y-86885428D01*
X175996571Y-86485428D02*
X175996571Y-86799714D01*
X175968000Y-86856857D01*
X175910857Y-86885428D01*
X175825142Y-86885428D01*
X175768000Y-86856857D01*
X175739428Y-86828285D01*
X175596571Y-86942571D02*
X175139428Y-86942571D01*
X174653714Y-86828285D02*
X174682285Y-86856857D01*
X174768000Y-86885428D01*
X174825142Y-86885428D01*
X174910857Y-86856857D01*
X174968000Y-86799714D01*
X174996571Y-86742571D01*
X175025142Y-86628285D01*
X175025142Y-86542571D01*
X174996571Y-86428285D01*
X174968000Y-86371142D01*
X174910857Y-86314000D01*
X174825142Y-86285428D01*
X174768000Y-86285428D01*
X174682285Y-86314000D01*
X174653714Y-86342571D01*
X174082285Y-86885428D02*
X174425142Y-86885428D01*
X174253714Y-86885428D02*
X174253714Y-86285428D01*
X174310857Y-86371142D01*
X174368000Y-86428285D01*
X174425142Y-86456857D01*
D12*
%TO.C,100k_R1*%
X170965600Y-89470666D02*
X171365600Y-89470666D01*
X171165600Y-89470666D02*
X171165600Y-88770666D01*
X171232266Y-88870666D01*
X171298933Y-88937333D01*
X171365600Y-88970666D01*
X170532266Y-88770666D02*
X170465600Y-88770666D01*
X170398933Y-88804000D01*
X170365600Y-88837333D01*
X170332266Y-88904000D01*
X170298933Y-89037333D01*
X170298933Y-89204000D01*
X170332266Y-89337333D01*
X170365600Y-89404000D01*
X170398933Y-89437333D01*
X170465600Y-89470666D01*
X170532266Y-89470666D01*
X170598933Y-89437333D01*
X170632266Y-89404000D01*
X170665600Y-89337333D01*
X170698933Y-89204000D01*
X170698933Y-89037333D01*
X170665600Y-88904000D01*
X170632266Y-88837333D01*
X170598933Y-88804000D01*
X170532266Y-88770666D01*
X169865600Y-88770666D02*
X169798933Y-88770666D01*
X169732266Y-88804000D01*
X169698933Y-88837333D01*
X169665600Y-88904000D01*
X169632266Y-89037333D01*
X169632266Y-89204000D01*
X169665600Y-89337333D01*
X169698933Y-89404000D01*
X169732266Y-89437333D01*
X169798933Y-89470666D01*
X169865600Y-89470666D01*
X169932266Y-89437333D01*
X169965600Y-89404000D01*
X169998933Y-89337333D01*
X170032266Y-89204000D01*
X170032266Y-89037333D01*
X169998933Y-88904000D01*
X169965600Y-88837333D01*
X169932266Y-88804000D01*
X169865600Y-88770666D01*
X169332266Y-89470666D02*
X169332266Y-88770666D01*
X169265600Y-89204000D02*
X169065600Y-89470666D01*
X169065600Y-89004000D02*
X169332266Y-89270666D01*
X168932266Y-89537333D02*
X168398933Y-89537333D01*
X167832266Y-89470666D02*
X168065600Y-89137333D01*
X168232266Y-89470666D02*
X168232266Y-88770666D01*
X167965600Y-88770666D01*
X167898933Y-88804000D01*
X167865600Y-88837333D01*
X167832266Y-88904000D01*
X167832266Y-89004000D01*
X167865600Y-89070666D01*
X167898933Y-89104000D01*
X167965600Y-89137333D01*
X168232266Y-89137333D01*
X167165600Y-89470666D02*
X167565600Y-89470666D01*
X167365600Y-89470666D02*
X167365600Y-88770666D01*
X167432266Y-88870666D01*
X167498933Y-88937333D01*
X167565600Y-88970666D01*
%TO.C,1k_R6*%
X167550952Y-81845104D02*
X168008095Y-81845104D01*
X167779523Y-81845104D02*
X167779523Y-81045104D01*
X167855714Y-81159390D01*
X167931904Y-81235580D01*
X168008095Y-81273676D01*
X167208095Y-81845104D02*
X167208095Y-81045104D01*
X167131904Y-81540342D02*
X166903333Y-81845104D01*
X166903333Y-81311771D02*
X167208095Y-81616533D01*
X166750952Y-81921295D02*
X166141428Y-81921295D01*
X165493809Y-81845104D02*
X165760476Y-81464152D01*
X165950952Y-81845104D02*
X165950952Y-81045104D01*
X165646190Y-81045104D01*
X165570000Y-81083200D01*
X165531904Y-81121295D01*
X165493809Y-81197485D01*
X165493809Y-81311771D01*
X165531904Y-81387961D01*
X165570000Y-81426057D01*
X165646190Y-81464152D01*
X165950952Y-81464152D01*
X164808095Y-81045104D02*
X164960476Y-81045104D01*
X165036666Y-81083200D01*
X165074761Y-81121295D01*
X165150952Y-81235580D01*
X165189047Y-81387961D01*
X165189047Y-81692723D01*
X165150952Y-81768914D01*
X165112857Y-81807009D01*
X165036666Y-81845104D01*
X164884285Y-81845104D01*
X164808095Y-81807009D01*
X164770000Y-81768914D01*
X164731904Y-81692723D01*
X164731904Y-81502247D01*
X164770000Y-81426057D01*
X164808095Y-81387961D01*
X164884285Y-81349866D01*
X165036666Y-81349866D01*
X165112857Y-81387961D01*
X165150952Y-81426057D01*
X165189047Y-81502247D01*
%TO.C,4.7k_R3*%
X167208000Y-71064000D02*
X167208000Y-71530666D01*
X167374666Y-70797333D02*
X167541333Y-71297333D01*
X167108000Y-71297333D01*
X166841333Y-71464000D02*
X166808000Y-71497333D01*
X166841333Y-71530666D01*
X166874666Y-71497333D01*
X166841333Y-71464000D01*
X166841333Y-71530666D01*
X166574666Y-70830666D02*
X166108000Y-70830666D01*
X166408000Y-71530666D01*
X165841333Y-71530666D02*
X165841333Y-70830666D01*
X165774666Y-71264000D02*
X165574666Y-71530666D01*
X165574666Y-71064000D02*
X165841333Y-71330666D01*
X165441333Y-71597333D02*
X164908000Y-71597333D01*
X164341333Y-71530666D02*
X164574666Y-71197333D01*
X164741333Y-71530666D02*
X164741333Y-70830666D01*
X164474666Y-70830666D01*
X164408000Y-70864000D01*
X164374666Y-70897333D01*
X164341333Y-70964000D01*
X164341333Y-71064000D01*
X164374666Y-71130666D01*
X164408000Y-71164000D01*
X164474666Y-71197333D01*
X164741333Y-71197333D01*
X164108000Y-70830666D02*
X163674666Y-70830666D01*
X163908000Y-71097333D01*
X163808000Y-71097333D01*
X163741333Y-71130666D01*
X163708000Y-71164000D01*
X163674666Y-71230666D01*
X163674666Y-71397333D01*
X163708000Y-71464000D01*
X163741333Y-71497333D01*
X163808000Y-71530666D01*
X164008000Y-71530666D01*
X164074666Y-71497333D01*
X164108000Y-71464000D01*
D11*
%TO.C,J1*%
X154638333Y-70877180D02*
X154638333Y-71591466D01*
X154685952Y-71734323D01*
X154781190Y-71829561D01*
X154924047Y-71877180D01*
X155019285Y-71877180D01*
X153638333Y-71877180D02*
X154209761Y-71877180D01*
X153924047Y-71877180D02*
X153924047Y-70877180D01*
X154019285Y-71020038D01*
X154114523Y-71115276D01*
X154209761Y-71162895D01*
D12*
%TO.C,1u_C4*%
X176021866Y-71639866D02*
X176421866Y-71639866D01*
X176221866Y-71639866D02*
X176221866Y-70939866D01*
X176288533Y-71039866D01*
X176355200Y-71106533D01*
X176421866Y-71139866D01*
X175421866Y-71173200D02*
X175421866Y-71639866D01*
X175721866Y-71173200D02*
X175721866Y-71539866D01*
X175688533Y-71606533D01*
X175621866Y-71639866D01*
X175521866Y-71639866D01*
X175455200Y-71606533D01*
X175421866Y-71573200D01*
X175255200Y-71706533D02*
X174721866Y-71706533D01*
X174155200Y-71573200D02*
X174188533Y-71606533D01*
X174288533Y-71639866D01*
X174355200Y-71639866D01*
X174455200Y-71606533D01*
X174521866Y-71539866D01*
X174555200Y-71473200D01*
X174588533Y-71339866D01*
X174588533Y-71239866D01*
X174555200Y-71106533D01*
X174521866Y-71039866D01*
X174455200Y-70973200D01*
X174355200Y-70939866D01*
X174288533Y-70939866D01*
X174188533Y-70973200D01*
X174155200Y-71006533D01*
X173555200Y-71173200D02*
X173555200Y-71639866D01*
X173721866Y-70906533D02*
X173888533Y-71406533D01*
X173455200Y-71406533D01*
%TO.C,10u_C1*%
X179708000Y-89775466D02*
X180108000Y-89775466D01*
X179908000Y-89775466D02*
X179908000Y-89075466D01*
X179974666Y-89175466D01*
X180041333Y-89242133D01*
X180108000Y-89275466D01*
X179274666Y-89075466D02*
X179208000Y-89075466D01*
X179141333Y-89108800D01*
X179108000Y-89142133D01*
X179074666Y-89208800D01*
X179041333Y-89342133D01*
X179041333Y-89508800D01*
X179074666Y-89642133D01*
X179108000Y-89708800D01*
X179141333Y-89742133D01*
X179208000Y-89775466D01*
X179274666Y-89775466D01*
X179341333Y-89742133D01*
X179374666Y-89708800D01*
X179408000Y-89642133D01*
X179441333Y-89508800D01*
X179441333Y-89342133D01*
X179408000Y-89208800D01*
X179374666Y-89142133D01*
X179341333Y-89108800D01*
X179274666Y-89075466D01*
X178441333Y-89308800D02*
X178441333Y-89775466D01*
X178741333Y-89308800D02*
X178741333Y-89675466D01*
X178708000Y-89742133D01*
X178641333Y-89775466D01*
X178541333Y-89775466D01*
X178474666Y-89742133D01*
X178441333Y-89708800D01*
X178274666Y-89842133D02*
X177741333Y-89842133D01*
X177174666Y-89708800D02*
X177208000Y-89742133D01*
X177308000Y-89775466D01*
X177374666Y-89775466D01*
X177474666Y-89742133D01*
X177541333Y-89675466D01*
X177574666Y-89608800D01*
X177608000Y-89475466D01*
X177608000Y-89375466D01*
X177574666Y-89242133D01*
X177541333Y-89175466D01*
X177474666Y-89108800D01*
X177374666Y-89075466D01*
X177308000Y-89075466D01*
X177208000Y-89108800D01*
X177174666Y-89142133D01*
X176508000Y-89775466D02*
X176908000Y-89775466D01*
X176708000Y-89775466D02*
X176708000Y-89075466D01*
X176774666Y-89175466D01*
X176841333Y-89242133D01*
X176908000Y-89275466D01*
%TO.C,0.1u_C6*%
X176501200Y-75410266D02*
X176434533Y-75410266D01*
X176367866Y-75443600D01*
X176334533Y-75476933D01*
X176301200Y-75543600D01*
X176267866Y-75676933D01*
X176267866Y-75843600D01*
X176301200Y-75976933D01*
X176334533Y-76043600D01*
X176367866Y-76076933D01*
X176434533Y-76110266D01*
X176501200Y-76110266D01*
X176567866Y-76076933D01*
X176601200Y-76043600D01*
X176634533Y-75976933D01*
X176667866Y-75843600D01*
X176667866Y-75676933D01*
X176634533Y-75543600D01*
X176601200Y-75476933D01*
X176567866Y-75443600D01*
X176501200Y-75410266D01*
X175967866Y-76043600D02*
X175934533Y-76076933D01*
X175967866Y-76110266D01*
X176001200Y-76076933D01*
X175967866Y-76043600D01*
X175967866Y-76110266D01*
X175267866Y-76110266D02*
X175667866Y-76110266D01*
X175467866Y-76110266D02*
X175467866Y-75410266D01*
X175534533Y-75510266D01*
X175601200Y-75576933D01*
X175667866Y-75610266D01*
X174667866Y-75643600D02*
X174667866Y-76110266D01*
X174967866Y-75643600D02*
X174967866Y-76010266D01*
X174934533Y-76076933D01*
X174867866Y-76110266D01*
X174767866Y-76110266D01*
X174701200Y-76076933D01*
X174667866Y-76043600D01*
X174501200Y-76176933D02*
X173967866Y-76176933D01*
X173401200Y-76043600D02*
X173434533Y-76076933D01*
X173534533Y-76110266D01*
X173601200Y-76110266D01*
X173701200Y-76076933D01*
X173767866Y-76010266D01*
X173801200Y-75943600D01*
X173834533Y-75810266D01*
X173834533Y-75710266D01*
X173801200Y-75576933D01*
X173767866Y-75510266D01*
X173701200Y-75443600D01*
X173601200Y-75410266D01*
X173534533Y-75410266D01*
X173434533Y-75443600D01*
X173401200Y-75476933D01*
X172801200Y-75410266D02*
X172934533Y-75410266D01*
X173001200Y-75443600D01*
X173034533Y-75476933D01*
X173101200Y-75576933D01*
X173134533Y-75710266D01*
X173134533Y-75976933D01*
X173101200Y-76043600D01*
X173067866Y-76076933D01*
X173001200Y-76110266D01*
X172867866Y-76110266D01*
X172801200Y-76076933D01*
X172767866Y-76043600D01*
X172734533Y-75976933D01*
X172734533Y-75810266D01*
X172767866Y-75743600D01*
X172801200Y-75710266D01*
X172867866Y-75676933D01*
X173001200Y-75676933D01*
X173067866Y-75710266D01*
X173101200Y-75743600D01*
X173134533Y-75810266D01*
%TO.C,10k_R2*%
X171749866Y-82714266D02*
X172149866Y-82714266D01*
X171949866Y-82714266D02*
X171949866Y-82014266D01*
X172016533Y-82114266D01*
X172083200Y-82180933D01*
X172149866Y-82214266D01*
X171316533Y-82014266D02*
X171249866Y-82014266D01*
X171183200Y-82047600D01*
X171149866Y-82080933D01*
X171116533Y-82147600D01*
X171083200Y-82280933D01*
X171083200Y-82447600D01*
X171116533Y-82580933D01*
X171149866Y-82647600D01*
X171183200Y-82680933D01*
X171249866Y-82714266D01*
X171316533Y-82714266D01*
X171383200Y-82680933D01*
X171416533Y-82647600D01*
X171449866Y-82580933D01*
X171483200Y-82447600D01*
X171483200Y-82280933D01*
X171449866Y-82147600D01*
X171416533Y-82080933D01*
X171383200Y-82047600D01*
X171316533Y-82014266D01*
X170783200Y-82714266D02*
X170783200Y-82014266D01*
X170716533Y-82447600D02*
X170516533Y-82714266D01*
X170516533Y-82247600D02*
X170783200Y-82514266D01*
X170383200Y-82780933D02*
X169849866Y-82780933D01*
X169283200Y-82714266D02*
X169516533Y-82380933D01*
X169683200Y-82714266D02*
X169683200Y-82014266D01*
X169416533Y-82014266D01*
X169349866Y-82047600D01*
X169316533Y-82080933D01*
X169283200Y-82147600D01*
X169283200Y-82247600D01*
X169316533Y-82314266D01*
X169349866Y-82347600D01*
X169416533Y-82380933D01*
X169683200Y-82380933D01*
X169016533Y-82080933D02*
X168983200Y-82047600D01*
X168916533Y-82014266D01*
X168749866Y-82014266D01*
X168683200Y-82047600D01*
X168649866Y-82080933D01*
X168616533Y-82147600D01*
X168616533Y-82214266D01*
X168649866Y-82314266D01*
X169049866Y-82714266D01*
X168616533Y-82714266D01*
%TO.C,750k_R2*%
X175920133Y-89329466D02*
X175453466Y-89329466D01*
X175753466Y-90029466D01*
X174853466Y-89329466D02*
X175186800Y-89329466D01*
X175220133Y-89662800D01*
X175186800Y-89629466D01*
X175120133Y-89596133D01*
X174953466Y-89596133D01*
X174886800Y-89629466D01*
X174853466Y-89662800D01*
X174820133Y-89729466D01*
X174820133Y-89896133D01*
X174853466Y-89962800D01*
X174886800Y-89996133D01*
X174953466Y-90029466D01*
X175120133Y-90029466D01*
X175186800Y-89996133D01*
X175220133Y-89962800D01*
X174386800Y-89329466D02*
X174320133Y-89329466D01*
X174253466Y-89362800D01*
X174220133Y-89396133D01*
X174186800Y-89462800D01*
X174153466Y-89596133D01*
X174153466Y-89762800D01*
X174186800Y-89896133D01*
X174220133Y-89962800D01*
X174253466Y-89996133D01*
X174320133Y-90029466D01*
X174386800Y-90029466D01*
X174453466Y-89996133D01*
X174486800Y-89962800D01*
X174520133Y-89896133D01*
X174553466Y-89762800D01*
X174553466Y-89596133D01*
X174520133Y-89462800D01*
X174486800Y-89396133D01*
X174453466Y-89362800D01*
X174386800Y-89329466D01*
X173853466Y-90029466D02*
X173853466Y-89329466D01*
X173786800Y-89762800D02*
X173586800Y-90029466D01*
X173586800Y-89562800D02*
X173853466Y-89829466D01*
X173453466Y-90096133D02*
X172920133Y-90096133D01*
X172353466Y-90029466D02*
X172586800Y-89696133D01*
X172753466Y-90029466D02*
X172753466Y-89329466D01*
X172486800Y-89329466D01*
X172420133Y-89362800D01*
X172386800Y-89396133D01*
X172353466Y-89462800D01*
X172353466Y-89562800D01*
X172386800Y-89629466D01*
X172420133Y-89662800D01*
X172486800Y-89696133D01*
X172753466Y-89696133D01*
X172086800Y-89396133D02*
X172053466Y-89362800D01*
X171986800Y-89329466D01*
X171820133Y-89329466D01*
X171753466Y-89362800D01*
X171720133Y-89396133D01*
X171686800Y-89462800D01*
X171686800Y-89529466D01*
X171720133Y-89629466D01*
X172120133Y-90029466D01*
X171686800Y-90029466D01*
%TO.C,4.7k_R5*%
X172338800Y-71173200D02*
X172338800Y-71639866D01*
X172505466Y-70906533D02*
X172672133Y-71406533D01*
X172238800Y-71406533D01*
X171972133Y-71573200D02*
X171938800Y-71606533D01*
X171972133Y-71639866D01*
X172005466Y-71606533D01*
X171972133Y-71573200D01*
X171972133Y-71639866D01*
X171705466Y-70939866D02*
X171238800Y-70939866D01*
X171538800Y-71639866D01*
X170972133Y-71639866D02*
X170972133Y-70939866D01*
X170905466Y-71373200D02*
X170705466Y-71639866D01*
X170705466Y-71173200D02*
X170972133Y-71439866D01*
X170572133Y-71706533D02*
X170038800Y-71706533D01*
X169472133Y-71639866D02*
X169705466Y-71306533D01*
X169872133Y-71639866D02*
X169872133Y-70939866D01*
X169605466Y-70939866D01*
X169538800Y-70973200D01*
X169505466Y-71006533D01*
X169472133Y-71073200D01*
X169472133Y-71173200D01*
X169505466Y-71239866D01*
X169538800Y-71273200D01*
X169605466Y-71306533D01*
X169872133Y-71306533D01*
X168838800Y-70939866D02*
X169172133Y-70939866D01*
X169205466Y-71273200D01*
X169172133Y-71239866D01*
X169105466Y-71206533D01*
X168938800Y-71206533D01*
X168872133Y-71239866D01*
X168838800Y-71273200D01*
X168805466Y-71339866D01*
X168805466Y-71506533D01*
X168838800Y-71573200D01*
X168872133Y-71606533D01*
X168938800Y-71639866D01*
X169105466Y-71639866D01*
X169172133Y-71606533D01*
X169205466Y-71573200D01*
%TO.C,Reg 1.8V*%
X173148400Y-85101866D02*
X173381733Y-84768533D01*
X173548400Y-85101866D02*
X173548400Y-84401866D01*
X173281733Y-84401866D01*
X173215066Y-84435200D01*
X173181733Y-84468533D01*
X173148400Y-84535200D01*
X173148400Y-84635200D01*
X173181733Y-84701866D01*
X173215066Y-84735200D01*
X173281733Y-84768533D01*
X173548400Y-84768533D01*
X172581733Y-85068533D02*
X172648400Y-85101866D01*
X172781733Y-85101866D01*
X172848400Y-85068533D01*
X172881733Y-85001866D01*
X172881733Y-84735200D01*
X172848400Y-84668533D01*
X172781733Y-84635200D01*
X172648400Y-84635200D01*
X172581733Y-84668533D01*
X172548400Y-84735200D01*
X172548400Y-84801866D01*
X172881733Y-84868533D01*
X171948400Y-84635200D02*
X171948400Y-85201866D01*
X171981733Y-85268533D01*
X172015066Y-85301866D01*
X172081733Y-85335200D01*
X172181733Y-85335200D01*
X172248400Y-85301866D01*
X171948400Y-85068533D02*
X172015066Y-85101866D01*
X172148400Y-85101866D01*
X172215066Y-85068533D01*
X172248400Y-85035200D01*
X172281733Y-84968533D01*
X172281733Y-84768533D01*
X172248400Y-84701866D01*
X172215066Y-84668533D01*
X172148400Y-84635200D01*
X172015066Y-84635200D01*
X171948400Y-84668533D01*
X170715066Y-85101866D02*
X171115066Y-85101866D01*
X170915066Y-85101866D02*
X170915066Y-84401866D01*
X170981733Y-84501866D01*
X171048400Y-84568533D01*
X171115066Y-84601866D01*
X170415066Y-85035200D02*
X170381733Y-85068533D01*
X170415066Y-85101866D01*
X170448400Y-85068533D01*
X170415066Y-85035200D01*
X170415066Y-85101866D01*
X169981733Y-84701866D02*
X170048400Y-84668533D01*
X170081733Y-84635200D01*
X170115066Y-84568533D01*
X170115066Y-84535200D01*
X170081733Y-84468533D01*
X170048400Y-84435200D01*
X169981733Y-84401866D01*
X169848400Y-84401866D01*
X169781733Y-84435200D01*
X169748400Y-84468533D01*
X169715066Y-84535200D01*
X169715066Y-84568533D01*
X169748400Y-84635200D01*
X169781733Y-84668533D01*
X169848400Y-84701866D01*
X169981733Y-84701866D01*
X170048400Y-84735200D01*
X170081733Y-84768533D01*
X170115066Y-84835200D01*
X170115066Y-84968533D01*
X170081733Y-85035200D01*
X170048400Y-85068533D01*
X169981733Y-85101866D01*
X169848400Y-85101866D01*
X169781733Y-85068533D01*
X169748400Y-85035200D01*
X169715066Y-84968533D01*
X169715066Y-84835200D01*
X169748400Y-84768533D01*
X169781733Y-84735200D01*
X169848400Y-84701866D01*
X169515066Y-84401866D02*
X169281733Y-85101866D01*
X169048400Y-84401866D01*
D11*
X170688000Y-86320380D02*
X170688000Y-86558476D01*
X170926095Y-86463238D02*
X170688000Y-86558476D01*
X170449904Y-86463238D01*
X170830857Y-86748952D02*
X170688000Y-86558476D01*
X170545142Y-86748952D01*
D13*
%TO.C,5V Reg*%
X161442400Y-87325200D02*
X164795200Y-87325200D01*
X164795200Y-90678000D02*
X161442400Y-90678000D01*
D14*
%TO.C,D1*%
X172020600Y-75363400D02*
X172020600Y-76833400D01*
X172020600Y-76833400D02*
X169735600Y-76833400D01*
X169735600Y-75363400D02*
X172020600Y-75363400D01*
%TO.C,4.7k_R4*%
X161273258Y-72121500D02*
X160798742Y-72121500D01*
X161273258Y-73166500D02*
X160798742Y-73166500D01*
%TO.C,10u_C3*%
X158382580Y-90777600D02*
X158101420Y-90777600D01*
X158382580Y-91797600D02*
X158101420Y-91797600D01*
%TO.C,2.2u_L1*%
X162752821Y-85346000D02*
X163078379Y-85346000D01*
X162752821Y-84326000D02*
X163078379Y-84326000D01*
%TO.C,10k_R1*%
X174768742Y-83043500D02*
X175243258Y-83043500D01*
X174768742Y-84088500D02*
X175243258Y-84088500D01*
%TO.C,0.1u_C1*%
X175908580Y-88394000D02*
X175627420Y-88394000D01*
X175908580Y-87374000D02*
X175627420Y-87374000D01*
%TO.C,100k_R1*%
X168672742Y-91505300D02*
X169147258Y-91505300D01*
X168672742Y-90460300D02*
X169147258Y-90460300D01*
%TO.C,1k_R6*%
X166132742Y-83529700D02*
X166607258Y-83529700D01*
X166132742Y-82484700D02*
X166607258Y-82484700D01*
%TO.C,4.7k_R3*%
X165845258Y-72121500D02*
X165370742Y-72121500D01*
X165845258Y-73166500D02*
X165370742Y-73166500D01*
%TO.C,J1*%
X154626000Y-74417000D02*
X154626000Y-89717000D01*
X157286000Y-89717000D02*
X154626000Y-89717000D01*
X157286000Y-71817000D02*
X155956000Y-71817000D01*
X157286000Y-73147000D02*
X157286000Y-71817000D01*
X157286000Y-74417000D02*
X154626000Y-74417000D01*
X157286000Y-74417000D02*
X157286000Y-89717000D01*
%TO.C,1u_C4*%
X174611420Y-73154000D02*
X174892580Y-73154000D01*
X174611420Y-72134000D02*
X174892580Y-72134000D01*
%TO.C,10u_C1*%
X178143780Y-91238800D02*
X177862620Y-91238800D01*
X178143780Y-90218800D02*
X177862620Y-90218800D01*
%TO.C,0.1u_C6*%
X174994180Y-75135200D02*
X174713020Y-75135200D01*
X174994180Y-74115200D02*
X174713020Y-74115200D01*
%TO.C,10k_R2*%
X169942742Y-84088500D02*
X170417258Y-84088500D01*
X169942742Y-83043500D02*
X170417258Y-83043500D01*
%TO.C,750k_R2*%
X173143142Y-91454500D02*
X173617658Y-91454500D01*
X173143142Y-90409500D02*
X173617658Y-90409500D01*
%TO.C,4.7k_R5*%
X169942742Y-73166500D02*
X170417258Y-73166500D01*
X169942742Y-72121500D02*
X170417258Y-72121500D01*
%TO.C,Reg 1.8V*%
X171099859Y-87695000D02*
X170276141Y-87695000D01*
X169036000Y-86041000D02*
X170074860Y-86041000D01*
X169036000Y-87695000D02*
X169036000Y-86041000D01*
X172340000Y-86041000D02*
X172340000Y-87695000D01*
X171301140Y-86041000D02*
X172340000Y-86041000D01*
X173610000Y-88118000D02*
G75*
G03*
X173610000Y-88118000I-127000J0D01*
G01*
%TD*%
%LPC*%
D15*
%TO.C,3V*%
X180289200Y-84175600D03*
%TD*%
%TO.C,5V*%
X180289200Y-78994000D03*
%TD*%
%TO.C,1.8V*%
X180086000Y-73660000D03*
%TD*%
D16*
%TO.C,5V Reg*%
X165239700Y-88026240D03*
X165239700Y-88676480D03*
X165239700Y-89326720D03*
X165239700Y-89976960D03*
X160997900Y-89976960D03*
X160997900Y-89326720D03*
X160997900Y-88676480D03*
X160997900Y-88026240D03*
%TD*%
D17*
%TO.C,D1*%
X171323100Y-76098400D03*
X169748100Y-76098400D03*
%TD*%
D18*
%TO.C,4.7k_R4*%
X161861000Y-72644000D03*
X160211000Y-72644000D03*
%TD*%
D19*
%TO.C,10u_C3*%
X159017000Y-91287600D03*
X157467000Y-91287600D03*
%TD*%
D20*
%TO.C,2.2u_L1*%
X162128100Y-84836000D03*
X163703100Y-84836000D03*
%TD*%
D21*
%TO.C,10k_R1*%
X174181000Y-83566000D03*
X175831000Y-83566000D03*
%TD*%
D19*
%TO.C,0.1u_C1*%
X176543000Y-87884000D03*
X174993000Y-87884000D03*
%TD*%
D21*
%TO.C,100k_R1*%
X168085000Y-90982800D03*
X169735000Y-90982800D03*
%TD*%
%TO.C,1k_R6*%
X165545000Y-83007200D03*
X167195000Y-83007200D03*
%TD*%
D18*
%TO.C,4.7k_R3*%
X166433000Y-72644000D03*
X164783000Y-72644000D03*
%TD*%
D15*
%TO.C,J1*%
X155956000Y-73147000D03*
D22*
X155956000Y-75687000D03*
X155956000Y-78227000D03*
X155956000Y-80767000D03*
X155956000Y-83307000D03*
X155956000Y-85847000D03*
X155956000Y-88387000D03*
%TD*%
D23*
%TO.C,1u_C4*%
X173977000Y-72644000D03*
X175527000Y-72644000D03*
%TD*%
D19*
%TO.C,10u_C1*%
X178778200Y-90728800D03*
X177228200Y-90728800D03*
%TD*%
%TO.C,0.1u_C6*%
X175628600Y-74625200D03*
X174078600Y-74625200D03*
%TD*%
D21*
%TO.C,10k_R2*%
X169355000Y-83566000D03*
X171005000Y-83566000D03*
%TD*%
%TO.C,750k_R2*%
X172555400Y-90932000D03*
X174205400Y-90932000D03*
%TD*%
%TO.C,4.7k_R5*%
X169355000Y-72644000D03*
X171005000Y-72644000D03*
%TD*%
D24*
%TO.C,Reg 1.8V*%
X171712999Y-87812999D03*
X169663001Y-87812999D03*
X170688000Y-85923000D03*
%TD*%
M02*
