%TF.GenerationSoftware,KiCad,Pcbnew,(6.0.9)*%
%TF.CreationDate,2023-09-05T16:33:00-05:00*%
%TF.ProjectId,Pulse_Temp,50756c73-655f-4546-956d-702e6b696361,rev?*%
%TF.SameCoordinates,Original*%
%TF.FileFunction,Drillmap*%
%TF.FilePolarity,Positive*%
%FSLAX45Y45*%
G04 Gerber Fmt 4.5, Leading zero omitted, Abs format (unit mm)*
G04 Created by KiCad (PCBNEW (6.0.9)) date 2023-09-05 16:33:00*
%MOMM*%
%LPD*%
G01*
G04 APERTURE LIST*
%ADD10C,0.100000*%
%ADD11C,0.200000*%
%ADD12C,0.040000*%
G04 APERTURE END LIST*
D10*
X18237200Y-9245600D02*
X15341600Y-9245600D01*
X15341600Y-7061200D01*
X18237200Y-7061200D01*
X18237200Y-9245600D01*
D11*
D12*
X15866017Y-7874808D02*
X15906017Y-7914808D01*
X15906017Y-7874808D02*
X15866017Y-7914808D01*
X15868130Y-8730730D02*
X15908130Y-8770730D01*
X15908130Y-8730730D02*
X15868130Y-8770730D01*
X15875970Y-8381670D02*
X15915970Y-8421670D01*
X15915970Y-8381670D02*
X15875970Y-8421670D01*
X15982000Y-7375150D02*
X16022000Y-7415150D01*
X16022000Y-7375150D02*
X15982000Y-7415150D01*
X16027720Y-7102160D02*
X16067720Y-7142160D01*
X16067720Y-7102160D02*
X16027720Y-7142160D01*
X16312200Y-7371400D02*
X16352200Y-7411400D01*
X16352200Y-7371400D02*
X16312200Y-7411400D01*
X16688120Y-7371400D02*
X16728120Y-7411400D01*
X16728120Y-7371400D02*
X16688120Y-7411400D01*
X16744000Y-8961440D02*
X16784000Y-9001440D01*
X16784000Y-8961440D02*
X16744000Y-9001440D01*
X16769400Y-8387400D02*
X16809400Y-8427400D01*
X16809400Y-8387400D02*
X16769400Y-8427400D01*
X16820200Y-8158800D02*
X16860200Y-8198800D01*
X16860200Y-8158800D02*
X16820200Y-8198800D01*
X16820200Y-8692200D02*
X16860200Y-8732200D01*
X16860200Y-8692200D02*
X16820200Y-8732200D01*
X16845600Y-7854000D02*
X16885600Y-7894000D01*
X16885600Y-7854000D02*
X16845600Y-7894000D01*
X16947200Y-8158800D02*
X16987200Y-8198800D01*
X16987200Y-8158800D02*
X16947200Y-8198800D01*
X16998000Y-7727000D02*
X17038000Y-7767000D01*
X17038000Y-7727000D02*
X16998000Y-7767000D01*
X17104680Y-9052880D02*
X17144680Y-9092880D01*
X17144680Y-9052880D02*
X17104680Y-9092880D01*
X17216440Y-7462840D02*
X17256440Y-7502840D01*
X17256440Y-7462840D02*
X17216440Y-7502840D01*
X17226600Y-7955600D02*
X17266600Y-7995600D01*
X17266600Y-7955600D02*
X17226600Y-7995600D01*
X17226600Y-8463600D02*
X17266600Y-8503600D01*
X17266600Y-8463600D02*
X17226600Y-8503600D01*
X17404400Y-8158800D02*
X17444400Y-8198800D01*
X17444400Y-8158800D02*
X17404400Y-8198800D01*
X17516160Y-9073200D02*
X17556160Y-9113200D01*
X17556160Y-9073200D02*
X17516160Y-9113200D01*
X17582630Y-8615570D02*
X17622630Y-8655570D01*
X17622630Y-8615570D02*
X17582630Y-8655570D01*
X17683800Y-7574600D02*
X17723800Y-7614600D01*
X17723800Y-7574600D02*
X17683800Y-7614600D01*
X17709200Y-8082600D02*
X17749200Y-8122600D01*
X17749200Y-8082600D02*
X17709200Y-8122600D01*
D10*
X15645600Y-7314700D02*
G75*
G03*
X15645600Y-7314700I-50000J0D01*
G01*
X15645600Y-7568700D02*
G75*
G03*
X15645600Y-7568700I-50000J0D01*
G01*
X15645600Y-7822700D02*
G75*
G03*
X15645600Y-7822700I-50000J0D01*
G01*
X15645600Y-8076700D02*
G75*
G03*
X15645600Y-8076700I-50000J0D01*
G01*
X15645600Y-8330700D02*
G75*
G03*
X15645600Y-8330700I-50000J0D01*
G01*
X15645600Y-8584700D02*
G75*
G03*
X15645600Y-8584700I-50000J0D01*
G01*
X15645600Y-8838700D02*
G75*
G03*
X15645600Y-8838700I-50000J0D01*
G01*
X18058600Y-7366000D02*
G75*
G03*
X18058600Y-7366000I-50000J0D01*
G01*
X18078920Y-7899400D02*
G75*
G03*
X18078920Y-7899400I-50000J0D01*
G01*
X18078920Y-8417560D02*
G75*
G03*
X18078920Y-8417560I-50000J0D01*
G01*
D11*
X15594219Y-9561076D02*
X15594219Y-9361076D01*
X15641838Y-9361076D01*
X15670409Y-9370600D01*
X15689457Y-9389648D01*
X15698981Y-9408695D01*
X15708505Y-9446790D01*
X15708505Y-9475362D01*
X15698981Y-9513457D01*
X15689457Y-9532505D01*
X15670409Y-9551552D01*
X15641838Y-9561076D01*
X15594219Y-9561076D01*
X15794219Y-9561076D02*
X15794219Y-9427743D01*
X15794219Y-9465838D02*
X15803743Y-9446790D01*
X15813267Y-9437267D01*
X15832314Y-9427743D01*
X15851362Y-9427743D01*
X15918028Y-9561076D02*
X15918028Y-9427743D01*
X15918028Y-9361076D02*
X15908505Y-9370600D01*
X15918028Y-9380124D01*
X15927552Y-9370600D01*
X15918028Y-9361076D01*
X15918028Y-9380124D01*
X16041838Y-9561076D02*
X16022790Y-9551552D01*
X16013267Y-9532505D01*
X16013267Y-9361076D01*
X16146600Y-9561076D02*
X16127552Y-9551552D01*
X16118028Y-9532505D01*
X16118028Y-9361076D01*
X16375171Y-9561076D02*
X16375171Y-9361076D01*
X16441838Y-9503933D01*
X16508505Y-9361076D01*
X16508505Y-9561076D01*
X16689457Y-9561076D02*
X16689457Y-9456314D01*
X16679933Y-9437267D01*
X16660886Y-9427743D01*
X16622790Y-9427743D01*
X16603743Y-9437267D01*
X16689457Y-9551552D02*
X16670409Y-9561076D01*
X16622790Y-9561076D01*
X16603743Y-9551552D01*
X16594219Y-9532505D01*
X16594219Y-9513457D01*
X16603743Y-9494410D01*
X16622790Y-9484886D01*
X16670409Y-9484886D01*
X16689457Y-9475362D01*
X16784695Y-9427743D02*
X16784695Y-9627743D01*
X16784695Y-9437267D02*
X16803743Y-9427743D01*
X16841838Y-9427743D01*
X16860886Y-9437267D01*
X16870410Y-9446790D01*
X16879933Y-9465838D01*
X16879933Y-9522981D01*
X16870410Y-9542029D01*
X16860886Y-9551552D01*
X16841838Y-9561076D01*
X16803743Y-9561076D01*
X16784695Y-9551552D01*
X16965648Y-9542029D02*
X16975171Y-9551552D01*
X16965648Y-9561076D01*
X16956124Y-9551552D01*
X16965648Y-9542029D01*
X16965648Y-9561076D01*
X16965648Y-9437267D02*
X16975171Y-9446790D01*
X16965648Y-9456314D01*
X16956124Y-9446790D01*
X16965648Y-9437267D01*
X16965648Y-9456314D01*
D12*
X15296600Y-9870600D02*
X15336600Y-9910600D01*
X15336600Y-9870600D02*
X15296600Y-9910600D01*
D11*
X15632314Y-9781076D02*
X15651362Y-9781076D01*
X15670409Y-9790600D01*
X15679933Y-9800124D01*
X15689457Y-9819171D01*
X15698981Y-9857267D01*
X15698981Y-9904886D01*
X15689457Y-9942981D01*
X15679933Y-9962029D01*
X15670409Y-9971552D01*
X15651362Y-9981076D01*
X15632314Y-9981076D01*
X15613267Y-9971552D01*
X15603743Y-9962029D01*
X15594219Y-9942981D01*
X15584695Y-9904886D01*
X15584695Y-9857267D01*
X15594219Y-9819171D01*
X15603743Y-9800124D01*
X15613267Y-9790600D01*
X15632314Y-9781076D01*
X15784695Y-9962029D02*
X15794219Y-9971552D01*
X15784695Y-9981076D01*
X15775171Y-9971552D01*
X15784695Y-9962029D01*
X15784695Y-9981076D01*
X15965648Y-9847743D02*
X15965648Y-9981076D01*
X15918028Y-9771552D02*
X15870409Y-9914410D01*
X15994219Y-9914410D01*
X16108505Y-9781076D02*
X16127552Y-9781076D01*
X16146600Y-9790600D01*
X16156124Y-9800124D01*
X16165648Y-9819171D01*
X16175171Y-9857267D01*
X16175171Y-9904886D01*
X16165648Y-9942981D01*
X16156124Y-9962029D01*
X16146600Y-9971552D01*
X16127552Y-9981076D01*
X16108505Y-9981076D01*
X16089457Y-9971552D01*
X16079933Y-9962029D01*
X16070409Y-9942981D01*
X16060886Y-9904886D01*
X16060886Y-9857267D01*
X16070409Y-9819171D01*
X16079933Y-9800124D01*
X16089457Y-9790600D01*
X16108505Y-9781076D01*
X16298981Y-9781076D02*
X16318028Y-9781076D01*
X16337076Y-9790600D01*
X16346600Y-9800124D01*
X16356124Y-9819171D01*
X16365648Y-9857267D01*
X16365648Y-9904886D01*
X16356124Y-9942981D01*
X16346600Y-9962029D01*
X16337076Y-9971552D01*
X16318028Y-9981076D01*
X16298981Y-9981076D01*
X16279933Y-9971552D01*
X16270409Y-9962029D01*
X16260886Y-9942981D01*
X16251362Y-9904886D01*
X16251362Y-9857267D01*
X16260886Y-9819171D01*
X16270409Y-9800124D01*
X16279933Y-9790600D01*
X16298981Y-9781076D01*
X16451362Y-9981076D02*
X16451362Y-9847743D01*
X16451362Y-9866790D02*
X16460886Y-9857267D01*
X16479933Y-9847743D01*
X16508505Y-9847743D01*
X16527552Y-9857267D01*
X16537076Y-9876314D01*
X16537076Y-9981076D01*
X16537076Y-9876314D02*
X16546600Y-9857267D01*
X16565648Y-9847743D01*
X16594219Y-9847743D01*
X16613267Y-9857267D01*
X16622790Y-9876314D01*
X16622790Y-9981076D01*
X16718028Y-9981076D02*
X16718028Y-9847743D01*
X16718028Y-9866790D02*
X16727552Y-9857267D01*
X16746600Y-9847743D01*
X16775171Y-9847743D01*
X16794219Y-9857267D01*
X16803743Y-9876314D01*
X16803743Y-9981076D01*
X16803743Y-9876314D02*
X16813267Y-9857267D01*
X16832314Y-9847743D01*
X16860886Y-9847743D01*
X16879933Y-9857267D01*
X16889457Y-9876314D01*
X16889457Y-9981076D01*
X17279933Y-9771552D02*
X17108505Y-10028695D01*
X17537076Y-9781076D02*
X17556124Y-9781076D01*
X17575171Y-9790600D01*
X17584695Y-9800124D01*
X17594219Y-9819171D01*
X17603743Y-9857267D01*
X17603743Y-9904886D01*
X17594219Y-9942981D01*
X17584695Y-9962029D01*
X17575171Y-9971552D01*
X17556124Y-9981076D01*
X17537076Y-9981076D01*
X17518029Y-9971552D01*
X17508505Y-9962029D01*
X17498981Y-9942981D01*
X17489457Y-9904886D01*
X17489457Y-9857267D01*
X17498981Y-9819171D01*
X17508505Y-9800124D01*
X17518029Y-9790600D01*
X17537076Y-9781076D01*
X17689457Y-9962029D02*
X17698981Y-9971552D01*
X17689457Y-9981076D01*
X17679933Y-9971552D01*
X17689457Y-9962029D01*
X17689457Y-9981076D01*
X17822790Y-9781076D02*
X17841838Y-9781076D01*
X17860886Y-9790600D01*
X17870410Y-9800124D01*
X17879933Y-9819171D01*
X17889457Y-9857267D01*
X17889457Y-9904886D01*
X17879933Y-9942981D01*
X17870410Y-9962029D01*
X17860886Y-9971552D01*
X17841838Y-9981076D01*
X17822790Y-9981076D01*
X17803743Y-9971552D01*
X17794219Y-9962029D01*
X17784695Y-9942981D01*
X17775171Y-9904886D01*
X17775171Y-9857267D01*
X17784695Y-9819171D01*
X17794219Y-9800124D01*
X17803743Y-9790600D01*
X17822790Y-9781076D01*
X18079933Y-9981076D02*
X17965648Y-9981076D01*
X18022790Y-9981076D02*
X18022790Y-9781076D01*
X18003743Y-9809648D01*
X17984695Y-9828695D01*
X17965648Y-9838219D01*
X18260886Y-9781076D02*
X18165648Y-9781076D01*
X18156124Y-9876314D01*
X18165648Y-9866790D01*
X18184695Y-9857267D01*
X18232314Y-9857267D01*
X18251362Y-9866790D01*
X18260886Y-9876314D01*
X18270410Y-9895362D01*
X18270410Y-9942981D01*
X18260886Y-9962029D01*
X18251362Y-9971552D01*
X18232314Y-9981076D01*
X18184695Y-9981076D01*
X18165648Y-9971552D01*
X18156124Y-9962029D01*
X18337076Y-9781076D02*
X18470410Y-9781076D01*
X18384695Y-9981076D01*
X18537076Y-9781076D02*
X18537076Y-9819171D01*
X18613267Y-9781076D02*
X18613267Y-9819171D01*
X18908505Y-10057267D02*
X18898981Y-10047743D01*
X18879933Y-10019171D01*
X18870410Y-10000124D01*
X18860886Y-9971552D01*
X18851362Y-9923933D01*
X18851362Y-9885838D01*
X18860886Y-9838219D01*
X18870410Y-9809648D01*
X18879933Y-9790600D01*
X18898981Y-9762029D01*
X18908505Y-9752505D01*
X18975171Y-9800124D02*
X18984695Y-9790600D01*
X19003743Y-9781076D01*
X19051362Y-9781076D01*
X19070410Y-9790600D01*
X19079933Y-9800124D01*
X19089457Y-9819171D01*
X19089457Y-9838219D01*
X19079933Y-9866790D01*
X18965648Y-9981076D01*
X19089457Y-9981076D01*
X19156124Y-9781076D02*
X19279933Y-9781076D01*
X19213267Y-9857267D01*
X19241838Y-9857267D01*
X19260886Y-9866790D01*
X19270410Y-9876314D01*
X19279933Y-9895362D01*
X19279933Y-9942981D01*
X19270410Y-9962029D01*
X19260886Y-9971552D01*
X19241838Y-9981076D01*
X19184695Y-9981076D01*
X19165648Y-9971552D01*
X19156124Y-9962029D01*
X19518029Y-9981076D02*
X19518029Y-9781076D01*
X19603743Y-9981076D02*
X19603743Y-9876314D01*
X19594219Y-9857267D01*
X19575171Y-9847743D01*
X19546600Y-9847743D01*
X19527552Y-9857267D01*
X19518029Y-9866790D01*
X19727552Y-9981076D02*
X19708505Y-9971552D01*
X19698981Y-9962029D01*
X19689457Y-9942981D01*
X19689457Y-9885838D01*
X19698981Y-9866790D01*
X19708505Y-9857267D01*
X19727552Y-9847743D01*
X19756124Y-9847743D01*
X19775171Y-9857267D01*
X19784695Y-9866790D01*
X19794219Y-9885838D01*
X19794219Y-9942981D01*
X19784695Y-9962029D01*
X19775171Y-9971552D01*
X19756124Y-9981076D01*
X19727552Y-9981076D01*
X19908505Y-9981076D02*
X19889457Y-9971552D01*
X19879933Y-9952505D01*
X19879933Y-9781076D01*
X20060886Y-9971552D02*
X20041838Y-9981076D01*
X20003743Y-9981076D01*
X19984695Y-9971552D01*
X19975171Y-9952505D01*
X19975171Y-9876314D01*
X19984695Y-9857267D01*
X20003743Y-9847743D01*
X20041838Y-9847743D01*
X20060886Y-9857267D01*
X20070410Y-9876314D01*
X20070410Y-9895362D01*
X19975171Y-9914410D01*
X20146600Y-9971552D02*
X20165648Y-9981076D01*
X20203743Y-9981076D01*
X20222790Y-9971552D01*
X20232314Y-9952505D01*
X20232314Y-9942981D01*
X20222790Y-9923933D01*
X20203743Y-9914410D01*
X20175171Y-9914410D01*
X20156124Y-9904886D01*
X20146600Y-9885838D01*
X20146600Y-9876314D01*
X20156124Y-9857267D01*
X20175171Y-9847743D01*
X20203743Y-9847743D01*
X20222790Y-9857267D01*
X20298981Y-10057267D02*
X20308505Y-10047743D01*
X20327552Y-10019171D01*
X20337076Y-10000124D01*
X20346600Y-9971552D01*
X20356124Y-9923933D01*
X20356124Y-9885838D01*
X20346600Y-9838219D01*
X20337076Y-9809648D01*
X20327552Y-9790600D01*
X20308505Y-9762029D01*
X20298981Y-9752505D01*
D10*
X15336600Y-10154600D02*
G75*
G03*
X15336600Y-10154600I-50000J0D01*
G01*
D11*
X15698981Y-10245076D02*
X15584695Y-10245076D01*
X15641838Y-10245076D02*
X15641838Y-10045076D01*
X15622790Y-10073648D01*
X15603743Y-10092695D01*
X15584695Y-10102219D01*
X15784695Y-10226029D02*
X15794219Y-10235552D01*
X15784695Y-10245076D01*
X15775171Y-10235552D01*
X15784695Y-10226029D01*
X15784695Y-10245076D01*
X15918028Y-10045076D02*
X15937076Y-10045076D01*
X15956124Y-10054600D01*
X15965648Y-10064124D01*
X15975171Y-10083171D01*
X15984695Y-10121267D01*
X15984695Y-10168886D01*
X15975171Y-10206981D01*
X15965648Y-10226029D01*
X15956124Y-10235552D01*
X15937076Y-10245076D01*
X15918028Y-10245076D01*
X15898981Y-10235552D01*
X15889457Y-10226029D01*
X15879933Y-10206981D01*
X15870409Y-10168886D01*
X15870409Y-10121267D01*
X15879933Y-10083171D01*
X15889457Y-10064124D01*
X15898981Y-10054600D01*
X15918028Y-10045076D01*
X16108505Y-10045076D02*
X16127552Y-10045076D01*
X16146600Y-10054600D01*
X16156124Y-10064124D01*
X16165648Y-10083171D01*
X16175171Y-10121267D01*
X16175171Y-10168886D01*
X16165648Y-10206981D01*
X16156124Y-10226029D01*
X16146600Y-10235552D01*
X16127552Y-10245076D01*
X16108505Y-10245076D01*
X16089457Y-10235552D01*
X16079933Y-10226029D01*
X16070409Y-10206981D01*
X16060886Y-10168886D01*
X16060886Y-10121267D01*
X16070409Y-10083171D01*
X16079933Y-10064124D01*
X16089457Y-10054600D01*
X16108505Y-10045076D01*
X16298981Y-10045076D02*
X16318028Y-10045076D01*
X16337076Y-10054600D01*
X16346600Y-10064124D01*
X16356124Y-10083171D01*
X16365648Y-10121267D01*
X16365648Y-10168886D01*
X16356124Y-10206981D01*
X16346600Y-10226029D01*
X16337076Y-10235552D01*
X16318028Y-10245076D01*
X16298981Y-10245076D01*
X16279933Y-10235552D01*
X16270409Y-10226029D01*
X16260886Y-10206981D01*
X16251362Y-10168886D01*
X16251362Y-10121267D01*
X16260886Y-10083171D01*
X16270409Y-10064124D01*
X16279933Y-10054600D01*
X16298981Y-10045076D01*
X16451362Y-10245076D02*
X16451362Y-10111743D01*
X16451362Y-10130790D02*
X16460886Y-10121267D01*
X16479933Y-10111743D01*
X16508505Y-10111743D01*
X16527552Y-10121267D01*
X16537076Y-10140314D01*
X16537076Y-10245076D01*
X16537076Y-10140314D02*
X16546600Y-10121267D01*
X16565648Y-10111743D01*
X16594219Y-10111743D01*
X16613267Y-10121267D01*
X16622790Y-10140314D01*
X16622790Y-10245076D01*
X16718028Y-10245076D02*
X16718028Y-10111743D01*
X16718028Y-10130790D02*
X16727552Y-10121267D01*
X16746600Y-10111743D01*
X16775171Y-10111743D01*
X16794219Y-10121267D01*
X16803743Y-10140314D01*
X16803743Y-10245076D01*
X16803743Y-10140314D02*
X16813267Y-10121267D01*
X16832314Y-10111743D01*
X16860886Y-10111743D01*
X16879933Y-10121267D01*
X16889457Y-10140314D01*
X16889457Y-10245076D01*
X17279933Y-10035552D02*
X17108505Y-10292695D01*
X17537076Y-10045076D02*
X17556124Y-10045076D01*
X17575171Y-10054600D01*
X17584695Y-10064124D01*
X17594219Y-10083171D01*
X17603743Y-10121267D01*
X17603743Y-10168886D01*
X17594219Y-10206981D01*
X17584695Y-10226029D01*
X17575171Y-10235552D01*
X17556124Y-10245076D01*
X17537076Y-10245076D01*
X17518029Y-10235552D01*
X17508505Y-10226029D01*
X17498981Y-10206981D01*
X17489457Y-10168886D01*
X17489457Y-10121267D01*
X17498981Y-10083171D01*
X17508505Y-10064124D01*
X17518029Y-10054600D01*
X17537076Y-10045076D01*
X17689457Y-10226029D02*
X17698981Y-10235552D01*
X17689457Y-10245076D01*
X17679933Y-10235552D01*
X17689457Y-10226029D01*
X17689457Y-10245076D01*
X17822790Y-10045076D02*
X17841838Y-10045076D01*
X17860886Y-10054600D01*
X17870410Y-10064124D01*
X17879933Y-10083171D01*
X17889457Y-10121267D01*
X17889457Y-10168886D01*
X17879933Y-10206981D01*
X17870410Y-10226029D01*
X17860886Y-10235552D01*
X17841838Y-10245076D01*
X17822790Y-10245076D01*
X17803743Y-10235552D01*
X17794219Y-10226029D01*
X17784695Y-10206981D01*
X17775171Y-10168886D01*
X17775171Y-10121267D01*
X17784695Y-10083171D01*
X17794219Y-10064124D01*
X17803743Y-10054600D01*
X17822790Y-10045076D01*
X17956124Y-10045076D02*
X18079933Y-10045076D01*
X18013267Y-10121267D01*
X18041838Y-10121267D01*
X18060886Y-10130790D01*
X18070410Y-10140314D01*
X18079933Y-10159362D01*
X18079933Y-10206981D01*
X18070410Y-10226029D01*
X18060886Y-10235552D01*
X18041838Y-10245076D01*
X17984695Y-10245076D01*
X17965648Y-10235552D01*
X17956124Y-10226029D01*
X18175171Y-10245076D02*
X18213267Y-10245076D01*
X18232314Y-10235552D01*
X18241838Y-10226029D01*
X18260886Y-10197457D01*
X18270410Y-10159362D01*
X18270410Y-10083171D01*
X18260886Y-10064124D01*
X18251362Y-10054600D01*
X18232314Y-10045076D01*
X18194219Y-10045076D01*
X18175171Y-10054600D01*
X18165648Y-10064124D01*
X18156124Y-10083171D01*
X18156124Y-10130790D01*
X18165648Y-10149838D01*
X18175171Y-10159362D01*
X18194219Y-10168886D01*
X18232314Y-10168886D01*
X18251362Y-10159362D01*
X18260886Y-10149838D01*
X18270410Y-10130790D01*
X18441838Y-10111743D02*
X18441838Y-10245076D01*
X18394219Y-10035552D02*
X18346600Y-10178410D01*
X18470410Y-10178410D01*
X18537076Y-10045076D02*
X18537076Y-10083171D01*
X18613267Y-10045076D02*
X18613267Y-10083171D01*
X18908505Y-10321267D02*
X18898981Y-10311743D01*
X18879933Y-10283171D01*
X18870410Y-10264124D01*
X18860886Y-10235552D01*
X18851362Y-10187933D01*
X18851362Y-10149838D01*
X18860886Y-10102219D01*
X18870410Y-10073648D01*
X18879933Y-10054600D01*
X18898981Y-10026029D01*
X18908505Y-10016505D01*
X19089457Y-10245076D02*
X18975171Y-10245076D01*
X19032314Y-10245076D02*
X19032314Y-10045076D01*
X19013267Y-10073648D01*
X18994219Y-10092695D01*
X18975171Y-10102219D01*
X19213267Y-10045076D02*
X19232314Y-10045076D01*
X19251362Y-10054600D01*
X19260886Y-10064124D01*
X19270410Y-10083171D01*
X19279933Y-10121267D01*
X19279933Y-10168886D01*
X19270410Y-10206981D01*
X19260886Y-10226029D01*
X19251362Y-10235552D01*
X19232314Y-10245076D01*
X19213267Y-10245076D01*
X19194219Y-10235552D01*
X19184695Y-10226029D01*
X19175171Y-10206981D01*
X19165648Y-10168886D01*
X19165648Y-10121267D01*
X19175171Y-10083171D01*
X19184695Y-10064124D01*
X19194219Y-10054600D01*
X19213267Y-10045076D01*
X19518029Y-10245076D02*
X19518029Y-10045076D01*
X19603743Y-10245076D02*
X19603743Y-10140314D01*
X19594219Y-10121267D01*
X19575171Y-10111743D01*
X19546600Y-10111743D01*
X19527552Y-10121267D01*
X19518029Y-10130790D01*
X19727552Y-10245076D02*
X19708505Y-10235552D01*
X19698981Y-10226029D01*
X19689457Y-10206981D01*
X19689457Y-10149838D01*
X19698981Y-10130790D01*
X19708505Y-10121267D01*
X19727552Y-10111743D01*
X19756124Y-10111743D01*
X19775171Y-10121267D01*
X19784695Y-10130790D01*
X19794219Y-10149838D01*
X19794219Y-10206981D01*
X19784695Y-10226029D01*
X19775171Y-10235552D01*
X19756124Y-10245076D01*
X19727552Y-10245076D01*
X19908505Y-10245076D02*
X19889457Y-10235552D01*
X19879933Y-10216505D01*
X19879933Y-10045076D01*
X20060886Y-10235552D02*
X20041838Y-10245076D01*
X20003743Y-10245076D01*
X19984695Y-10235552D01*
X19975171Y-10216505D01*
X19975171Y-10140314D01*
X19984695Y-10121267D01*
X20003743Y-10111743D01*
X20041838Y-10111743D01*
X20060886Y-10121267D01*
X20070410Y-10140314D01*
X20070410Y-10159362D01*
X19975171Y-10178410D01*
X20146600Y-10235552D02*
X20165648Y-10245076D01*
X20203743Y-10245076D01*
X20222790Y-10235552D01*
X20232314Y-10216505D01*
X20232314Y-10206981D01*
X20222790Y-10187933D01*
X20203743Y-10178410D01*
X20175171Y-10178410D01*
X20156124Y-10168886D01*
X20146600Y-10149838D01*
X20146600Y-10140314D01*
X20156124Y-10121267D01*
X20175171Y-10111743D01*
X20203743Y-10111743D01*
X20222790Y-10121267D01*
X20298981Y-10321267D02*
X20308505Y-10311743D01*
X20327552Y-10283171D01*
X20337076Y-10264124D01*
X20346600Y-10235552D01*
X20356124Y-10187933D01*
X20356124Y-10149838D01*
X20346600Y-10102219D01*
X20337076Y-10073648D01*
X20327552Y-10054600D01*
X20308505Y-10026029D01*
X20298981Y-10016505D01*
M02*
