%TF.GenerationSoftware,KiCad,Pcbnew,(6.0.9)*%
%TF.CreationDate,2023-09-05T16:32:31-05:00*%
%TF.ProjectId,Pulse_Temp,50756c73-655f-4546-956d-702e6b696361,rev?*%
%TF.SameCoordinates,Original*%
%TF.FileFunction,Copper,L1,Top*%
%TF.FilePolarity,Positive*%
%FSLAX46Y46*%
G04 Gerber Fmt 4.6, Leading zero omitted, Abs format (unit mm)*
G04 Created by KiCad (PCBNEW (6.0.9)) date 2023-09-05 16:32:31*
%MOMM*%
%LPD*%
G01*
G04 APERTURE LIST*
%ADD10C,0.300000*%
%TA.AperFunction,NonConductor*%
%ADD11C,0.300000*%
%TD*%
%TA.AperFunction,NonConductor*%
%ADD12C,0.200000*%
%TD*%
%TA.AperFunction,SMDPad,CuDef*%
%ADD13R,0.762000X0.355600*%
%TD*%
%TA.AperFunction,SMDPad,CuDef*%
%ADD14R,0.762000X0.406400*%
%TD*%
%TA.AperFunction,SMDPad,CuDef*%
%ADD15R,1.600200X2.489200*%
%TD*%
%TA.AperFunction,ComponentPad*%
%ADD16R,1.700000X1.700000*%
%TD*%
%TA.AperFunction,ComponentPad*%
%ADD17O,1.700000X1.700000*%
%TD*%
%TA.AperFunction,ViaPad*%
%ADD18C,0.800000*%
%TD*%
%TA.AperFunction,Conductor*%
%ADD19C,0.250000*%
%TD*%
G04 APERTURE END LIST*
D10*
D11*
X147889428Y-88716571D02*
X147818000Y-88645142D01*
X147746571Y-88502285D01*
X147746571Y-88145142D01*
X147818000Y-88002285D01*
X147889428Y-87930857D01*
X148032285Y-87859428D01*
X148175142Y-87859428D01*
X148389428Y-87930857D01*
X149246571Y-88788000D01*
X149246571Y-87859428D01*
X149246571Y-86430857D02*
X149246571Y-87288000D01*
X149246571Y-86859428D02*
X147746571Y-86859428D01*
X147960857Y-87002285D01*
X148103714Y-87145142D01*
X148175142Y-87288000D01*
X149103714Y-85788000D02*
X149175142Y-85716571D01*
X149246571Y-85788000D01*
X149175142Y-85859428D01*
X149103714Y-85788000D01*
X149246571Y-85788000D01*
X147746571Y-85216571D02*
X147746571Y-84288000D01*
X148318000Y-84788000D01*
X148318000Y-84573714D01*
X148389428Y-84430857D01*
X148460857Y-84359428D01*
X148603714Y-84288000D01*
X148960857Y-84288000D01*
X149103714Y-84359428D01*
X149175142Y-84430857D01*
X149246571Y-84573714D01*
X149246571Y-85002285D01*
X149175142Y-85145142D01*
X149103714Y-85216571D01*
X147746571Y-83788000D02*
X147746571Y-82859428D01*
X148318000Y-83359428D01*
X148318000Y-83145142D01*
X148389428Y-83002285D01*
X148460857Y-82930857D01*
X148603714Y-82859428D01*
X148960857Y-82859428D01*
X149103714Y-82930857D01*
X149175142Y-83002285D01*
X149246571Y-83145142D01*
X149246571Y-83573714D01*
X149175142Y-83716571D01*
X149103714Y-83788000D01*
X147746571Y-81573714D02*
X147746571Y-81859428D01*
X147818000Y-82002285D01*
X147889428Y-82073714D01*
X148103714Y-82216571D01*
X148389428Y-82288000D01*
X148960857Y-82288000D01*
X149103714Y-82216571D01*
X149175142Y-82145142D01*
X149246571Y-82002285D01*
X149246571Y-81716571D01*
X149175142Y-81573714D01*
X149103714Y-81502285D01*
X148960857Y-81430857D01*
X148603714Y-81430857D01*
X148460857Y-81502285D01*
X148389428Y-81573714D01*
X148318000Y-81716571D01*
X148318000Y-82002285D01*
X148389428Y-82145142D01*
X148460857Y-82216571D01*
X148603714Y-82288000D01*
X147746571Y-80502285D02*
X147746571Y-80359428D01*
X147818000Y-80216571D01*
X147889428Y-80145142D01*
X148032285Y-80073714D01*
X148318000Y-80002285D01*
X148675142Y-80002285D01*
X148960857Y-80073714D01*
X149103714Y-80145142D01*
X149175142Y-80216571D01*
X149246571Y-80359428D01*
X149246571Y-80502285D01*
X149175142Y-80645142D01*
X149103714Y-80716571D01*
X148960857Y-80788000D01*
X148675142Y-80859428D01*
X148318000Y-80859428D01*
X148032285Y-80788000D01*
X147889428Y-80716571D01*
X147818000Y-80645142D01*
X147746571Y-80502285D01*
X149246571Y-78216571D02*
X148246571Y-78216571D01*
X148389428Y-78216571D02*
X148318000Y-78145142D01*
X148246571Y-78002285D01*
X148246571Y-77788000D01*
X148318000Y-77645142D01*
X148460857Y-77573714D01*
X149246571Y-77573714D01*
X148460857Y-77573714D02*
X148318000Y-77502285D01*
X148246571Y-77359428D01*
X148246571Y-77145142D01*
X148318000Y-77002285D01*
X148460857Y-76930857D01*
X149246571Y-76930857D01*
X149246571Y-76216571D02*
X148246571Y-76216571D01*
X148389428Y-76216571D02*
X148318000Y-76145142D01*
X148246571Y-76002285D01*
X148246571Y-75788000D01*
X148318000Y-75645142D01*
X148460857Y-75573714D01*
X149246571Y-75573714D01*
X148460857Y-75573714D02*
X148318000Y-75502285D01*
X148246571Y-75359428D01*
X148246571Y-75145142D01*
X148318000Y-75002285D01*
X148460857Y-74930857D01*
X149246571Y-74930857D01*
D12*
X150868000Y-71120000D02*
X150954420Y-71120000D01*
X150868000Y-92456000D02*
X150954420Y-92456000D01*
X150368000Y-71120000D02*
X150368000Y-92456000D01*
X150368000Y-71120000D02*
X150368000Y-92456000D01*
X150368000Y-71120000D02*
X149781579Y-72246504D01*
X150368000Y-71120000D02*
X150954421Y-72246504D01*
X150368000Y-92456000D02*
X150954421Y-91329496D01*
X150368000Y-92456000D02*
X149781579Y-91329496D01*
D10*
D11*
X160965428Y-65593428D02*
X161036857Y-65522000D01*
X161179714Y-65450571D01*
X161536857Y-65450571D01*
X161679714Y-65522000D01*
X161751142Y-65593428D01*
X161822571Y-65736285D01*
X161822571Y-65879142D01*
X161751142Y-66093428D01*
X160894000Y-66950571D01*
X161822571Y-66950571D01*
X162679714Y-66093428D02*
X162536857Y-66022000D01*
X162465428Y-65950571D01*
X162394000Y-65807714D01*
X162394000Y-65736285D01*
X162465428Y-65593428D01*
X162536857Y-65522000D01*
X162679714Y-65450571D01*
X162965428Y-65450571D01*
X163108285Y-65522000D01*
X163179714Y-65593428D01*
X163251142Y-65736285D01*
X163251142Y-65807714D01*
X163179714Y-65950571D01*
X163108285Y-66022000D01*
X162965428Y-66093428D01*
X162679714Y-66093428D01*
X162536857Y-66164857D01*
X162465428Y-66236285D01*
X162394000Y-66379142D01*
X162394000Y-66664857D01*
X162465428Y-66807714D01*
X162536857Y-66879142D01*
X162679714Y-66950571D01*
X162965428Y-66950571D01*
X163108285Y-66879142D01*
X163179714Y-66807714D01*
X163251142Y-66664857D01*
X163251142Y-66379142D01*
X163179714Y-66236285D01*
X163108285Y-66164857D01*
X162965428Y-66093428D01*
X163894000Y-66807714D02*
X163965428Y-66879142D01*
X163894000Y-66950571D01*
X163822571Y-66879142D01*
X163894000Y-66807714D01*
X163894000Y-66950571D01*
X164679714Y-66950571D02*
X164965428Y-66950571D01*
X165108285Y-66879142D01*
X165179714Y-66807714D01*
X165322571Y-66593428D01*
X165394000Y-66307714D01*
X165394000Y-65736285D01*
X165322571Y-65593428D01*
X165251142Y-65522000D01*
X165108285Y-65450571D01*
X164822571Y-65450571D01*
X164679714Y-65522000D01*
X164608285Y-65593428D01*
X164536857Y-65736285D01*
X164536857Y-66093428D01*
X164608285Y-66236285D01*
X164679714Y-66307714D01*
X164822571Y-66379142D01*
X165108285Y-66379142D01*
X165251142Y-66307714D01*
X165322571Y-66236285D01*
X165394000Y-66093428D01*
X166751142Y-65450571D02*
X166036857Y-65450571D01*
X165965428Y-66164857D01*
X166036857Y-66093428D01*
X166179714Y-66022000D01*
X166536857Y-66022000D01*
X166679714Y-66093428D01*
X166751142Y-66164857D01*
X166822571Y-66307714D01*
X166822571Y-66664857D01*
X166751142Y-66807714D01*
X166679714Y-66879142D01*
X166536857Y-66950571D01*
X166179714Y-66950571D01*
X166036857Y-66879142D01*
X165965428Y-66807714D01*
X168108285Y-65450571D02*
X167822571Y-65450571D01*
X167679714Y-65522000D01*
X167608285Y-65593428D01*
X167465428Y-65807714D01*
X167394000Y-66093428D01*
X167394000Y-66664857D01*
X167465428Y-66807714D01*
X167536857Y-66879142D01*
X167679714Y-66950571D01*
X167965428Y-66950571D01*
X168108285Y-66879142D01*
X168179714Y-66807714D01*
X168251142Y-66664857D01*
X168251142Y-66307714D01*
X168179714Y-66164857D01*
X168108285Y-66093428D01*
X167965428Y-66022000D01*
X167679714Y-66022000D01*
X167536857Y-66093428D01*
X167465428Y-66164857D01*
X167394000Y-66307714D01*
X169179714Y-65450571D02*
X169322571Y-65450571D01*
X169465428Y-65522000D01*
X169536857Y-65593428D01*
X169608285Y-65736285D01*
X169679714Y-66022000D01*
X169679714Y-66379142D01*
X169608285Y-66664857D01*
X169536857Y-66807714D01*
X169465428Y-66879142D01*
X169322571Y-66950571D01*
X169179714Y-66950571D01*
X169036857Y-66879142D01*
X168965428Y-66807714D01*
X168894000Y-66664857D01*
X168822571Y-66379142D01*
X168822571Y-66022000D01*
X168894000Y-65736285D01*
X168965428Y-65593428D01*
X169036857Y-65522000D01*
X169179714Y-65450571D01*
X171465428Y-66950571D02*
X171465428Y-65950571D01*
X171465428Y-66093428D02*
X171536857Y-66022000D01*
X171679714Y-65950571D01*
X171894000Y-65950571D01*
X172036857Y-66022000D01*
X172108285Y-66164857D01*
X172108285Y-66950571D01*
X172108285Y-66164857D02*
X172179714Y-66022000D01*
X172322571Y-65950571D01*
X172536857Y-65950571D01*
X172679714Y-66022000D01*
X172751142Y-66164857D01*
X172751142Y-66950571D01*
X173465428Y-66950571D02*
X173465428Y-65950571D01*
X173465428Y-66093428D02*
X173536857Y-66022000D01*
X173679714Y-65950571D01*
X173894000Y-65950571D01*
X174036857Y-66022000D01*
X174108285Y-66164857D01*
X174108285Y-66950571D01*
X174108285Y-66164857D02*
X174179714Y-66022000D01*
X174322571Y-65950571D01*
X174536857Y-65950571D01*
X174679714Y-66022000D01*
X174751142Y-66164857D01*
X174751142Y-66950571D01*
D12*
X153416000Y-67572000D02*
X153416000Y-67485580D01*
X182372000Y-67572000D02*
X182372000Y-67485580D01*
X153416000Y-68072000D02*
X182372000Y-68072000D01*
X153416000Y-68072000D02*
X182372000Y-68072000D01*
X153416000Y-68072000D02*
X154542504Y-68658421D01*
X153416000Y-68072000D02*
X154542504Y-67485579D01*
X182372000Y-68072000D02*
X181245496Y-67485579D01*
X182372000Y-68072000D02*
X181245496Y-68658421D01*
D13*
%TO.P,PO,1,N.C.*%
%TO.N,unconnected-(U2-Pad1)*%
X161569400Y-75679600D03*
%TO.P,PO,2,SCL*%
%TO.N,/PO_SCL*%
X161569400Y-76479601D03*
%TO.P,PO,3,SDA*%
%TO.N,/PO_SDA*%
X161569400Y-77279599D03*
%TO.P,PO,4,PGND*%
%TO.N,0*%
X161569400Y-78079600D03*
%TO.P,PO,5,N.C.*%
%TO.N,unconnected-(U2-Pad5)*%
X161569400Y-78879598D03*
%TO.P,PO,6,N.C.*%
%TO.N,unconnected-(U2-Pad6)*%
X161569400Y-79679599D03*
%TO.P,PO,7,N.C.*%
%TO.N,unconnected-(U2-Pad7)*%
X161569400Y-80479600D03*
%TO.P,PO,8,N.C.*%
%TO.N,unconnected-(U2-Pad8)*%
X163957000Y-80479600D03*
%TO.P,PO,9,VLED+*%
%TO.N,/5V*%
X163957000Y-79679599D03*
%TO.P,PO,10,VLED+*%
X163957000Y-78879601D03*
%TO.P,PO,11,VDD*%
%TO.N,/1.8V*%
X163957000Y-78079600D03*
%TO.P,PO,12,GND*%
%TO.N,0*%
X163957000Y-77279602D03*
%TO.P,PO,13,\u002AINT*%
%TO.N,/PO_INT*%
X163957000Y-76479601D03*
%TO.P,PO,14,N.C.*%
%TO.N,unconnected-(U2-Pad14)*%
X163957000Y-75679600D03*
%TD*%
D14*
%TO.P,THD1,1,SDA*%
%TO.N,/THD_SDA*%
X176682400Y-79730600D03*
%TO.P,THD1,2,GND*%
%TO.N,0*%
X176682400Y-78740000D03*
%TO.P,THD1,3,DNC*%
%TO.N,unconnected-(THD1-Pad3)*%
X176682400Y-77749400D03*
%TO.P,THD1,4,DNC*%
%TO.N,unconnected-(THD1-Pad4)*%
X173837600Y-77749400D03*
%TO.P,THD1,5,VDD*%
%TO.N,/3V*%
X173837600Y-78740000D03*
%TO.P,THD1,6,SCL*%
%TO.N,/THD_SCL*%
X173837600Y-79730600D03*
D15*
%TO.P,THD1,7,EPAD*%
%TO.N,0*%
X175260000Y-78740000D03*
%TD*%
D16*
%TO.P,3V,1,1*%
%TO.N,/3V*%
X180289200Y-84175600D03*
%TD*%
%TO.P,5V,1,1*%
%TO.N,/5V*%
X180289200Y-78994000D03*
%TD*%
%TO.P,1.8V,1,1*%
%TO.N,/1.8V*%
X180086000Y-73660000D03*
%TD*%
%TO.P,J1,1,Pin_1*%
%TO.N,/PO_INT*%
X155956000Y-73147000D03*
D17*
%TO.P,J1,2,Pin_2*%
%TO.N,/PO_SDA*%
X155956000Y-75687000D03*
%TO.P,J1,3,Pin_3*%
%TO.N,/PO_SCL*%
X155956000Y-78227000D03*
%TO.P,J1,4,Pin_4*%
%TO.N,/3V*%
X155956000Y-80767000D03*
%TO.P,J1,5,Pin_5*%
%TO.N,0*%
X155956000Y-83307000D03*
%TO.P,J1,6,Pin_6*%
%TO.N,/THD_SDA*%
X155956000Y-85847000D03*
%TO.P,J1,7,Pin_7*%
%TO.N,/THD_SCL*%
X155956000Y-88387000D03*
%TD*%
D18*
%TO.N,/3V*%
X174244000Y-81788000D03*
%TO.N,0*%
X170180000Y-77470000D03*
X172466000Y-84836000D03*
X177038000Y-75946000D03*
X169672000Y-81788000D03*
X158959700Y-84016700D03*
%TO.N,/5V*%
X175361600Y-90932000D03*
%TO.N,/1.8V*%
X163322000Y-73914000D03*
X172364400Y-74828400D03*
X168656000Y-78740000D03*
X168402000Y-81788000D03*
X168402000Y-87122000D03*
%TO.N,/PO_SDA*%
X158860166Y-78948076D03*
%TO.N,/PO_SCL*%
X160020000Y-73951500D03*
%TO.N,/THD_SDA*%
X177292000Y-81026000D03*
X158881299Y-87507299D03*
X176026299Y-86355701D03*
%TO.N,/THD_SCL*%
X172466000Y-79756000D03*
X167894000Y-84074000D03*
%TO.N,Net-(100k_R1-Pad1)*%
X167640000Y-89814400D03*
X171246800Y-90728800D03*
%TO.N,/PO_INT*%
X160477200Y-71221600D03*
X167081200Y-73914000D03*
%TD*%
D19*
%TO.N,/3V*%
X171450000Y-79248000D02*
X171450000Y-80010000D01*
X171958000Y-78740000D02*
X171450000Y-79248000D01*
X173837600Y-78740000D02*
X171958000Y-78740000D01*
X171450000Y-80010000D02*
X173228000Y-81788000D01*
X173228000Y-81788000D02*
X174244000Y-81788000D01*
%TO.N,0*%
X162102800Y-81940400D02*
X165862000Y-81940400D01*
X160229700Y-84016700D02*
X161645600Y-82600800D01*
X177800000Y-76962000D02*
X177800000Y-78486000D01*
X171945000Y-84836000D02*
X172466000Y-84836000D01*
X177800000Y-78486000D02*
X177546000Y-78740000D01*
X165862000Y-81940400D02*
X166878000Y-80924400D01*
X164985602Y-77279602D02*
X165646000Y-77940000D01*
X165646000Y-77940000D02*
X169710000Y-77940000D01*
X163957000Y-77279602D02*
X164985602Y-77279602D01*
X177546000Y-78740000D02*
X176682400Y-78740000D01*
X161569400Y-78079600D02*
X160629600Y-78079600D01*
X169710000Y-77940000D02*
X170180000Y-77470000D01*
X169672000Y-81788000D02*
X169672000Y-82563000D01*
X160629600Y-78079600D02*
X160020000Y-78689200D01*
X169672000Y-82563000D02*
X171945000Y-84836000D01*
X175260000Y-78740000D02*
X176682400Y-78740000D01*
X160020000Y-78689200D02*
X160020000Y-82956400D01*
X161645600Y-82600800D02*
X161645600Y-82397600D01*
X158959700Y-84016700D02*
X160229700Y-84016700D01*
X160020000Y-82956400D02*
X158959700Y-84016700D01*
X168808400Y-80924400D02*
X169672000Y-81788000D01*
X177038000Y-75946000D02*
X177038000Y-76200000D01*
X177038000Y-76200000D02*
X177800000Y-76962000D01*
X166878000Y-80924400D02*
X168808400Y-80924400D01*
X161645600Y-82397600D02*
X162102800Y-81940400D01*
%TO.N,/5V*%
X165252400Y-79248000D02*
X165252400Y-79502000D01*
X179273200Y-81737200D02*
X178257200Y-81737200D01*
X176987200Y-88950800D02*
X176428400Y-88950800D01*
X170891200Y-80518000D02*
X170891200Y-80365600D01*
X175463200Y-89916000D02*
X175361600Y-90017600D01*
X177481400Y-82513000D02*
X172886200Y-82513000D01*
X180289200Y-78994000D02*
X180289200Y-80721200D01*
X164884001Y-78879601D02*
X165252400Y-79248000D01*
X165074801Y-79679599D02*
X163957000Y-79679599D01*
X170891200Y-80365600D02*
X170027600Y-79502000D01*
X177952400Y-87020400D02*
X177952400Y-88544400D01*
X177546000Y-88950800D02*
X176987200Y-88950800D01*
X165252400Y-79502000D02*
X165074801Y-79679599D01*
X179730400Y-81280000D02*
X179273200Y-81737200D01*
X172886200Y-82513000D02*
X170891200Y-80518000D01*
X180289200Y-80721200D02*
X179730400Y-81280000D01*
X177495200Y-86563200D02*
X177952400Y-87020400D01*
X177952400Y-88544400D02*
X177546000Y-88950800D01*
X177495200Y-83515200D02*
X177495200Y-86563200D01*
X176428400Y-88950800D02*
X175463200Y-89916000D01*
X178257200Y-81737200D02*
X177495200Y-82499200D01*
X177495200Y-82499200D02*
X177495200Y-83515200D01*
X163957000Y-78879601D02*
X164884001Y-78879601D01*
X170027600Y-79502000D02*
X165252400Y-79502000D01*
X175361600Y-90017600D02*
X175361600Y-90932000D01*
X177495200Y-82499200D02*
X177481400Y-82513000D01*
%TO.N,/1.8V*%
X172364400Y-76555600D02*
X172364400Y-74828400D01*
X168402000Y-87122000D02*
X168402000Y-86106000D01*
X164795200Y-73914000D02*
X165709600Y-72999600D01*
X171500800Y-77419200D02*
X172364400Y-76555600D01*
X168249600Y-72999600D02*
X170078400Y-74828400D01*
X163322000Y-73914000D02*
X164795200Y-73914000D01*
X168910000Y-85598000D02*
X168910000Y-82296000D01*
X168910000Y-82296000D02*
X168402000Y-81788000D01*
X163957000Y-78079600D02*
X165149204Y-78079600D01*
X168656000Y-78740000D02*
X170180000Y-78740000D01*
X168402000Y-86106000D02*
X168910000Y-85598000D01*
X165149204Y-78079600D02*
X165809604Y-78740000D01*
X170078400Y-74828400D02*
X172364400Y-74828400D01*
X170180000Y-78740000D02*
X171500800Y-77419200D01*
X165809604Y-78740000D02*
X168656000Y-78740000D01*
X165709600Y-72999600D02*
X168249600Y-72999600D01*
%TO.N,/PO_SDA*%
X160528643Y-77279599D02*
X158860166Y-78948076D01*
X161569400Y-77279599D02*
X160528643Y-77279599D01*
%TO.N,/PO_SCL*%
X160211000Y-76771000D02*
X160502399Y-76479601D01*
X159207200Y-76200000D02*
X159486801Y-76479601D01*
X159486801Y-76479601D02*
X160502399Y-76479601D01*
X159207200Y-74764300D02*
X159207200Y-76200000D01*
X158745000Y-78227000D02*
X155956000Y-78227000D01*
X158750000Y-78232000D02*
X158745000Y-78227000D01*
X160502399Y-76479601D02*
X161569400Y-76479601D01*
X160211000Y-76771000D02*
X158750000Y-78232000D01*
X160020000Y-73951500D02*
X159207200Y-74764300D01*
%TO.N,/THD_SDA*%
X165862000Y-86868000D02*
X167386000Y-88392000D01*
X159520598Y-86868000D02*
X165862000Y-86868000D01*
X170180000Y-88392000D02*
X167386000Y-88392000D01*
X177266600Y-79730600D02*
X177546000Y-80010000D01*
X177546000Y-80010000D02*
X177546000Y-80772000D01*
X172216299Y-86355701D02*
X176026299Y-86355701D01*
X170180000Y-88392000D02*
X172216299Y-86355701D01*
X159520598Y-86868000D02*
X158881299Y-87507299D01*
X176682400Y-79730600D02*
X177266600Y-79730600D01*
X177546000Y-80772000D02*
X177292000Y-81026000D01*
%TO.N,/THD_SCL*%
X159004000Y-86360000D02*
X156977000Y-88387000D01*
X173837600Y-79730600D02*
X172491400Y-79730600D01*
X167894000Y-84074000D02*
X167894000Y-85344000D01*
X167894000Y-85344000D02*
X166878000Y-86360000D01*
X156977000Y-88387000D02*
X155956000Y-88387000D01*
X166878000Y-86360000D02*
X159004000Y-86360000D01*
X172491400Y-79730600D02*
X172466000Y-79756000D01*
%TO.N,Net-(100k_R1-Pad1)*%
X171246800Y-90728800D02*
X170332400Y-89814400D01*
X170332400Y-89814400D02*
X167640000Y-89814400D01*
%TO.N,/PO_INT*%
X160477200Y-71221600D02*
X157881400Y-71221600D01*
X167081200Y-75234800D02*
X167081200Y-73914000D01*
X163957000Y-76479601D02*
X165836399Y-76479601D01*
X157881400Y-71221600D02*
X155956000Y-73147000D01*
X165836399Y-76479601D02*
X167081200Y-75234800D01*
%TD*%
%TA.AperFunction,Conductor*%
%TO.N,0*%
G36*
X156850526Y-71140502D02*
G01*
X156897019Y-71194158D01*
X156907123Y-71264432D01*
X156877629Y-71329012D01*
X156871500Y-71335596D01*
X156455499Y-71751596D01*
X156393187Y-71785621D01*
X156366404Y-71788500D01*
X155057866Y-71788500D01*
X154995684Y-71795255D01*
X154859295Y-71846385D01*
X154742739Y-71933739D01*
X154655385Y-72050295D01*
X154604255Y-72186684D01*
X154597500Y-72248866D01*
X154597500Y-74045134D01*
X154604255Y-74107316D01*
X154655385Y-74243705D01*
X154742739Y-74360261D01*
X154859295Y-74447615D01*
X154867704Y-74450767D01*
X154867705Y-74450768D01*
X154976451Y-74491535D01*
X155033216Y-74534176D01*
X155057916Y-74600738D01*
X155042709Y-74670087D01*
X155023316Y-74696568D01*
X154904284Y-74821128D01*
X154896629Y-74829138D01*
X154770743Y-75013680D01*
X154755003Y-75047590D01*
X154684726Y-75198989D01*
X154676688Y-75216305D01*
X154616989Y-75431570D01*
X154593251Y-75653695D01*
X154593548Y-75658848D01*
X154593548Y-75658851D01*
X154603573Y-75832722D01*
X154606110Y-75876715D01*
X154607247Y-75881761D01*
X154607248Y-75881767D01*
X154613370Y-75908931D01*
X154655222Y-76094639D01*
X154739266Y-76301616D01*
X154778825Y-76366170D01*
X154848312Y-76479563D01*
X154855987Y-76492088D01*
X155002250Y-76660938D01*
X155174126Y-76803632D01*
X155244595Y-76844811D01*
X155247445Y-76846476D01*
X155296169Y-76898114D01*
X155309240Y-76967897D01*
X155282509Y-77033669D01*
X155242055Y-77067027D01*
X155229607Y-77073507D01*
X155225474Y-77076610D01*
X155225471Y-77076612D01*
X155055100Y-77204530D01*
X155050965Y-77207635D01*
X154896629Y-77369138D01*
X154893715Y-77373410D01*
X154893714Y-77373411D01*
X154856145Y-77428485D01*
X154770743Y-77553680D01*
X154676688Y-77756305D01*
X154616989Y-77971570D01*
X154593251Y-78193695D01*
X154593548Y-78198848D01*
X154593548Y-78198851D01*
X154598751Y-78289086D01*
X154606110Y-78416715D01*
X154607247Y-78421761D01*
X154607248Y-78421767D01*
X154621569Y-78485310D01*
X154655222Y-78634639D01*
X154739266Y-78841616D01*
X154741965Y-78846020D01*
X154819980Y-78973329D01*
X154855987Y-79032088D01*
X155002250Y-79200938D01*
X155174126Y-79343632D01*
X155243353Y-79384085D01*
X155247445Y-79386476D01*
X155296169Y-79438114D01*
X155309240Y-79507897D01*
X155282509Y-79573669D01*
X155242055Y-79607027D01*
X155229607Y-79613507D01*
X155225474Y-79616610D01*
X155225471Y-79616612D01*
X155067376Y-79735313D01*
X155050965Y-79747635D01*
X154896629Y-79909138D01*
X154893715Y-79913410D01*
X154893714Y-79913411D01*
X154833273Y-80002014D01*
X154770743Y-80093680D01*
X154756748Y-80123830D01*
X154679973Y-80289229D01*
X154676688Y-80296305D01*
X154616989Y-80511570D01*
X154593251Y-80733695D01*
X154593548Y-80738848D01*
X154593548Y-80738851D01*
X154605812Y-80951547D01*
X154606110Y-80956715D01*
X154607247Y-80961761D01*
X154607248Y-80961767D01*
X154620245Y-81019435D01*
X154655222Y-81174639D01*
X154739266Y-81381616D01*
X154741965Y-81386020D01*
X154850384Y-81562944D01*
X154855987Y-81572088D01*
X155002250Y-81740938D01*
X155105826Y-81826928D01*
X155164064Y-81875278D01*
X155174126Y-81883632D01*
X155210072Y-81904637D01*
X155247955Y-81926774D01*
X155296679Y-81978412D01*
X155309750Y-82048195D01*
X155283019Y-82113967D01*
X155242562Y-82147327D01*
X155234457Y-82151546D01*
X155225738Y-82157036D01*
X155055433Y-82284905D01*
X155047726Y-82291748D01*
X154900590Y-82445717D01*
X154894104Y-82453727D01*
X154774098Y-82629649D01*
X154769000Y-82638623D01*
X154679338Y-82831783D01*
X154675775Y-82841470D01*
X154620389Y-83041183D01*
X154621912Y-83049607D01*
X154634292Y-83053000D01*
X157274344Y-83053000D01*
X157287875Y-83049027D01*
X157289180Y-83039947D01*
X157247214Y-82872875D01*
X157243894Y-82863124D01*
X157158972Y-82667814D01*
X157154105Y-82658739D01*
X157038426Y-82479926D01*
X157032136Y-82471757D01*
X156888806Y-82314240D01*
X156881273Y-82307215D01*
X156714139Y-82175222D01*
X156705556Y-82169520D01*
X156668602Y-82149120D01*
X156618631Y-82098687D01*
X156603859Y-82029245D01*
X156628975Y-81962839D01*
X156656327Y-81936232D01*
X156720703Y-81890313D01*
X156835860Y-81808173D01*
X156994096Y-81650489D01*
X157036273Y-81591794D01*
X157121435Y-81473277D01*
X157124453Y-81469077D01*
X157147360Y-81422729D01*
X157221136Y-81273453D01*
X157221137Y-81273451D01*
X157223430Y-81268811D01*
X157261420Y-81143772D01*
X157286865Y-81060023D01*
X157286865Y-81060021D01*
X157288370Y-81055069D01*
X157317529Y-80833590D01*
X157318409Y-80797563D01*
X157319074Y-80770365D01*
X157319074Y-80770361D01*
X157319156Y-80767000D01*
X157300852Y-80544361D01*
X157246431Y-80327702D01*
X157157354Y-80122840D01*
X157100767Y-80035370D01*
X157038822Y-79939617D01*
X157038820Y-79939614D01*
X157036014Y-79935277D01*
X156885670Y-79770051D01*
X156881619Y-79766852D01*
X156881615Y-79766848D01*
X156714414Y-79634800D01*
X156714410Y-79634798D01*
X156710359Y-79631598D01*
X156669053Y-79608796D01*
X156619084Y-79558364D01*
X156604312Y-79488921D01*
X156629428Y-79422516D01*
X156656780Y-79395909D01*
X156700603Y-79364650D01*
X156835860Y-79268173D01*
X156852049Y-79252041D01*
X156966485Y-79138004D01*
X156994096Y-79110489D01*
X157053594Y-79027689D01*
X157121435Y-78933277D01*
X157124453Y-78929077D01*
X157126746Y-78924437D01*
X157128446Y-78921608D01*
X157180674Y-78873518D01*
X157236451Y-78860500D01*
X157824006Y-78860500D01*
X157892127Y-78880502D01*
X157938620Y-78934158D01*
X157949316Y-78973329D01*
X157965720Y-79129401D01*
X157966624Y-79138004D01*
X158025639Y-79319632D01*
X158028942Y-79325354D01*
X158028943Y-79325355D01*
X158036444Y-79338347D01*
X158121126Y-79485020D01*
X158125544Y-79489927D01*
X158125545Y-79489928D01*
X158215000Y-79589278D01*
X158248913Y-79626942D01*
X158259729Y-79634800D01*
X158391360Y-79730436D01*
X158403414Y-79739194D01*
X158409442Y-79741878D01*
X158409444Y-79741879D01*
X158571847Y-79814185D01*
X158577878Y-79816870D01*
X158671279Y-79836723D01*
X158758222Y-79855204D01*
X158758227Y-79855204D01*
X158764679Y-79856576D01*
X158955653Y-79856576D01*
X158962105Y-79855204D01*
X158962110Y-79855204D01*
X159049053Y-79836723D01*
X159142454Y-79816870D01*
X159148485Y-79814185D01*
X159310888Y-79741879D01*
X159310890Y-79741878D01*
X159316918Y-79739194D01*
X159328973Y-79730436D01*
X159460603Y-79634800D01*
X159471419Y-79626942D01*
X159505332Y-79589278D01*
X159594787Y-79489928D01*
X159594788Y-79489927D01*
X159599206Y-79485020D01*
X159683888Y-79338347D01*
X159691389Y-79325355D01*
X159691390Y-79325354D01*
X159694693Y-79319632D01*
X159753708Y-79138004D01*
X159755665Y-79119389D01*
X159771073Y-78972784D01*
X159798086Y-78907127D01*
X159807288Y-78896858D01*
X160466837Y-78237310D01*
X160529149Y-78203285D01*
X160599965Y-78208350D01*
X160656800Y-78250897D01*
X160681195Y-78312800D01*
X160686295Y-78359750D01*
X160689922Y-78375007D01*
X160712284Y-78434658D01*
X160717467Y-78505465D01*
X160712284Y-78523116D01*
X160686655Y-78591482D01*
X160685802Y-78599330D01*
X160685802Y-78599332D01*
X160681967Y-78634639D01*
X160679900Y-78653664D01*
X160679900Y-79105532D01*
X160686655Y-79167714D01*
X160694974Y-79189905D01*
X160712018Y-79235369D01*
X160717201Y-79306176D01*
X160712019Y-79323825D01*
X160686655Y-79391483D01*
X160679900Y-79453665D01*
X160679900Y-79905533D01*
X160686655Y-79967715D01*
X160712018Y-80035369D01*
X160717201Y-80106176D01*
X160712019Y-80123827D01*
X160686655Y-80191484D01*
X160679900Y-80253666D01*
X160679900Y-80705534D01*
X160686655Y-80767716D01*
X160737785Y-80904105D01*
X160825139Y-81020661D01*
X160941695Y-81108015D01*
X161078084Y-81159145D01*
X161140266Y-81165900D01*
X161998534Y-81165900D01*
X162060716Y-81159145D01*
X162197105Y-81108015D01*
X162313661Y-81020661D01*
X162401015Y-80904105D01*
X162452145Y-80767716D01*
X162458900Y-80705534D01*
X162458900Y-80253666D01*
X162452145Y-80191484D01*
X162426782Y-80123829D01*
X162421599Y-80053023D01*
X162426782Y-80035370D01*
X162452145Y-79967715D01*
X162458900Y-79905533D01*
X162458900Y-79453665D01*
X162452145Y-79391483D01*
X162426782Y-79323828D01*
X162421599Y-79253022D01*
X162426782Y-79235369D01*
X162443826Y-79189905D01*
X162452145Y-79167714D01*
X162458900Y-79105532D01*
X162458900Y-78653664D01*
X162456833Y-78634639D01*
X162452998Y-78599332D01*
X162452998Y-78599330D01*
X162452145Y-78591482D01*
X162426516Y-78523116D01*
X162421333Y-78452309D01*
X162426516Y-78434658D01*
X162448880Y-78375002D01*
X162452505Y-78359757D01*
X162458031Y-78308886D01*
X162458400Y-78302072D01*
X162458400Y-78275515D01*
X162453925Y-78260276D01*
X162452535Y-78259071D01*
X162444852Y-78257400D01*
X162236531Y-78257400D01*
X162192302Y-78249382D01*
X162068118Y-78202827D01*
X162068112Y-78202825D01*
X162063516Y-78201103D01*
X162063513Y-78201101D01*
X162060717Y-78200053D01*
X162060887Y-78199601D01*
X162003759Y-78166969D01*
X161970935Y-78104016D01*
X161977358Y-78033310D01*
X162020987Y-77977301D01*
X162060721Y-77959153D01*
X162060717Y-77959144D01*
X162060852Y-77959093D01*
X162068105Y-77956374D01*
X162068109Y-77956373D01*
X162192294Y-77909818D01*
X162236523Y-77901800D01*
X162440284Y-77901800D01*
X162455523Y-77897325D01*
X162456728Y-77895935D01*
X162458399Y-77888252D01*
X162458399Y-77857131D01*
X162458029Y-77850310D01*
X162452505Y-77799448D01*
X162448880Y-77784200D01*
X162426515Y-77724543D01*
X162421332Y-77653735D01*
X162426515Y-77636082D01*
X162426734Y-77635500D01*
X162452145Y-77567715D01*
X162458900Y-77505533D01*
X162458900Y-77053665D01*
X162458133Y-77046607D01*
X162452998Y-76999333D01*
X162452998Y-76999331D01*
X162452145Y-76991483D01*
X162441524Y-76963151D01*
X162426783Y-76923829D01*
X162421600Y-76853022D01*
X162426783Y-76835371D01*
X162449373Y-76775112D01*
X162449373Y-76775110D01*
X162452145Y-76767717D01*
X162452999Y-76759861D01*
X162458531Y-76708932D01*
X162458900Y-76705535D01*
X162458900Y-76253667D01*
X162452145Y-76191485D01*
X162426782Y-76123829D01*
X162421599Y-76053023D01*
X162426782Y-76035370D01*
X162447531Y-75980023D01*
X162452145Y-75967716D01*
X162458900Y-75905534D01*
X162458900Y-75453666D01*
X162452145Y-75391484D01*
X162401015Y-75255095D01*
X162313661Y-75138539D01*
X162197105Y-75051185D01*
X162060716Y-75000055D01*
X161998534Y-74993300D01*
X161140266Y-74993300D01*
X161078084Y-75000055D01*
X160941695Y-75051185D01*
X160825139Y-75138539D01*
X160737785Y-75255095D01*
X160686655Y-75391484D01*
X160679900Y-75453666D01*
X160679900Y-75718108D01*
X160659898Y-75786229D01*
X160606242Y-75832722D01*
X160557859Y-75844046D01*
X160497839Y-75845932D01*
X160494431Y-75846039D01*
X160490474Y-75846101D01*
X159966700Y-75846101D01*
X159898579Y-75826099D01*
X159852086Y-75772443D01*
X159840700Y-75720101D01*
X159840700Y-75078894D01*
X159860702Y-75010773D01*
X159877605Y-74989799D01*
X159970499Y-74896905D01*
X160032811Y-74862879D01*
X160059594Y-74860000D01*
X160115487Y-74860000D01*
X160121939Y-74858628D01*
X160121944Y-74858628D01*
X160208887Y-74840147D01*
X160302288Y-74820294D01*
X160374236Y-74788261D01*
X160470722Y-74745303D01*
X160470724Y-74745302D01*
X160476752Y-74742618D01*
X160631253Y-74630366D01*
X160640302Y-74620316D01*
X160754621Y-74493352D01*
X160754622Y-74493351D01*
X160759040Y-74488444D01*
X160854527Y-74323056D01*
X160913542Y-74141428D01*
X160917484Y-74103928D01*
X160932814Y-73958065D01*
X160933504Y-73951500D01*
X160923194Y-73853402D01*
X160914232Y-73768135D01*
X160914232Y-73768133D01*
X160913542Y-73761572D01*
X160854527Y-73579944D01*
X160759040Y-73414556D01*
X160730424Y-73382774D01*
X160635675Y-73277545D01*
X160635674Y-73277544D01*
X160631253Y-73272634D01*
X160476752Y-73160382D01*
X160470724Y-73157698D01*
X160470722Y-73157697D01*
X160308319Y-73085391D01*
X160308318Y-73085391D01*
X160302288Y-73082706D01*
X160208887Y-73062853D01*
X160121944Y-73044372D01*
X160121939Y-73044372D01*
X160115487Y-73043000D01*
X159924513Y-73043000D01*
X159918061Y-73044372D01*
X159918056Y-73044372D01*
X159831113Y-73062853D01*
X159737712Y-73082706D01*
X159731682Y-73085391D01*
X159731681Y-73085391D01*
X159569278Y-73157697D01*
X159569276Y-73157698D01*
X159563248Y-73160382D01*
X159408747Y-73272634D01*
X159404326Y-73277544D01*
X159404325Y-73277545D01*
X159309577Y-73382774D01*
X159280960Y-73414556D01*
X159185473Y-73579944D01*
X159126458Y-73761572D01*
X159125768Y-73768133D01*
X159125768Y-73768135D01*
X159109093Y-73926792D01*
X159082080Y-73992449D01*
X159072878Y-74002718D01*
X158814942Y-74260653D01*
X158806663Y-74268187D01*
X158800182Y-74272300D01*
X158776824Y-74297174D01*
X158753557Y-74321951D01*
X158750802Y-74324793D01*
X158731065Y-74344530D01*
X158728585Y-74347727D01*
X158720882Y-74356747D01*
X158690614Y-74388979D01*
X158686795Y-74395925D01*
X158686793Y-74395928D01*
X158680852Y-74406734D01*
X158670001Y-74423253D01*
X158657586Y-74439259D01*
X158654441Y-74446528D01*
X158654438Y-74446532D01*
X158640026Y-74479837D01*
X158634809Y-74490487D01*
X158613505Y-74529240D01*
X158611534Y-74536915D01*
X158611534Y-74536916D01*
X158608467Y-74548862D01*
X158602063Y-74567566D01*
X158594019Y-74586155D01*
X158592780Y-74593978D01*
X158592777Y-74593988D01*
X158587101Y-74629824D01*
X158584695Y-74641444D01*
X158573700Y-74684270D01*
X158573700Y-74704524D01*
X158572149Y-74724234D01*
X158568980Y-74744243D01*
X158569726Y-74752135D01*
X158573141Y-74788261D01*
X158573700Y-74800119D01*
X158573700Y-76121233D01*
X158573173Y-76132416D01*
X158571498Y-76139909D01*
X158571747Y-76147835D01*
X158571747Y-76147836D01*
X158573638Y-76207986D01*
X158573700Y-76211945D01*
X158573700Y-76239856D01*
X158574197Y-76243790D01*
X158574197Y-76243791D01*
X158574205Y-76243856D01*
X158575138Y-76255693D01*
X158576527Y-76299889D01*
X158579211Y-76309126D01*
X158582178Y-76319339D01*
X158586187Y-76338700D01*
X158588726Y-76358797D01*
X158591645Y-76366168D01*
X158591645Y-76366170D01*
X158605004Y-76399912D01*
X158608849Y-76411142D01*
X158621182Y-76453593D01*
X158625215Y-76460412D01*
X158625217Y-76460417D01*
X158631493Y-76471028D01*
X158640188Y-76488776D01*
X158647648Y-76507617D01*
X158652310Y-76514033D01*
X158652310Y-76514034D01*
X158673636Y-76543387D01*
X158680152Y-76553307D01*
X158690314Y-76570489D01*
X158702658Y-76591362D01*
X158716979Y-76605683D01*
X158729819Y-76620716D01*
X158741728Y-76637107D01*
X158765812Y-76657031D01*
X158775805Y-76665298D01*
X158784584Y-76673288D01*
X158983144Y-76871848D01*
X158990688Y-76880138D01*
X158994801Y-76886619D01*
X159000579Y-76892045D01*
X159000580Y-76892046D01*
X159005575Y-76896737D01*
X159041539Y-76957950D01*
X159038700Y-77028890D01*
X159008415Y-77077680D01*
X158529500Y-77556595D01*
X158467188Y-77590621D01*
X158440405Y-77593500D01*
X157232805Y-77593500D01*
X157164684Y-77573498D01*
X157127013Y-77535940D01*
X157038822Y-77399617D01*
X157038820Y-77399614D01*
X157036014Y-77395277D01*
X156885670Y-77230051D01*
X156881619Y-77226852D01*
X156881615Y-77226848D01*
X156714414Y-77094800D01*
X156714410Y-77094798D01*
X156710359Y-77091598D01*
X156669053Y-77068796D01*
X156619084Y-77018364D01*
X156604312Y-76948921D01*
X156629428Y-76882516D01*
X156656780Y-76855909D01*
X156700603Y-76824650D01*
X156835860Y-76728173D01*
X156855169Y-76708932D01*
X156958779Y-76605683D01*
X156994096Y-76570489D01*
X157006443Y-76553307D01*
X157121435Y-76393277D01*
X157124453Y-76389077D01*
X157135775Y-76366170D01*
X157221136Y-76193453D01*
X157221137Y-76193451D01*
X157223430Y-76188811D01*
X157288370Y-75975069D01*
X157317529Y-75753590D01*
X157317899Y-75738457D01*
X157319074Y-75690365D01*
X157319074Y-75690361D01*
X157319156Y-75687000D01*
X157300852Y-75464361D01*
X157246431Y-75247702D01*
X157157354Y-75042840D01*
X157077654Y-74919642D01*
X157038822Y-74859617D01*
X157038820Y-74859614D01*
X157036014Y-74855277D01*
X157032532Y-74851450D01*
X156888798Y-74693488D01*
X156857746Y-74629642D01*
X156866141Y-74559143D01*
X156911317Y-74504375D01*
X156937761Y-74490706D01*
X157044297Y-74450767D01*
X157052705Y-74447615D01*
X157169261Y-74360261D01*
X157256615Y-74243705D01*
X157307745Y-74107316D01*
X157314500Y-74045134D01*
X157314500Y-72736595D01*
X157334502Y-72668474D01*
X157351405Y-72647499D01*
X158106901Y-71892004D01*
X158169213Y-71857979D01*
X158195996Y-71855100D01*
X159769000Y-71855100D01*
X159837121Y-71875102D01*
X159856347Y-71891443D01*
X159856620Y-71891140D01*
X159861532Y-71895563D01*
X159865947Y-71900466D01*
X159887529Y-71916146D01*
X159921626Y-71940919D01*
X160020448Y-72012718D01*
X160026476Y-72015402D01*
X160026478Y-72015403D01*
X160188881Y-72087709D01*
X160194912Y-72090394D01*
X160288312Y-72110247D01*
X160375256Y-72128728D01*
X160375261Y-72128728D01*
X160381713Y-72130100D01*
X160572687Y-72130100D01*
X160579139Y-72128728D01*
X160579144Y-72128728D01*
X160666088Y-72110247D01*
X160759488Y-72090394D01*
X160765519Y-72087709D01*
X160927922Y-72015403D01*
X160927924Y-72015402D01*
X160933952Y-72012718D01*
X161088453Y-71900466D01*
X161111291Y-71875102D01*
X161211821Y-71763452D01*
X161211822Y-71763451D01*
X161216240Y-71758544D01*
X161311727Y-71593156D01*
X161370742Y-71411528D01*
X161389471Y-71233330D01*
X161416484Y-71167673D01*
X161474706Y-71127043D01*
X161514781Y-71120500D01*
X181737500Y-71120500D01*
X181805621Y-71140502D01*
X181852114Y-71194158D01*
X181863500Y-71246500D01*
X181863500Y-77932298D01*
X181843498Y-78000419D01*
X181789842Y-78046912D01*
X181719568Y-78057016D01*
X181654988Y-78027522D01*
X181619518Y-77976527D01*
X181592968Y-77905705D01*
X181592967Y-77905703D01*
X181589815Y-77897295D01*
X181502461Y-77780739D01*
X181385905Y-77693385D01*
X181249516Y-77642255D01*
X181187334Y-77635500D01*
X179391066Y-77635500D01*
X179328884Y-77642255D01*
X179192495Y-77693385D01*
X179075939Y-77780739D01*
X178988585Y-77897295D01*
X178937455Y-78033684D01*
X178930700Y-78095866D01*
X178930700Y-79892134D01*
X178937455Y-79954316D01*
X178988585Y-80090705D01*
X179075939Y-80207261D01*
X179192495Y-80294615D01*
X179328884Y-80345745D01*
X179391066Y-80352500D01*
X179457805Y-80352500D01*
X179525926Y-80372502D01*
X179572419Y-80426158D01*
X179582523Y-80496432D01*
X179553029Y-80561012D01*
X179546905Y-80567591D01*
X179437698Y-80676797D01*
X179047699Y-81066796D01*
X178985387Y-81100821D01*
X178958604Y-81103700D01*
X178335968Y-81103700D01*
X178324780Y-81103172D01*
X178317292Y-81101498D01*
X178313474Y-81101618D01*
X178249235Y-81075968D01*
X178208000Y-81018174D01*
X178201723Y-80990025D01*
X178186233Y-80842643D01*
X178186232Y-80842640D01*
X178185542Y-80836072D01*
X178185259Y-80835200D01*
X178184545Y-80807866D01*
X178182730Y-80807809D01*
X178182979Y-80799890D01*
X178184220Y-80792057D01*
X178182619Y-80775115D01*
X178180059Y-80748039D01*
X178179500Y-80736181D01*
X178179500Y-80088767D01*
X178180027Y-80077584D01*
X178181702Y-80070091D01*
X178181166Y-80053023D01*
X178179562Y-80002014D01*
X178179500Y-79998055D01*
X178179500Y-79970144D01*
X178178995Y-79966144D01*
X178178062Y-79954301D01*
X178177777Y-79945215D01*
X178176673Y-79910110D01*
X178171022Y-79890658D01*
X178167014Y-79871306D01*
X178165467Y-79859063D01*
X178164474Y-79851203D01*
X178161556Y-79843832D01*
X178148200Y-79810097D01*
X178144355Y-79798870D01*
X178143721Y-79796687D01*
X178132018Y-79756407D01*
X178127984Y-79749585D01*
X178127981Y-79749579D01*
X178121706Y-79738968D01*
X178113010Y-79721218D01*
X178108472Y-79709756D01*
X178108469Y-79709751D01*
X178105552Y-79702383D01*
X178079573Y-79666625D01*
X178073057Y-79656707D01*
X178056732Y-79629104D01*
X178050542Y-79618637D01*
X178036218Y-79604313D01*
X178023376Y-79589278D01*
X178011472Y-79572893D01*
X177977406Y-79544711D01*
X177968627Y-79536722D01*
X177770252Y-79338347D01*
X177762712Y-79330061D01*
X177758600Y-79323582D01*
X177740067Y-79306178D01*
X177708949Y-79276957D01*
X177706107Y-79274202D01*
X177686370Y-79254465D01*
X177683173Y-79251985D01*
X177674151Y-79244280D01*
X177647700Y-79219441D01*
X177641921Y-79214014D01*
X177634975Y-79210195D01*
X177634972Y-79210193D01*
X177624166Y-79204252D01*
X177607667Y-79193416D01*
X177606541Y-79192543D01*
X177564961Y-79134996D01*
X177561162Y-79063817D01*
X177565505Y-79045552D01*
X177571031Y-78994686D01*
X177571400Y-78987872D01*
X177571400Y-78961315D01*
X177566925Y-78946076D01*
X177565535Y-78944871D01*
X177557852Y-78943200D01*
X176626215Y-78943200D01*
X176610975Y-78947675D01*
X176608516Y-78950513D01*
X176548789Y-78988896D01*
X176513292Y-78994000D01*
X175532115Y-78994000D01*
X175516876Y-78998475D01*
X175515671Y-78999865D01*
X175514000Y-79007548D01*
X175514000Y-80474484D01*
X175518475Y-80489723D01*
X175519865Y-80490928D01*
X175527548Y-80492599D01*
X176104769Y-80492599D01*
X176111590Y-80492229D01*
X176162452Y-80486705D01*
X176177703Y-80483079D01*
X176265093Y-80450318D01*
X176309323Y-80442300D01*
X176361716Y-80442300D01*
X176429837Y-80462302D01*
X176476330Y-80515958D01*
X176486434Y-80586232D01*
X176470836Y-80631298D01*
X176457473Y-80654444D01*
X176398458Y-80836072D01*
X176397768Y-80842633D01*
X176397768Y-80842635D01*
X176382984Y-80983298D01*
X176378496Y-81026000D01*
X176379186Y-81032565D01*
X176392580Y-81159998D01*
X176398458Y-81215928D01*
X176457473Y-81397556D01*
X176552960Y-81562944D01*
X176557378Y-81567851D01*
X176557379Y-81567852D01*
X176648624Y-81669190D01*
X176679342Y-81733197D01*
X176670577Y-81803651D01*
X176625114Y-81858182D01*
X176554988Y-81879500D01*
X175280572Y-81879500D01*
X175212451Y-81859498D01*
X175165958Y-81805842D01*
X175155262Y-81766670D01*
X175138232Y-81604635D01*
X175138232Y-81604633D01*
X175137542Y-81598072D01*
X175078527Y-81416444D01*
X174983040Y-81251056D01*
X174959451Y-81224857D01*
X174859675Y-81114045D01*
X174859674Y-81114044D01*
X174855253Y-81109134D01*
X174733481Y-81020661D01*
X174706094Y-81000763D01*
X174706093Y-81000762D01*
X174700752Y-80996882D01*
X174694724Y-80994198D01*
X174694722Y-80994197D01*
X174532319Y-80921891D01*
X174532318Y-80921891D01*
X174526288Y-80919206D01*
X174432850Y-80899345D01*
X174345944Y-80880872D01*
X174345939Y-80880872D01*
X174339487Y-80879500D01*
X174148513Y-80879500D01*
X174142061Y-80880872D01*
X174142056Y-80880872D01*
X174055150Y-80899345D01*
X173961712Y-80919206D01*
X173955682Y-80921891D01*
X173955681Y-80921891D01*
X173793278Y-80994197D01*
X173793276Y-80994198D01*
X173787248Y-80996882D01*
X173781907Y-81000762D01*
X173781906Y-81000763D01*
X173710694Y-81052502D01*
X173632747Y-81109134D01*
X173628332Y-81114037D01*
X173623420Y-81118460D01*
X173621305Y-81116111D01*
X173572766Y-81146322D01*
X173501777Y-81145295D01*
X173449924Y-81114020D01*
X173004058Y-80668153D01*
X172970033Y-80605841D01*
X172975098Y-80535025D01*
X173019093Y-80477122D01*
X173067021Y-80442300D01*
X173077253Y-80434866D01*
X173087232Y-80423783D01*
X173147679Y-80386545D01*
X173225095Y-80390114D01*
X173338882Y-80432771D01*
X173338888Y-80432773D01*
X173346284Y-80435545D01*
X173408466Y-80442300D01*
X174210677Y-80442300D01*
X174254907Y-80450318D01*
X174342294Y-80483078D01*
X174357549Y-80486705D01*
X174408414Y-80492231D01*
X174415228Y-80492600D01*
X174987885Y-80492600D01*
X175003124Y-80488125D01*
X175004329Y-80486735D01*
X175006000Y-80479052D01*
X175006000Y-78467885D01*
X175514000Y-78467885D01*
X175518475Y-78483124D01*
X175519865Y-78484329D01*
X175527548Y-78486000D01*
X176510272Y-78486000D01*
X176578393Y-78506002D01*
X176592785Y-78516776D01*
X176613965Y-78535129D01*
X176621648Y-78536800D01*
X177553284Y-78536800D01*
X177568523Y-78532325D01*
X177569728Y-78530935D01*
X177571399Y-78523252D01*
X177571399Y-78492131D01*
X177571029Y-78485310D01*
X177565505Y-78434448D01*
X177561879Y-78419196D01*
X177513572Y-78290338D01*
X177516912Y-78289086D01*
X177505381Y-78236390D01*
X177516046Y-78200067D01*
X177514015Y-78199305D01*
X177531006Y-78153982D01*
X177565145Y-78062916D01*
X177571900Y-78000734D01*
X177571900Y-77498066D01*
X177565145Y-77435884D01*
X177514015Y-77299495D01*
X177426661Y-77182939D01*
X177310105Y-77095585D01*
X177173716Y-77044455D01*
X177111534Y-77037700D01*
X176309323Y-77037700D01*
X176265093Y-77029682D01*
X176177706Y-76996922D01*
X176162451Y-76993295D01*
X176111586Y-76987769D01*
X176104772Y-76987400D01*
X175532115Y-76987400D01*
X175516876Y-76991875D01*
X175515671Y-76993265D01*
X175514000Y-77000948D01*
X175514000Y-78467885D01*
X175006000Y-78467885D01*
X175006000Y-77005516D01*
X175001525Y-76990277D01*
X175000135Y-76989072D01*
X174992452Y-76987401D01*
X174415231Y-76987401D01*
X174408410Y-76987771D01*
X174357548Y-76993295D01*
X174342297Y-76996921D01*
X174254907Y-77029682D01*
X174210677Y-77037700D01*
X173408466Y-77037700D01*
X173346284Y-77044455D01*
X173209895Y-77095585D01*
X173093339Y-77182939D01*
X173005985Y-77299495D01*
X172954855Y-77435884D01*
X172948100Y-77498066D01*
X172948100Y-77980500D01*
X172928098Y-78048621D01*
X172874442Y-78095114D01*
X172822100Y-78106500D01*
X172036763Y-78106500D01*
X172025579Y-78105973D01*
X172018091Y-78104299D01*
X172010169Y-78104548D01*
X172003737Y-78103940D01*
X171937801Y-78077616D01*
X171896564Y-78019823D01*
X171893119Y-77948910D01*
X171926500Y-77889404D01*
X171976934Y-77838970D01*
X172756653Y-77059252D01*
X172764939Y-77051712D01*
X172771418Y-77047600D01*
X172818044Y-76997948D01*
X172820798Y-76995107D01*
X172840535Y-76975370D01*
X172843015Y-76972173D01*
X172850720Y-76963151D01*
X172875559Y-76936700D01*
X172880986Y-76930921D01*
X172884805Y-76923975D01*
X172884807Y-76923972D01*
X172890748Y-76913166D01*
X172901599Y-76896647D01*
X172909158Y-76886901D01*
X172914014Y-76880641D01*
X172917159Y-76873372D01*
X172917162Y-76873368D01*
X172931574Y-76840063D01*
X172936791Y-76829413D01*
X172958095Y-76790660D01*
X172963133Y-76771037D01*
X172969537Y-76752334D01*
X172974433Y-76741020D01*
X172974433Y-76741019D01*
X172977581Y-76733745D01*
X172978820Y-76725922D01*
X172978823Y-76725912D01*
X172984499Y-76690076D01*
X172986905Y-76678456D01*
X172995928Y-76643311D01*
X172995928Y-76643310D01*
X172997900Y-76635630D01*
X172997900Y-76615376D01*
X172999451Y-76595665D01*
X173001380Y-76583486D01*
X173002620Y-76575657D01*
X172998459Y-76531638D01*
X172997900Y-76519781D01*
X172997900Y-75530924D01*
X173017902Y-75462803D01*
X173030258Y-75446621D01*
X173103440Y-75365344D01*
X173198927Y-75199956D01*
X173257942Y-75018328D01*
X173258926Y-75008971D01*
X173277214Y-74834965D01*
X173277904Y-74828400D01*
X173273111Y-74782794D01*
X173258632Y-74645035D01*
X173258632Y-74645033D01*
X173257942Y-74638472D01*
X173231838Y-74558134D01*
X178727500Y-74558134D01*
X178734255Y-74620316D01*
X178785385Y-74756705D01*
X178872739Y-74873261D01*
X178989295Y-74960615D01*
X179125684Y-75011745D01*
X179187866Y-75018500D01*
X180984134Y-75018500D01*
X181046316Y-75011745D01*
X181182705Y-74960615D01*
X181299261Y-74873261D01*
X181386615Y-74756705D01*
X181437745Y-74620316D01*
X181444500Y-74558134D01*
X181444500Y-72761866D01*
X181437745Y-72699684D01*
X181386615Y-72563295D01*
X181299261Y-72446739D01*
X181182705Y-72359385D01*
X181046316Y-72308255D01*
X180984134Y-72301500D01*
X179187866Y-72301500D01*
X179125684Y-72308255D01*
X178989295Y-72359385D01*
X178872739Y-72446739D01*
X178785385Y-72563295D01*
X178734255Y-72699684D01*
X178727500Y-72761866D01*
X178727500Y-74558134D01*
X173231838Y-74558134D01*
X173198927Y-74456844D01*
X173195419Y-74450767D01*
X173154256Y-74379472D01*
X173103440Y-74291456D01*
X173081324Y-74266893D01*
X172980075Y-74154445D01*
X172980074Y-74154444D01*
X172975653Y-74149534D01*
X172836635Y-74048531D01*
X172826494Y-74041163D01*
X172826493Y-74041162D01*
X172821152Y-74037282D01*
X172815124Y-74034598D01*
X172815122Y-74034597D01*
X172652719Y-73962291D01*
X172652718Y-73962291D01*
X172646688Y-73959606D01*
X172553288Y-73939753D01*
X172466344Y-73921272D01*
X172466339Y-73921272D01*
X172459887Y-73919900D01*
X172268913Y-73919900D01*
X172262461Y-73921272D01*
X172262456Y-73921272D01*
X172175512Y-73939753D01*
X172082112Y-73959606D01*
X172076082Y-73962291D01*
X172076081Y-73962291D01*
X171913678Y-74034597D01*
X171913676Y-74034598D01*
X171907648Y-74037282D01*
X171902307Y-74041162D01*
X171902306Y-74041163D01*
X171892165Y-74048531D01*
X171753147Y-74149534D01*
X171748732Y-74154437D01*
X171743820Y-74158860D01*
X171742695Y-74157611D01*
X171689386Y-74190451D01*
X171656200Y-74194900D01*
X170392994Y-74194900D01*
X170324873Y-74174898D01*
X170303899Y-74157995D01*
X169528679Y-73382774D01*
X168753252Y-72607347D01*
X168745712Y-72599061D01*
X168741600Y-72592582D01*
X168691948Y-72545956D01*
X168689107Y-72543202D01*
X168669370Y-72523465D01*
X168666173Y-72520985D01*
X168657151Y-72513280D01*
X168643722Y-72500669D01*
X168624921Y-72483014D01*
X168617975Y-72479195D01*
X168617972Y-72479193D01*
X168607166Y-72473252D01*
X168590647Y-72462401D01*
X168590183Y-72462041D01*
X168574641Y-72449986D01*
X168567372Y-72446841D01*
X168567368Y-72446838D01*
X168534063Y-72432426D01*
X168523413Y-72427209D01*
X168484660Y-72405905D01*
X168465037Y-72400867D01*
X168446334Y-72394463D01*
X168435020Y-72389567D01*
X168435019Y-72389567D01*
X168427745Y-72386419D01*
X168419922Y-72385180D01*
X168419912Y-72385177D01*
X168384076Y-72379501D01*
X168372456Y-72377095D01*
X168337311Y-72368072D01*
X168337310Y-72368072D01*
X168329630Y-72366100D01*
X168309376Y-72366100D01*
X168289665Y-72364549D01*
X168277486Y-72362620D01*
X168269657Y-72361380D01*
X168233785Y-72364771D01*
X168225639Y-72365541D01*
X168213781Y-72366100D01*
X165788367Y-72366100D01*
X165777184Y-72365573D01*
X165769691Y-72363898D01*
X165761765Y-72364147D01*
X165761764Y-72364147D01*
X165701601Y-72366038D01*
X165697643Y-72366100D01*
X165669744Y-72366100D01*
X165665754Y-72366604D01*
X165653920Y-72367536D01*
X165609711Y-72368926D01*
X165602097Y-72371138D01*
X165602092Y-72371139D01*
X165590259Y-72374577D01*
X165570896Y-72378588D01*
X165550803Y-72381126D01*
X165543436Y-72384043D01*
X165543431Y-72384044D01*
X165509692Y-72397402D01*
X165498465Y-72401246D01*
X165456007Y-72413582D01*
X165449181Y-72417619D01*
X165438572Y-72423893D01*
X165420824Y-72432588D01*
X165401983Y-72440048D01*
X165395567Y-72444710D01*
X165395566Y-72444710D01*
X165366213Y-72466036D01*
X165356293Y-72472552D01*
X165325065Y-72491020D01*
X165325062Y-72491022D01*
X165318238Y-72495058D01*
X165303917Y-72509379D01*
X165288884Y-72522219D01*
X165272493Y-72534128D01*
X165267442Y-72540233D01*
X165267437Y-72540238D01*
X165244301Y-72568204D01*
X165236313Y-72576982D01*
X164569700Y-73243595D01*
X164507388Y-73277621D01*
X164480605Y-73280500D01*
X164030200Y-73280500D01*
X163962079Y-73260498D01*
X163942853Y-73244157D01*
X163942580Y-73244460D01*
X163937668Y-73240037D01*
X163933253Y-73235134D01*
X163778752Y-73122882D01*
X163772724Y-73120198D01*
X163772722Y-73120197D01*
X163610319Y-73047891D01*
X163610318Y-73047891D01*
X163604288Y-73045206D01*
X163510887Y-73025353D01*
X163423944Y-73006872D01*
X163423939Y-73006872D01*
X163417487Y-73005500D01*
X163226513Y-73005500D01*
X163220061Y-73006872D01*
X163220056Y-73006872D01*
X163133113Y-73025353D01*
X163039712Y-73045206D01*
X163033682Y-73047891D01*
X163033681Y-73047891D01*
X162871278Y-73120197D01*
X162871276Y-73120198D01*
X162865248Y-73122882D01*
X162710747Y-73235134D01*
X162706326Y-73240044D01*
X162706325Y-73240045D01*
X162672492Y-73277621D01*
X162582960Y-73377056D01*
X162487473Y-73542444D01*
X162428458Y-73724072D01*
X162427768Y-73730633D01*
X162427768Y-73730635D01*
X162423827Y-73768135D01*
X162408496Y-73914000D01*
X162409186Y-73920565D01*
X162422636Y-74048531D01*
X162428458Y-74103928D01*
X162487473Y-74285556D01*
X162490776Y-74291278D01*
X162490777Y-74291279D01*
X162512428Y-74328779D01*
X162582960Y-74450944D01*
X162587375Y-74455847D01*
X162587379Y-74455852D01*
X162679474Y-74558134D01*
X162710747Y-74592866D01*
X162761365Y-74629642D01*
X162847467Y-74692199D01*
X162865248Y-74705118D01*
X162871276Y-74707802D01*
X162871278Y-74707803D01*
X162997255Y-74763891D01*
X163039712Y-74782794D01*
X163133113Y-74802647D01*
X163220056Y-74821128D01*
X163220061Y-74821128D01*
X163226513Y-74822500D01*
X163257125Y-74822500D01*
X163325246Y-74842502D01*
X163371739Y-74896158D01*
X163381843Y-74966432D01*
X163352349Y-75031012D01*
X163328561Y-75050205D01*
X163329295Y-75051185D01*
X163212739Y-75138539D01*
X163125385Y-75255095D01*
X163074255Y-75391484D01*
X163067500Y-75453666D01*
X163067500Y-75905534D01*
X163074255Y-75967716D01*
X163078869Y-75980023D01*
X163099618Y-76035370D01*
X163104801Y-76106177D01*
X163099619Y-76123828D01*
X163074255Y-76191485D01*
X163067500Y-76253667D01*
X163067500Y-76705535D01*
X163074255Y-76767717D01*
X163099618Y-76835371D01*
X163099885Y-76836084D01*
X163105068Y-76906891D01*
X163099885Y-76924545D01*
X163077521Y-76984199D01*
X163073895Y-76999451D01*
X163068369Y-77050316D01*
X163068000Y-77057130D01*
X163068000Y-77083687D01*
X163072475Y-77098926D01*
X163073865Y-77100131D01*
X163081548Y-77101802D01*
X163289877Y-77101802D01*
X163334106Y-77109820D01*
X163458291Y-77156375D01*
X163458295Y-77156376D01*
X163462893Y-77158100D01*
X163462897Y-77158102D01*
X163465683Y-77159146D01*
X163465514Y-77159597D01*
X163522649Y-77192239D01*
X163555467Y-77255196D01*
X163549038Y-77325901D01*
X163505404Y-77381906D01*
X163465679Y-77400045D01*
X163465683Y-77400055D01*
X163465542Y-77400108D01*
X163465539Y-77400109D01*
X163458288Y-77402827D01*
X163458282Y-77402829D01*
X163334098Y-77449384D01*
X163289869Y-77457402D01*
X163086116Y-77457402D01*
X163070877Y-77461877D01*
X163069672Y-77463267D01*
X163068001Y-77470950D01*
X163068001Y-77502071D01*
X163068371Y-77508892D01*
X163073895Y-77559752D01*
X163077522Y-77575009D01*
X163099884Y-77634660D01*
X163105067Y-77705467D01*
X163099884Y-77723118D01*
X163080300Y-77775358D01*
X163074255Y-77791484D01*
X163073402Y-77799332D01*
X163073402Y-77799334D01*
X163069908Y-77831500D01*
X163067500Y-77853666D01*
X163067500Y-78305534D01*
X163074255Y-78367716D01*
X163077029Y-78375115D01*
X163099618Y-78435371D01*
X163104801Y-78506178D01*
X163099619Y-78523827D01*
X163074255Y-78591485D01*
X163067500Y-78653667D01*
X163067500Y-79105535D01*
X163074255Y-79167717D01*
X163077027Y-79175110D01*
X163077027Y-79175112D01*
X163099617Y-79235371D01*
X163104800Y-79306178D01*
X163099617Y-79323829D01*
X163091215Y-79346242D01*
X163074255Y-79391483D01*
X163073402Y-79399331D01*
X163073402Y-79399333D01*
X163071474Y-79417084D01*
X163067500Y-79453665D01*
X163067500Y-79905533D01*
X163074255Y-79967715D01*
X163099618Y-80035369D01*
X163104801Y-80106176D01*
X163099619Y-80123827D01*
X163074255Y-80191484D01*
X163067500Y-80253666D01*
X163067500Y-80705534D01*
X163074255Y-80767716D01*
X163125385Y-80904105D01*
X163212739Y-81020661D01*
X163329295Y-81108015D01*
X163465684Y-81159145D01*
X163527866Y-81165900D01*
X164386134Y-81165900D01*
X164448316Y-81159145D01*
X164584705Y-81108015D01*
X164701261Y-81020661D01*
X164788615Y-80904105D01*
X164839745Y-80767716D01*
X164846500Y-80705534D01*
X164846500Y-80439099D01*
X164866502Y-80370978D01*
X164920158Y-80324485D01*
X164972500Y-80313099D01*
X164996034Y-80313099D01*
X165007217Y-80313626D01*
X165014710Y-80315301D01*
X165022636Y-80315052D01*
X165022637Y-80315052D01*
X165082787Y-80313161D01*
X165086746Y-80313099D01*
X165114657Y-80313099D01*
X165118592Y-80312602D01*
X165118657Y-80312594D01*
X165130494Y-80311661D01*
X165162752Y-80310647D01*
X165166771Y-80310521D01*
X165174690Y-80310272D01*
X165194144Y-80304620D01*
X165213501Y-80300612D01*
X165225731Y-80299067D01*
X165225732Y-80299067D01*
X165233598Y-80298073D01*
X165240969Y-80295154D01*
X165240971Y-80295154D01*
X165274713Y-80281795D01*
X165285943Y-80277950D01*
X165320784Y-80267828D01*
X165320785Y-80267828D01*
X165328394Y-80265617D01*
X165335213Y-80261584D01*
X165335218Y-80261582D01*
X165345829Y-80255306D01*
X165363577Y-80246611D01*
X165382418Y-80239151D01*
X165418188Y-80213163D01*
X165428108Y-80206647D01*
X165459336Y-80188179D01*
X165459339Y-80188177D01*
X165466163Y-80184141D01*
X165477899Y-80172405D01*
X165540211Y-80138379D01*
X165566994Y-80135500D01*
X169713005Y-80135500D01*
X169781126Y-80155502D01*
X169802100Y-80172405D01*
X170238068Y-80608373D01*
X170271016Y-80666137D01*
X170271731Y-80668923D01*
X170272726Y-80676797D01*
X170275647Y-80684174D01*
X170275647Y-80684175D01*
X170289004Y-80717912D01*
X170292849Y-80729142D01*
X170302873Y-80763646D01*
X170305182Y-80771593D01*
X170309215Y-80778412D01*
X170309217Y-80778417D01*
X170315493Y-80789028D01*
X170324188Y-80806776D01*
X170331648Y-80825617D01*
X170336310Y-80832033D01*
X170336310Y-80832034D01*
X170357636Y-80861387D01*
X170364152Y-80871307D01*
X170380734Y-80899345D01*
X170386658Y-80909362D01*
X170400979Y-80923683D01*
X170413819Y-80938716D01*
X170425728Y-80955107D01*
X170431834Y-80960158D01*
X170459805Y-80983298D01*
X170468584Y-80991288D01*
X172382548Y-82905253D01*
X172390088Y-82913539D01*
X172394200Y-82920018D01*
X172399977Y-82925443D01*
X172443851Y-82966643D01*
X172446693Y-82969398D01*
X172466430Y-82989135D01*
X172469627Y-82991615D01*
X172478647Y-82999318D01*
X172510879Y-83029586D01*
X172517825Y-83033405D01*
X172517828Y-83033407D01*
X172528634Y-83039348D01*
X172545153Y-83050199D01*
X172561159Y-83062614D01*
X172568428Y-83065759D01*
X172568432Y-83065762D01*
X172601737Y-83080174D01*
X172612387Y-83085391D01*
X172651140Y-83106695D01*
X172658815Y-83108666D01*
X172658816Y-83108666D01*
X172670762Y-83111733D01*
X172689467Y-83118137D01*
X172708055Y-83126181D01*
X172715878Y-83127420D01*
X172715888Y-83127423D01*
X172751724Y-83133099D01*
X172763344Y-83135505D01*
X172798489Y-83144528D01*
X172806170Y-83146500D01*
X172826424Y-83146500D01*
X172846134Y-83148051D01*
X172866143Y-83151220D01*
X172874035Y-83150474D01*
X172910161Y-83147059D01*
X172922019Y-83146500D01*
X176735700Y-83146500D01*
X176803821Y-83166502D01*
X176850314Y-83220158D01*
X176861700Y-83272500D01*
X176861700Y-85597536D01*
X176841698Y-85665657D01*
X176788042Y-85712150D01*
X176717768Y-85722254D01*
X176653188Y-85692760D01*
X176642071Y-85681854D01*
X176637552Y-85676835D01*
X176483051Y-85564583D01*
X176477023Y-85561899D01*
X176477021Y-85561898D01*
X176314618Y-85489592D01*
X176314617Y-85489592D01*
X176308587Y-85486907D01*
X176215186Y-85467054D01*
X176128243Y-85448573D01*
X176128238Y-85448573D01*
X176121786Y-85447201D01*
X175930812Y-85447201D01*
X175924360Y-85448573D01*
X175924355Y-85448573D01*
X175837412Y-85467054D01*
X175744011Y-85486907D01*
X175737981Y-85489592D01*
X175737980Y-85489592D01*
X175575577Y-85561898D01*
X175575575Y-85561899D01*
X175569547Y-85564583D01*
X175564206Y-85568463D01*
X175564205Y-85568464D01*
X175441288Y-85657769D01*
X175415046Y-85676835D01*
X175410631Y-85681738D01*
X175405719Y-85686161D01*
X175404594Y-85684912D01*
X175351285Y-85717752D01*
X175318099Y-85722201D01*
X172295067Y-85722201D01*
X172283884Y-85721674D01*
X172276391Y-85719999D01*
X172268465Y-85720248D01*
X172268464Y-85720248D01*
X172208301Y-85722139D01*
X172204343Y-85722201D01*
X172176443Y-85722201D01*
X172172453Y-85722705D01*
X172160619Y-85723637D01*
X172116410Y-85725027D01*
X172108794Y-85727240D01*
X172108792Y-85727240D01*
X172096951Y-85730680D01*
X172077592Y-85734689D01*
X172076282Y-85734855D01*
X172057502Y-85737227D01*
X172050136Y-85740143D01*
X172050130Y-85740145D01*
X172016397Y-85753501D01*
X172005167Y-85757346D01*
X171970316Y-85767471D01*
X171962706Y-85769682D01*
X171955883Y-85773717D01*
X171945265Y-85779996D01*
X171927512Y-85788693D01*
X171925876Y-85789341D01*
X171908682Y-85796149D01*
X171902267Y-85800810D01*
X171872911Y-85822138D01*
X171862994Y-85828652D01*
X171824937Y-85851159D01*
X171810616Y-85865480D01*
X171795583Y-85878320D01*
X171779192Y-85890229D01*
X171751001Y-85924306D01*
X171743011Y-85933085D01*
X169954500Y-87721595D01*
X169892188Y-87755621D01*
X169865405Y-87758500D01*
X169301800Y-87758500D01*
X169233679Y-87738498D01*
X169187186Y-87684842D01*
X169177082Y-87614568D01*
X169192681Y-87569500D01*
X169233223Y-87499279D01*
X169233224Y-87499278D01*
X169236527Y-87493556D01*
X169295542Y-87311928D01*
X169300703Y-87262829D01*
X169314814Y-87128565D01*
X169315504Y-87122000D01*
X169306722Y-87038446D01*
X169296232Y-86938635D01*
X169296232Y-86938633D01*
X169295542Y-86932072D01*
X169236527Y-86750444D01*
X169219039Y-86720153D01*
X169163196Y-86623431D01*
X169141040Y-86585056D01*
X169134903Y-86578240D01*
X169068394Y-86504374D01*
X169037676Y-86440367D01*
X169046441Y-86369913D01*
X169072935Y-86330969D01*
X169302247Y-86101657D01*
X169310537Y-86094113D01*
X169317018Y-86090000D01*
X169363659Y-86040332D01*
X169366413Y-86037491D01*
X169386134Y-86017770D01*
X169388612Y-86014575D01*
X169396318Y-86005553D01*
X169413895Y-85986835D01*
X169426586Y-85973321D01*
X169436346Y-85955568D01*
X169447199Y-85939045D01*
X169454753Y-85929306D01*
X169459613Y-85923041D01*
X169477176Y-85882457D01*
X169482383Y-85871827D01*
X169503695Y-85833060D01*
X169505666Y-85825383D01*
X169505668Y-85825378D01*
X169508732Y-85813442D01*
X169515138Y-85794730D01*
X169515890Y-85792994D01*
X169523181Y-85776145D01*
X169525478Y-85761646D01*
X169530097Y-85732481D01*
X169532504Y-85720860D01*
X169541528Y-85685711D01*
X169541528Y-85685710D01*
X169543500Y-85678030D01*
X169543500Y-85657769D01*
X169545051Y-85638058D01*
X169546979Y-85625885D01*
X169548219Y-85618057D01*
X169544059Y-85574046D01*
X169543500Y-85562189D01*
X169543500Y-82374763D01*
X169544027Y-82363579D01*
X169545701Y-82356091D01*
X169543562Y-82288032D01*
X169543500Y-82284075D01*
X169543500Y-82256144D01*
X169542994Y-82252138D01*
X169542061Y-82240292D01*
X169541026Y-82207331D01*
X169540673Y-82196110D01*
X169535022Y-82176658D01*
X169531014Y-82157306D01*
X169529468Y-82145068D01*
X169529467Y-82145066D01*
X169528474Y-82137203D01*
X169512194Y-82096086D01*
X169508359Y-82084885D01*
X169496018Y-82042406D01*
X169491985Y-82035587D01*
X169491983Y-82035582D01*
X169485707Y-82024971D01*
X169477010Y-82007221D01*
X169469552Y-81988383D01*
X169443571Y-81952623D01*
X169437053Y-81942701D01*
X169418578Y-81911460D01*
X169418574Y-81911455D01*
X169414542Y-81904637D01*
X169400218Y-81890313D01*
X169387376Y-81875278D01*
X169375472Y-81858893D01*
X169357574Y-81844086D01*
X169317836Y-81785255D01*
X169312579Y-81760172D01*
X169310558Y-81740938D01*
X169295542Y-81598072D01*
X169236527Y-81416444D01*
X169141040Y-81251056D01*
X169117451Y-81224857D01*
X169017675Y-81114045D01*
X169017674Y-81114044D01*
X169013253Y-81109134D01*
X168891481Y-81020661D01*
X168864094Y-81000763D01*
X168864093Y-81000762D01*
X168858752Y-80996882D01*
X168852724Y-80994198D01*
X168852722Y-80994197D01*
X168690319Y-80921891D01*
X168690318Y-80921891D01*
X168684288Y-80919206D01*
X168590850Y-80899345D01*
X168503944Y-80880872D01*
X168503939Y-80880872D01*
X168497487Y-80879500D01*
X168306513Y-80879500D01*
X168300061Y-80880872D01*
X168300056Y-80880872D01*
X168213150Y-80899345D01*
X168119712Y-80919206D01*
X168113682Y-80921891D01*
X168113681Y-80921891D01*
X167951278Y-80994197D01*
X167951276Y-80994198D01*
X167945248Y-80996882D01*
X167939907Y-81000762D01*
X167939906Y-81000763D01*
X167912519Y-81020661D01*
X167790747Y-81109134D01*
X167786326Y-81114044D01*
X167786325Y-81114045D01*
X167686550Y-81224857D01*
X167662960Y-81251056D01*
X167567473Y-81416444D01*
X167508458Y-81598072D01*
X167488496Y-81788000D01*
X167489186Y-81794565D01*
X167505799Y-81952625D01*
X167508458Y-81977928D01*
X167567473Y-82159556D01*
X167570776Y-82165278D01*
X167570777Y-82165279D01*
X167588841Y-82196566D01*
X167662960Y-82324944D01*
X167667378Y-82329851D01*
X167667379Y-82329852D01*
X167786325Y-82461955D01*
X167790747Y-82466866D01*
X167945248Y-82579118D01*
X167951276Y-82581802D01*
X167951278Y-82581803D01*
X168051878Y-82626593D01*
X168119712Y-82656794D01*
X168171556Y-82667814D01*
X168176698Y-82668907D01*
X168239171Y-82702635D01*
X168273492Y-82764785D01*
X168276500Y-82792153D01*
X168276500Y-83070909D01*
X168256498Y-83139030D01*
X168202842Y-83185523D01*
X168132568Y-83195627D01*
X168124303Y-83194156D01*
X167995944Y-83166872D01*
X167995939Y-83166872D01*
X167989487Y-83165500D01*
X167798513Y-83165500D01*
X167792061Y-83166872D01*
X167792056Y-83166872D01*
X167705113Y-83185353D01*
X167611712Y-83205206D01*
X167605682Y-83207891D01*
X167605681Y-83207891D01*
X167443278Y-83280197D01*
X167443276Y-83280198D01*
X167437248Y-83282882D01*
X167282747Y-83395134D01*
X167154960Y-83537056D01*
X167059473Y-83702444D01*
X167000458Y-83884072D01*
X166980496Y-84074000D01*
X166981186Y-84080565D01*
X166993089Y-84193812D01*
X167000458Y-84263928D01*
X167059473Y-84445556D01*
X167062776Y-84451278D01*
X167062777Y-84451279D01*
X167076843Y-84475641D01*
X167154960Y-84610944D01*
X167228137Y-84692215D01*
X167258853Y-84756221D01*
X167260500Y-84776524D01*
X167260500Y-85029405D01*
X167240498Y-85097526D01*
X167223595Y-85118501D01*
X166652499Y-85689596D01*
X166590187Y-85723621D01*
X166563404Y-85726500D01*
X159082767Y-85726500D01*
X159071584Y-85725973D01*
X159064091Y-85724298D01*
X159056165Y-85724547D01*
X159056164Y-85724547D01*
X158996001Y-85726438D01*
X158992043Y-85726500D01*
X158964144Y-85726500D01*
X158960154Y-85727004D01*
X158948320Y-85727936D01*
X158904111Y-85729326D01*
X158896497Y-85731538D01*
X158896492Y-85731539D01*
X158884659Y-85734977D01*
X158865296Y-85738988D01*
X158845203Y-85741526D01*
X158837836Y-85744443D01*
X158837831Y-85744444D01*
X158804092Y-85757802D01*
X158792865Y-85761646D01*
X158750407Y-85773982D01*
X158743581Y-85778019D01*
X158732972Y-85784293D01*
X158715224Y-85792988D01*
X158696383Y-85800448D01*
X158689967Y-85805110D01*
X158689966Y-85805110D01*
X158660613Y-85826436D01*
X158650693Y-85832952D01*
X158619465Y-85851420D01*
X158619462Y-85851422D01*
X158612638Y-85855458D01*
X158598317Y-85869779D01*
X158583284Y-85882619D01*
X158566893Y-85894528D01*
X158561842Y-85900634D01*
X158538702Y-85928605D01*
X158530712Y-85937384D01*
X157070717Y-87397378D01*
X157008405Y-87431404D01*
X156937589Y-87426339D01*
X156893658Y-87396621D01*
X156892931Y-87397401D01*
X156889147Y-87393872D01*
X156885670Y-87390051D01*
X156881619Y-87386852D01*
X156881615Y-87386848D01*
X156714414Y-87254800D01*
X156714410Y-87254798D01*
X156710359Y-87251598D01*
X156669053Y-87228796D01*
X156619084Y-87178364D01*
X156604312Y-87108921D01*
X156629428Y-87042516D01*
X156656780Y-87015909D01*
X156722708Y-86968883D01*
X156835860Y-86888173D01*
X156850035Y-86874048D01*
X156990435Y-86734137D01*
X156994096Y-86730489D01*
X157053594Y-86647689D01*
X157121435Y-86553277D01*
X157124453Y-86549077D01*
X157146547Y-86504374D01*
X157221136Y-86353453D01*
X157221137Y-86353451D01*
X157223430Y-86348811D01*
X157288370Y-86135069D01*
X157317529Y-85913590D01*
X157318550Y-85871813D01*
X157319074Y-85850365D01*
X157319074Y-85850361D01*
X157319156Y-85847000D01*
X157300852Y-85624361D01*
X157246431Y-85407702D01*
X157157354Y-85202840D01*
X157117906Y-85141862D01*
X157038822Y-85019617D01*
X157038820Y-85019614D01*
X157036014Y-85015277D01*
X156885670Y-84850051D01*
X156881619Y-84846852D01*
X156881615Y-84846848D01*
X156714414Y-84714800D01*
X156714410Y-84714798D01*
X156710359Y-84711598D01*
X156668569Y-84688529D01*
X156618598Y-84638097D01*
X156603826Y-84568654D01*
X156628942Y-84502248D01*
X156656294Y-84475641D01*
X156831328Y-84350792D01*
X156839200Y-84344139D01*
X156990052Y-84193812D01*
X156996730Y-84185965D01*
X157121003Y-84013020D01*
X157126313Y-84004183D01*
X157220670Y-83813267D01*
X157224469Y-83803672D01*
X157286377Y-83599910D01*
X157288555Y-83589837D01*
X157289986Y-83578962D01*
X157287775Y-83564778D01*
X157274617Y-83561000D01*
X154639225Y-83561000D01*
X154625694Y-83564973D01*
X154624257Y-83574966D01*
X154654565Y-83709446D01*
X154657645Y-83719275D01*
X154737770Y-83916603D01*
X154742413Y-83925794D01*
X154853694Y-84107388D01*
X154859777Y-84115699D01*
X154999211Y-84276666D01*
X155006580Y-84283883D01*
X155170434Y-84419916D01*
X155178881Y-84425831D01*
X155247969Y-84466203D01*
X155296693Y-84517842D01*
X155309764Y-84587625D01*
X155283033Y-84653396D01*
X155242584Y-84686752D01*
X155229607Y-84693507D01*
X155225474Y-84696610D01*
X155225471Y-84696612D01*
X155055100Y-84824530D01*
X155050965Y-84827635D01*
X154896629Y-84989138D01*
X154893715Y-84993410D01*
X154893714Y-84993411D01*
X154836604Y-85077131D01*
X154770743Y-85173680D01*
X154676688Y-85376305D01*
X154616989Y-85591570D01*
X154593251Y-85813695D01*
X154593548Y-85818848D01*
X154593548Y-85818851D01*
X154599892Y-85928874D01*
X154606110Y-86036715D01*
X154607247Y-86041761D01*
X154607248Y-86041767D01*
X154627119Y-86129939D01*
X154655222Y-86254639D01*
X154739266Y-86461616D01*
X154765468Y-86504374D01*
X154846043Y-86635860D01*
X154855987Y-86652088D01*
X155002250Y-86820938D01*
X155174126Y-86963632D01*
X155236888Y-87000307D01*
X155247445Y-87006476D01*
X155296169Y-87058114D01*
X155309240Y-87127897D01*
X155282509Y-87193669D01*
X155242055Y-87227027D01*
X155229607Y-87233507D01*
X155225474Y-87236610D01*
X155225471Y-87236612D01*
X155055100Y-87364530D01*
X155050965Y-87367635D01*
X155047393Y-87371373D01*
X154923041Y-87501500D01*
X154896629Y-87529138D01*
X154770743Y-87713680D01*
X154723716Y-87814992D01*
X154694072Y-87878855D01*
X154676688Y-87916305D01*
X154616989Y-88131570D01*
X154593251Y-88353695D01*
X154593548Y-88358848D01*
X154593548Y-88358851D01*
X154599414Y-88460579D01*
X154606110Y-88576715D01*
X154607247Y-88581761D01*
X154607248Y-88581767D01*
X154610062Y-88594252D01*
X154655222Y-88794639D01*
X154715014Y-88941890D01*
X154721448Y-88957734D01*
X154739266Y-89001616D01*
X154760404Y-89036110D01*
X154846239Y-89176180D01*
X154855987Y-89192088D01*
X155002250Y-89360938D01*
X155174126Y-89503632D01*
X155367000Y-89616338D01*
X155371825Y-89618180D01*
X155371826Y-89618181D01*
X155444612Y-89645975D01*
X155575692Y-89696030D01*
X155580760Y-89697061D01*
X155580763Y-89697062D01*
X155688017Y-89718883D01*
X155794597Y-89740567D01*
X155799772Y-89740757D01*
X155799774Y-89740757D01*
X156012673Y-89748564D01*
X156012677Y-89748564D01*
X156017837Y-89748753D01*
X156022957Y-89748097D01*
X156022959Y-89748097D01*
X156234288Y-89721025D01*
X156234289Y-89721025D01*
X156239416Y-89720368D01*
X156244366Y-89718883D01*
X156448429Y-89657661D01*
X156448434Y-89657659D01*
X156453384Y-89656174D01*
X156653994Y-89557896D01*
X156835860Y-89428173D01*
X156843128Y-89420931D01*
X156970510Y-89293993D01*
X156994096Y-89270489D01*
X157014565Y-89242004D01*
X157121435Y-89093277D01*
X157124453Y-89089077D01*
X157149070Y-89039268D01*
X157197182Y-88987062D01*
X157215922Y-88978880D01*
X157215705Y-88978378D01*
X157222982Y-88975229D01*
X157230593Y-88973018D01*
X157237412Y-88968985D01*
X157237417Y-88968983D01*
X157248028Y-88962707D01*
X157265776Y-88954012D01*
X157284617Y-88946552D01*
X157320387Y-88920564D01*
X157330307Y-88914048D01*
X157361535Y-88895580D01*
X157361538Y-88895578D01*
X157368362Y-88891542D01*
X157382683Y-88877221D01*
X157397717Y-88864380D01*
X157400766Y-88862165D01*
X157414107Y-88852472D01*
X157419157Y-88846368D01*
X157419162Y-88846363D01*
X157442293Y-88818402D01*
X157450283Y-88809621D01*
X158083151Y-88176754D01*
X158145463Y-88142729D01*
X158216279Y-88147794D01*
X158260057Y-88177578D01*
X158260722Y-88176840D01*
X158265624Y-88181253D01*
X158270046Y-88186165D01*
X158424547Y-88298417D01*
X158430575Y-88301101D01*
X158430577Y-88301102D01*
X158573606Y-88364782D01*
X158599011Y-88376093D01*
X158692242Y-88395910D01*
X158779355Y-88414427D01*
X158779360Y-88414427D01*
X158785812Y-88415799D01*
X158976786Y-88415799D01*
X158983238Y-88414427D01*
X158983243Y-88414427D01*
X159070356Y-88395910D01*
X159163587Y-88376093D01*
X159188992Y-88364782D01*
X159332021Y-88301102D01*
X159332023Y-88301101D01*
X159338051Y-88298417D01*
X159492552Y-88186165D01*
X159501026Y-88176754D01*
X159615920Y-88049151D01*
X159615921Y-88049150D01*
X159620339Y-88044243D01*
X159715826Y-87878855D01*
X159774841Y-87697227D01*
X159783554Y-87614329D01*
X159810567Y-87548672D01*
X159868789Y-87508043D01*
X159908864Y-87501500D01*
X165547406Y-87501500D01*
X165615527Y-87521502D01*
X165636501Y-87538405D01*
X166882343Y-88784247D01*
X166889887Y-88792537D01*
X166894000Y-88799018D01*
X166899777Y-88804443D01*
X166943667Y-88845658D01*
X166946509Y-88848413D01*
X166966230Y-88868134D01*
X166969425Y-88870612D01*
X166978447Y-88878318D01*
X167010679Y-88908586D01*
X167022416Y-88915038D01*
X167024798Y-88916348D01*
X167074856Y-88966693D01*
X167089749Y-89036110D01*
X167064748Y-89102559D01*
X167038157Y-89128698D01*
X167028747Y-89135534D01*
X167024326Y-89140444D01*
X167024325Y-89140445D01*
X166915203Y-89261638D01*
X166900960Y-89277456D01*
X166886073Y-89303241D01*
X166818125Y-89420931D01*
X166805473Y-89442844D01*
X166746458Y-89624472D01*
X166745768Y-89631033D01*
X166745768Y-89631035D01*
X166733396Y-89748753D01*
X166726496Y-89814400D01*
X166727186Y-89820965D01*
X166739442Y-89937570D01*
X166746458Y-90004328D01*
X166805473Y-90185956D01*
X166900960Y-90351344D01*
X166905378Y-90356251D01*
X166905379Y-90356252D01*
X166987899Y-90447900D01*
X167028747Y-90493266D01*
X167183248Y-90605518D01*
X167189276Y-90608202D01*
X167189278Y-90608203D01*
X167345107Y-90677582D01*
X167357712Y-90683194D01*
X167451112Y-90703047D01*
X167538056Y-90721528D01*
X167538061Y-90721528D01*
X167544513Y-90722900D01*
X167735487Y-90722900D01*
X167741939Y-90721528D01*
X167741944Y-90721528D01*
X167828888Y-90703047D01*
X167922288Y-90683194D01*
X167934893Y-90677582D01*
X168090722Y-90608203D01*
X168090724Y-90608202D01*
X168096752Y-90605518D01*
X168251253Y-90493266D01*
X168255668Y-90488363D01*
X168260580Y-90483940D01*
X168261705Y-90485189D01*
X168315014Y-90452349D01*
X168348200Y-90447900D01*
X170017806Y-90447900D01*
X170085927Y-90467902D01*
X170106901Y-90484805D01*
X170299678Y-90677582D01*
X170333704Y-90739894D01*
X170335892Y-90753503D01*
X170353258Y-90918728D01*
X170412273Y-91100356D01*
X170415576Y-91106078D01*
X170415577Y-91106079D01*
X170428352Y-91128206D01*
X170507760Y-91265744D01*
X170635547Y-91407666D01*
X170790048Y-91519918D01*
X170796076Y-91522602D01*
X170796078Y-91522603D01*
X170958481Y-91594909D01*
X170964512Y-91597594D01*
X171057912Y-91617447D01*
X171144856Y-91635928D01*
X171144861Y-91635928D01*
X171151313Y-91637300D01*
X171342287Y-91637300D01*
X171348739Y-91635928D01*
X171348744Y-91635928D01*
X171435687Y-91617447D01*
X171529088Y-91597594D01*
X171535119Y-91594909D01*
X171697522Y-91522603D01*
X171697524Y-91522602D01*
X171703552Y-91519918D01*
X171858053Y-91407666D01*
X171985840Y-91265744D01*
X172065248Y-91128206D01*
X172078023Y-91106079D01*
X172078024Y-91106078D01*
X172081327Y-91100356D01*
X172140342Y-90918728D01*
X172160304Y-90728800D01*
X172155511Y-90683194D01*
X172141032Y-90545435D01*
X172141032Y-90545433D01*
X172140342Y-90538872D01*
X172081327Y-90357244D01*
X171985840Y-90191856D01*
X171858053Y-90049934D01*
X171703552Y-89937682D01*
X171697524Y-89934998D01*
X171697522Y-89934997D01*
X171535119Y-89862691D01*
X171535118Y-89862691D01*
X171529088Y-89860006D01*
X171432404Y-89839455D01*
X171348744Y-89821672D01*
X171348739Y-89821672D01*
X171342287Y-89820300D01*
X171286395Y-89820300D01*
X171218274Y-89800298D01*
X171197300Y-89783395D01*
X170836052Y-89422147D01*
X170828512Y-89413861D01*
X170824400Y-89407382D01*
X170774748Y-89360756D01*
X170771907Y-89358002D01*
X170752170Y-89338265D01*
X170748973Y-89335785D01*
X170739951Y-89328080D01*
X170713500Y-89303241D01*
X170707721Y-89297814D01*
X170700775Y-89293995D01*
X170700772Y-89293993D01*
X170689966Y-89288052D01*
X170673447Y-89277201D01*
X170667448Y-89272548D01*
X170657441Y-89264786D01*
X170650172Y-89261641D01*
X170650168Y-89261638D01*
X170616863Y-89247226D01*
X170606213Y-89242009D01*
X170567460Y-89220705D01*
X170547837Y-89215667D01*
X170529134Y-89209263D01*
X170517820Y-89204367D01*
X170517819Y-89204367D01*
X170510545Y-89201219D01*
X170502719Y-89199979D01*
X170502714Y-89199978D01*
X170498662Y-89199336D01*
X170495746Y-89197953D01*
X170495101Y-89197766D01*
X170495131Y-89197662D01*
X170434510Y-89168921D01*
X170396986Y-89108651D01*
X170398003Y-89037662D01*
X170437238Y-88978491D01*
X170471992Y-88957738D01*
X170487617Y-88951552D01*
X170523387Y-88925564D01*
X170533307Y-88919048D01*
X170564535Y-88900580D01*
X170564538Y-88900578D01*
X170571362Y-88896542D01*
X170585683Y-88882221D01*
X170600717Y-88869380D01*
X170602432Y-88868134D01*
X170617107Y-88857472D01*
X170645298Y-88823395D01*
X170653288Y-88814616D01*
X172441798Y-87026106D01*
X172504110Y-86992080D01*
X172530893Y-86989201D01*
X175318099Y-86989201D01*
X175386220Y-87009203D01*
X175405446Y-87025544D01*
X175405719Y-87025241D01*
X175410631Y-87029664D01*
X175415046Y-87034567D01*
X175425987Y-87042516D01*
X175544423Y-87128565D01*
X175569547Y-87146819D01*
X175575575Y-87149503D01*
X175575577Y-87149504D01*
X175674774Y-87193669D01*
X175744011Y-87224495D01*
X175837412Y-87244348D01*
X175924355Y-87262829D01*
X175924360Y-87262829D01*
X175930812Y-87264201D01*
X176121786Y-87264201D01*
X176128238Y-87262829D01*
X176128243Y-87262829D01*
X176215186Y-87244348D01*
X176308587Y-87224495D01*
X176377824Y-87193669D01*
X176477021Y-87149504D01*
X176477023Y-87149503D01*
X176483051Y-87146819D01*
X176508176Y-87128565D01*
X176626611Y-87042516D01*
X176637552Y-87034567D01*
X176675808Y-86992080D01*
X176764255Y-86893849D01*
X176824701Y-86856609D01*
X176895685Y-86857961D01*
X176954669Y-86897474D01*
X176959820Y-86904088D01*
X176961628Y-86906576D01*
X176968152Y-86916507D01*
X176983219Y-86941983D01*
X176990658Y-86954562D01*
X177004979Y-86968883D01*
X177017819Y-86983916D01*
X177029728Y-87000307D01*
X177059868Y-87025241D01*
X177063805Y-87028498D01*
X177072584Y-87036488D01*
X177281995Y-87245899D01*
X177316021Y-87308211D01*
X177318900Y-87334994D01*
X177318900Y-88191300D01*
X177298898Y-88259421D01*
X177245242Y-88305914D01*
X177192900Y-88317300D01*
X176507167Y-88317300D01*
X176495984Y-88316773D01*
X176488491Y-88315098D01*
X176480565Y-88315347D01*
X176480564Y-88315347D01*
X176420401Y-88317238D01*
X176416443Y-88317300D01*
X176388544Y-88317300D01*
X176384554Y-88317804D01*
X176372720Y-88318736D01*
X176328511Y-88320126D01*
X176320897Y-88322338D01*
X176320892Y-88322339D01*
X176309059Y-88325777D01*
X176289696Y-88329788D01*
X176269603Y-88332326D01*
X176262236Y-88335243D01*
X176262231Y-88335244D01*
X176228492Y-88348602D01*
X176217265Y-88352446D01*
X176209961Y-88354568D01*
X176174807Y-88364782D01*
X176167981Y-88368819D01*
X176157372Y-88375093D01*
X176139624Y-88383788D01*
X176120783Y-88391248D01*
X176114367Y-88395910D01*
X176114366Y-88395910D01*
X176085013Y-88417236D01*
X176075093Y-88423752D01*
X176043865Y-88442220D01*
X176043862Y-88442222D01*
X176037038Y-88446258D01*
X176022717Y-88460579D01*
X176007684Y-88473419D01*
X175991293Y-88485328D01*
X175986243Y-88491432D01*
X175986238Y-88491437D01*
X175963107Y-88519398D01*
X175955117Y-88528179D01*
X175469039Y-89014256D01*
X174969343Y-89513952D01*
X174961060Y-89521489D01*
X174954582Y-89525600D01*
X174949158Y-89531376D01*
X174907955Y-89575253D01*
X174905200Y-89578095D01*
X174885465Y-89597830D01*
X174882985Y-89601027D01*
X174875282Y-89610047D01*
X174845014Y-89642279D01*
X174841195Y-89649225D01*
X174841193Y-89649228D01*
X174835252Y-89660034D01*
X174824401Y-89676553D01*
X174811986Y-89692559D01*
X174808841Y-89699828D01*
X174808838Y-89699832D01*
X174794426Y-89733137D01*
X174789209Y-89743787D01*
X174767905Y-89782540D01*
X174763346Y-89800298D01*
X174762867Y-89802162D01*
X174756463Y-89820866D01*
X174748419Y-89839455D01*
X174747180Y-89847278D01*
X174747177Y-89847288D01*
X174741501Y-89883124D01*
X174739095Y-89894744D01*
X174728100Y-89937570D01*
X174728100Y-89957824D01*
X174726549Y-89977534D01*
X174723380Y-89997543D01*
X174724126Y-90005435D01*
X174727541Y-90041561D01*
X174728100Y-90053419D01*
X174728100Y-90229476D01*
X174708098Y-90297597D01*
X174695742Y-90313779D01*
X174622560Y-90395056D01*
X174589482Y-90452349D01*
X174539528Y-90538872D01*
X174527073Y-90560444D01*
X174468058Y-90742072D01*
X174448096Y-90932000D01*
X174468058Y-91121928D01*
X174527073Y-91303556D01*
X174622560Y-91468944D01*
X174750347Y-91610866D01*
X174784842Y-91635928D01*
X174899956Y-91719564D01*
X174943310Y-91775787D01*
X174949385Y-91846523D01*
X174916253Y-91909314D01*
X174854433Y-91944226D01*
X174825895Y-91947500D01*
X154050500Y-91947500D01*
X153982379Y-91927498D01*
X153935886Y-91873842D01*
X153924500Y-91821500D01*
X153924500Y-71246500D01*
X153944502Y-71178379D01*
X153998158Y-71131886D01*
X154050500Y-71120500D01*
X156782405Y-71120500D01*
X156850526Y-71140502D01*
G37*
%TD.AperFunction*%
%TA.AperFunction,Conductor*%
G36*
X168207498Y-73853402D02*
G01*
X168893117Y-74539022D01*
X169574748Y-75220653D01*
X169582288Y-75228939D01*
X169586400Y-75235418D01*
X169592177Y-75240843D01*
X169636051Y-75282043D01*
X169638893Y-75284798D01*
X169658630Y-75304535D01*
X169661827Y-75307015D01*
X169670847Y-75314718D01*
X169703079Y-75344986D01*
X169710025Y-75348805D01*
X169710028Y-75348807D01*
X169720834Y-75354748D01*
X169737353Y-75365599D01*
X169753359Y-75378014D01*
X169760628Y-75381159D01*
X169760632Y-75381162D01*
X169793937Y-75395574D01*
X169804587Y-75400791D01*
X169843340Y-75422095D01*
X169851015Y-75424066D01*
X169851016Y-75424066D01*
X169862962Y-75427133D01*
X169881666Y-75433537D01*
X169888992Y-75436707D01*
X169900255Y-75441581D01*
X169908078Y-75442820D01*
X169908088Y-75442823D01*
X169943924Y-75448499D01*
X169955544Y-75450905D01*
X169979608Y-75457083D01*
X169998370Y-75461900D01*
X170018624Y-75461900D01*
X170038334Y-75463451D01*
X170058343Y-75466620D01*
X170066235Y-75465874D01*
X170077663Y-75464794D01*
X170102362Y-75462459D01*
X170114219Y-75461900D01*
X171604900Y-75461900D01*
X171673021Y-75481902D01*
X171719514Y-75535558D01*
X171730900Y-75587900D01*
X171730900Y-76241005D01*
X171710898Y-76309126D01*
X171693995Y-76330101D01*
X171396394Y-76627701D01*
X169954499Y-78069596D01*
X169892187Y-78103621D01*
X169865404Y-78106500D01*
X169364200Y-78106500D01*
X169296079Y-78086498D01*
X169276853Y-78070157D01*
X169276580Y-78070460D01*
X169271668Y-78066037D01*
X169267253Y-78061134D01*
X169240284Y-78041540D01*
X169118094Y-77952763D01*
X169118093Y-77952762D01*
X169112752Y-77948882D01*
X169106724Y-77946198D01*
X169106722Y-77946197D01*
X168944319Y-77873891D01*
X168944318Y-77873891D01*
X168938288Y-77871206D01*
X168839788Y-77850269D01*
X168757944Y-77832872D01*
X168757939Y-77832872D01*
X168751487Y-77831500D01*
X168560513Y-77831500D01*
X168554061Y-77832872D01*
X168554056Y-77832872D01*
X168472212Y-77850269D01*
X168373712Y-77871206D01*
X168367682Y-77873891D01*
X168367681Y-77873891D01*
X168205278Y-77946197D01*
X168205276Y-77946198D01*
X168199248Y-77948882D01*
X168193907Y-77952762D01*
X168193906Y-77952763D01*
X168071716Y-78041540D01*
X168044747Y-78061134D01*
X168040332Y-78066037D01*
X168035420Y-78070460D01*
X168034295Y-78069211D01*
X167980986Y-78102051D01*
X167947800Y-78106500D01*
X166124199Y-78106500D01*
X166056078Y-78086498D01*
X166035103Y-78069595D01*
X165855618Y-77890109D01*
X165652851Y-77687342D01*
X165645317Y-77679063D01*
X165641204Y-77672582D01*
X165591552Y-77625956D01*
X165588711Y-77623202D01*
X165568974Y-77603465D01*
X165565777Y-77600985D01*
X165556755Y-77593280D01*
X165524525Y-77563014D01*
X165517579Y-77559195D01*
X165517576Y-77559193D01*
X165506770Y-77553252D01*
X165490251Y-77542401D01*
X165481921Y-77535940D01*
X165474245Y-77529986D01*
X165466976Y-77526841D01*
X165466972Y-77526838D01*
X165433667Y-77512426D01*
X165423017Y-77507209D01*
X165384264Y-77485905D01*
X165364641Y-77480867D01*
X165345938Y-77474463D01*
X165334624Y-77469567D01*
X165334623Y-77469567D01*
X165327349Y-77466419D01*
X165319526Y-77465180D01*
X165319516Y-77465177D01*
X165283680Y-77459501D01*
X165272060Y-77457095D01*
X165236915Y-77448072D01*
X165236914Y-77448072D01*
X165229234Y-77446100D01*
X165208980Y-77446100D01*
X165189269Y-77444549D01*
X165177090Y-77442620D01*
X165169261Y-77441380D01*
X165161369Y-77442126D01*
X165125243Y-77445541D01*
X165113385Y-77446100D01*
X164593982Y-77446100D01*
X164549753Y-77438082D01*
X164455713Y-77402828D01*
X164448316Y-77400055D01*
X164448485Y-77399603D01*
X164391357Y-77366969D01*
X164358535Y-77304015D01*
X164364959Y-77233309D01*
X164408589Y-77177301D01*
X164448319Y-77159155D01*
X164448316Y-77159146D01*
X164549753Y-77121119D01*
X164593982Y-77113101D01*
X165757632Y-77113101D01*
X165768815Y-77113628D01*
X165776308Y-77115303D01*
X165784234Y-77115054D01*
X165784235Y-77115054D01*
X165844385Y-77113163D01*
X165848344Y-77113101D01*
X165876255Y-77113101D01*
X165880190Y-77112604D01*
X165880255Y-77112596D01*
X165892092Y-77111663D01*
X165924350Y-77110649D01*
X165928369Y-77110523D01*
X165936288Y-77110274D01*
X165955742Y-77104622D01*
X165975099Y-77100614D01*
X165987329Y-77099069D01*
X165987330Y-77099069D01*
X165995196Y-77098075D01*
X166002567Y-77095156D01*
X166002569Y-77095156D01*
X166036311Y-77081797D01*
X166047541Y-77077952D01*
X166082382Y-77067830D01*
X166082383Y-77067830D01*
X166089992Y-77065619D01*
X166096811Y-77061586D01*
X166096816Y-77061584D01*
X166107427Y-77055308D01*
X166125175Y-77046613D01*
X166144016Y-77039153D01*
X166179786Y-77013165D01*
X166189706Y-77006649D01*
X166220934Y-76988181D01*
X166220937Y-76988179D01*
X166227761Y-76984143D01*
X166242082Y-76969822D01*
X166257116Y-76956981D01*
X166267093Y-76949732D01*
X166273506Y-76945073D01*
X166301697Y-76910996D01*
X166309687Y-76902217D01*
X167473447Y-75738457D01*
X167481737Y-75730913D01*
X167488218Y-75726800D01*
X167534859Y-75677132D01*
X167537613Y-75674291D01*
X167557334Y-75654570D01*
X167559812Y-75651375D01*
X167567518Y-75642353D01*
X167592358Y-75615901D01*
X167597786Y-75610121D01*
X167607546Y-75592368D01*
X167618399Y-75575845D01*
X167625953Y-75566106D01*
X167630813Y-75559841D01*
X167648376Y-75519257D01*
X167653583Y-75508627D01*
X167674895Y-75469860D01*
X167676866Y-75462183D01*
X167676868Y-75462178D01*
X167679932Y-75450242D01*
X167686338Y-75431530D01*
X167691234Y-75420217D01*
X167694381Y-75412945D01*
X167696306Y-75400796D01*
X167701297Y-75369281D01*
X167703704Y-75357660D01*
X167712728Y-75322511D01*
X167712728Y-75322510D01*
X167714700Y-75314830D01*
X167714700Y-75294569D01*
X167716251Y-75274858D01*
X167718050Y-75263503D01*
X167719419Y-75254857D01*
X167715259Y-75210846D01*
X167714700Y-75198989D01*
X167714700Y-74616524D01*
X167734702Y-74548403D01*
X167747058Y-74532221D01*
X167820240Y-74450944D01*
X167890772Y-74328779D01*
X167912423Y-74291279D01*
X167912424Y-74291278D01*
X167915727Y-74285556D01*
X167974742Y-74103928D01*
X167980565Y-74048531D01*
X167993093Y-73929327D01*
X168020106Y-73863670D01*
X168078328Y-73823040D01*
X168149273Y-73820337D01*
X168207498Y-73853402D01*
G37*
%TD.AperFunction*%
%TD*%
M02*
