%TF.GenerationSoftware,KiCad,Pcbnew,(6.0.9)*%
%TF.CreationDate,2023-09-05T16:32:31-05:00*%
%TF.ProjectId,Pulse_Temp,50756c73-655f-4546-956d-702e6b696361,rev?*%
%TF.SameCoordinates,Original*%
%TF.FileFunction,Legend,Top*%
%TF.FilePolarity,Positive*%
%FSLAX46Y46*%
G04 Gerber Fmt 4.6, Leading zero omitted, Abs format (unit mm)*
G04 Created by KiCad (PCBNEW (6.0.9)) date 2023-09-05 16:32:31*
%MOMM*%
%LPD*%
G01*
G04 APERTURE LIST*
%ADD10C,0.150000*%
%ADD11C,0.100000*%
%ADD12C,0.152400*%
%ADD13C,0.120000*%
%ADD14R,0.762000X0.355600*%
%ADD15R,0.762000X0.406400*%
%ADD16R,1.600200X2.489200*%
%ADD17R,1.700000X1.700000*%
%ADD18O,1.700000X1.700000*%
G04 APERTURE END LIST*
D10*
X160917576Y-83501904D02*
X160917576Y-82701904D01*
X161222338Y-82701904D01*
X161298528Y-82740000D01*
X161336623Y-82778095D01*
X161374719Y-82854285D01*
X161374719Y-82968571D01*
X161336623Y-83044761D01*
X161298528Y-83082857D01*
X161222338Y-83120952D01*
X160917576Y-83120952D01*
X161869957Y-82701904D02*
X162022338Y-82701904D01*
X162098528Y-82740000D01*
X162174719Y-82816190D01*
X162212814Y-82968571D01*
X162212814Y-83235238D01*
X162174719Y-83387619D01*
X162098528Y-83463809D01*
X162022338Y-83501904D01*
X161869957Y-83501904D01*
X161793766Y-83463809D01*
X161717576Y-83387619D01*
X161679480Y-83235238D01*
X161679480Y-82968571D01*
X161717576Y-82816190D01*
X161793766Y-82740000D01*
X161869957Y-82701904D01*
X163812814Y-83501904D02*
X163774719Y-83501904D01*
X163698528Y-83463809D01*
X163584242Y-83349523D01*
X163393766Y-83120952D01*
X163317576Y-83006666D01*
X163279480Y-82892380D01*
X163279480Y-82816190D01*
X163317576Y-82740000D01*
X163393766Y-82701904D01*
X163431861Y-82701904D01*
X163508052Y-82740000D01*
X163546147Y-82816190D01*
X163546147Y-82854285D01*
X163508052Y-82930476D01*
X163469957Y-82968571D01*
X163241385Y-83120952D01*
X163203290Y-83159047D01*
X163165195Y-83235238D01*
X163165195Y-83349523D01*
X163203290Y-83425714D01*
X163241385Y-83463809D01*
X163317576Y-83501904D01*
X163431861Y-83501904D01*
X163508052Y-83463809D01*
X163546147Y-83425714D01*
X163660433Y-83273333D01*
X163698528Y-83159047D01*
X163698528Y-83082857D01*
X164650909Y-82701904D02*
X165108052Y-82701904D01*
X164879480Y-83501904D02*
X164879480Y-82701904D01*
X165374719Y-83501904D02*
X165374719Y-82701904D01*
X165374719Y-83082857D02*
X165831861Y-83082857D01*
X165831861Y-83501904D02*
X165831861Y-82701904D01*
X166212814Y-83501904D02*
X166212814Y-82701904D01*
X166403290Y-82701904D01*
X166517576Y-82740000D01*
X166593766Y-82816190D01*
X166631861Y-82892380D01*
X166669957Y-83044761D01*
X166669957Y-83159047D01*
X166631861Y-83311428D01*
X166593766Y-83387619D01*
X166517576Y-83463809D01*
X166403290Y-83501904D01*
X166212814Y-83501904D01*
X167050909Y-83463809D02*
X167050909Y-83501904D01*
X167012814Y-83578095D01*
X166974719Y-83616190D01*
X167889004Y-82701904D02*
X168155671Y-83501904D01*
X168422338Y-82701904D01*
X168612814Y-82701904D02*
X169108052Y-82701904D01*
X168841385Y-83006666D01*
X168955671Y-83006666D01*
X169031861Y-83044761D01*
X169069957Y-83082857D01*
X169108052Y-83159047D01*
X169108052Y-83349523D01*
X169069957Y-83425714D01*
X169031861Y-83463809D01*
X168955671Y-83501904D01*
X168727100Y-83501904D01*
X168650909Y-83463809D01*
X168612814Y-83425714D01*
X169450909Y-83425714D02*
X169489004Y-83463809D01*
X169450909Y-83501904D01*
X169412814Y-83463809D01*
X169450909Y-83425714D01*
X169450909Y-83501904D01*
X169984242Y-82701904D02*
X170060433Y-82701904D01*
X170136623Y-82740000D01*
X170174719Y-82778095D01*
X170212814Y-82854285D01*
X170250909Y-83006666D01*
X170250909Y-83197142D01*
X170212814Y-83349523D01*
X170174719Y-83425714D01*
X170136623Y-83463809D01*
X170060433Y-83501904D01*
X169984242Y-83501904D01*
X169908052Y-83463809D01*
X169869957Y-83425714D01*
X169831861Y-83349523D01*
X169793766Y-83197142D01*
X169793766Y-83006666D01*
X169831861Y-82854285D01*
X169869957Y-82778095D01*
X169908052Y-82740000D01*
X169984242Y-82701904D01*
X160917576Y-84789904D02*
X160917576Y-83989904D01*
X161108052Y-83989904D01*
X161222338Y-84028000D01*
X161298528Y-84104190D01*
X161336623Y-84180380D01*
X161374719Y-84332761D01*
X161374719Y-84447047D01*
X161336623Y-84599428D01*
X161298528Y-84675619D01*
X161222338Y-84751809D01*
X161108052Y-84789904D01*
X160917576Y-84789904D01*
X162022338Y-84751809D02*
X161946147Y-84789904D01*
X161793766Y-84789904D01*
X161717576Y-84751809D01*
X161679480Y-84675619D01*
X161679480Y-84370857D01*
X161717576Y-84294666D01*
X161793766Y-84256571D01*
X161946147Y-84256571D01*
X162022338Y-84294666D01*
X162060433Y-84370857D01*
X162060433Y-84447047D01*
X161679480Y-84523238D01*
X162365195Y-84751809D02*
X162441385Y-84789904D01*
X162593766Y-84789904D01*
X162669957Y-84751809D01*
X162708052Y-84675619D01*
X162708052Y-84637523D01*
X162669957Y-84561333D01*
X162593766Y-84523238D01*
X162479480Y-84523238D01*
X162403290Y-84485142D01*
X162365195Y-84408952D01*
X162365195Y-84370857D01*
X162403290Y-84294666D01*
X162479480Y-84256571D01*
X162593766Y-84256571D01*
X162669957Y-84294666D01*
X163050909Y-84789904D02*
X163050909Y-84256571D01*
X163050909Y-83989904D02*
X163012814Y-84028000D01*
X163050909Y-84066095D01*
X163089004Y-84028000D01*
X163050909Y-83989904D01*
X163050909Y-84066095D01*
X163774719Y-84256571D02*
X163774719Y-84904190D01*
X163736623Y-84980380D01*
X163698528Y-85018476D01*
X163622338Y-85056571D01*
X163508052Y-85056571D01*
X163431861Y-85018476D01*
X163774719Y-84751809D02*
X163698528Y-84789904D01*
X163546147Y-84789904D01*
X163469957Y-84751809D01*
X163431861Y-84713714D01*
X163393766Y-84637523D01*
X163393766Y-84408952D01*
X163431861Y-84332761D01*
X163469957Y-84294666D01*
X163546147Y-84256571D01*
X163698528Y-84256571D01*
X163774719Y-84294666D01*
X164155671Y-84256571D02*
X164155671Y-84789904D01*
X164155671Y-84332761D02*
X164193766Y-84294666D01*
X164269957Y-84256571D01*
X164384242Y-84256571D01*
X164460433Y-84294666D01*
X164498528Y-84370857D01*
X164498528Y-84789904D01*
X164879480Y-84713714D02*
X164917576Y-84751809D01*
X164879480Y-84789904D01*
X164841385Y-84751809D01*
X164879480Y-84713714D01*
X164879480Y-84789904D01*
X164879480Y-84294666D02*
X164917576Y-84332761D01*
X164879480Y-84370857D01*
X164841385Y-84332761D01*
X164879480Y-84294666D01*
X164879480Y-84370857D01*
X165869957Y-84789904D02*
X165869957Y-83989904D01*
X166136623Y-84561333D01*
X166403290Y-83989904D01*
X166403290Y-84789904D01*
X167127100Y-84789904D02*
X167127100Y-84370857D01*
X167089004Y-84294666D01*
X167012814Y-84256571D01*
X166860433Y-84256571D01*
X166784242Y-84294666D01*
X167127100Y-84751809D02*
X167050909Y-84789904D01*
X166860433Y-84789904D01*
X166784242Y-84751809D01*
X166746147Y-84675619D01*
X166746147Y-84599428D01*
X166784242Y-84523238D01*
X166860433Y-84485142D01*
X167050909Y-84485142D01*
X167127100Y-84447047D01*
X167508052Y-84789904D02*
X167508052Y-83989904D01*
X167850909Y-84789904D02*
X167850909Y-84370857D01*
X167812814Y-84294666D01*
X167736623Y-84256571D01*
X167622338Y-84256571D01*
X167546147Y-84294666D01*
X167508052Y-84332761D01*
X168117576Y-84256571D02*
X168422338Y-84256571D01*
X168231861Y-84789904D02*
X168231861Y-84104190D01*
X168269957Y-84028000D01*
X168346147Y-83989904D01*
X168422338Y-83989904D01*
X169031861Y-84256571D02*
X169031861Y-84789904D01*
X168689004Y-84256571D02*
X168689004Y-84675619D01*
X168727100Y-84751809D01*
X168803290Y-84789904D01*
X168917576Y-84789904D01*
X168993766Y-84751809D01*
X169031861Y-84713714D01*
X169336623Y-84256571D02*
X169755671Y-84256571D01*
X169336623Y-84789904D01*
X169755671Y-84789904D01*
X170403290Y-84256571D02*
X170403290Y-84789904D01*
X170060433Y-84256571D02*
X170060433Y-84675619D01*
X170098528Y-84751809D01*
X170174719Y-84789904D01*
X170289004Y-84789904D01*
X170365195Y-84751809D01*
X170403290Y-84713714D01*
X170784242Y-84789904D02*
X170784242Y-84256571D01*
X170784242Y-84408952D02*
X170822338Y-84332761D01*
X170860433Y-84294666D01*
X170936623Y-84256571D01*
X171012814Y-84256571D01*
X172346147Y-84789904D02*
X172079480Y-84408952D01*
X171889004Y-84789904D02*
X171889004Y-83989904D01*
X172193766Y-83989904D01*
X172269957Y-84028000D01*
X172308052Y-84066095D01*
X172346147Y-84142285D01*
X172346147Y-84256571D01*
X172308052Y-84332761D01*
X172269957Y-84370857D01*
X172193766Y-84408952D01*
X171889004Y-84408952D01*
X173031861Y-84789904D02*
X173031861Y-84370857D01*
X172993766Y-84294666D01*
X172917576Y-84256571D01*
X172765195Y-84256571D01*
X172689004Y-84294666D01*
X173031861Y-84751809D02*
X172955671Y-84789904D01*
X172765195Y-84789904D01*
X172689004Y-84751809D01*
X172650909Y-84675619D01*
X172650909Y-84599428D01*
X172689004Y-84523238D01*
X172765195Y-84485142D01*
X172955671Y-84485142D01*
X173031861Y-84447047D01*
X173412814Y-84789904D02*
X173412814Y-83989904D01*
X173755671Y-84789904D02*
X173755671Y-84370857D01*
X173717576Y-84294666D01*
X173641385Y-84256571D01*
X173527100Y-84256571D01*
X173450909Y-84294666D01*
X173412814Y-84332761D01*
X174136623Y-84789904D02*
X174136623Y-84256571D01*
X174136623Y-84332761D02*
X174174719Y-84294666D01*
X174250909Y-84256571D01*
X174365195Y-84256571D01*
X174441385Y-84294666D01*
X174479480Y-84370857D01*
X174479480Y-84789904D01*
X174479480Y-84370857D02*
X174517576Y-84294666D01*
X174593766Y-84256571D01*
X174708052Y-84256571D01*
X174784242Y-84294666D01*
X174822338Y-84370857D01*
X174822338Y-84789904D01*
X175546147Y-84789904D02*
X175546147Y-84370857D01*
X175508052Y-84294666D01*
X175431861Y-84256571D01*
X175279480Y-84256571D01*
X175203290Y-84294666D01*
X175546147Y-84751809D02*
X175469957Y-84789904D01*
X175279480Y-84789904D01*
X175203290Y-84751809D01*
X175165195Y-84675619D01*
X175165195Y-84599428D01*
X175203290Y-84523238D01*
X175279480Y-84485142D01*
X175469957Y-84485142D01*
X175546147Y-84447047D01*
X175927100Y-84256571D02*
X175927100Y-84789904D01*
X175927100Y-84332761D02*
X175965195Y-84294666D01*
X176041385Y-84256571D01*
X176155671Y-84256571D01*
X176231861Y-84294666D01*
X176269957Y-84370857D01*
X176269957Y-84789904D01*
X160879480Y-85849333D02*
X161260433Y-85849333D01*
X160803290Y-86077904D02*
X161069957Y-85277904D01*
X161336623Y-86077904D01*
X161946147Y-86077904D02*
X161946147Y-85277904D01*
X161946147Y-86039809D02*
X161869957Y-86077904D01*
X161717576Y-86077904D01*
X161641385Y-86039809D01*
X161603290Y-86001714D01*
X161565195Y-85925523D01*
X161565195Y-85696952D01*
X161603290Y-85620761D01*
X161641385Y-85582666D01*
X161717576Y-85544571D01*
X161869957Y-85544571D01*
X161946147Y-85582666D01*
X162250909Y-85544571D02*
X162441385Y-86077904D01*
X162631861Y-85544571D01*
X162936623Y-86077904D02*
X162936623Y-85544571D01*
X162936623Y-85277904D02*
X162898528Y-85316000D01*
X162936623Y-85354095D01*
X162974719Y-85316000D01*
X162936623Y-85277904D01*
X162936623Y-85354095D01*
X163279480Y-86039809D02*
X163355671Y-86077904D01*
X163508052Y-86077904D01*
X163584242Y-86039809D01*
X163622338Y-85963619D01*
X163622338Y-85925523D01*
X163584242Y-85849333D01*
X163508052Y-85811238D01*
X163393766Y-85811238D01*
X163317576Y-85773142D01*
X163279480Y-85696952D01*
X163279480Y-85658857D01*
X163317576Y-85582666D01*
X163393766Y-85544571D01*
X163508052Y-85544571D01*
X163584242Y-85582666D01*
X164079480Y-86077904D02*
X164003290Y-86039809D01*
X163965195Y-86001714D01*
X163927100Y-85925523D01*
X163927100Y-85696952D01*
X163965195Y-85620761D01*
X164003290Y-85582666D01*
X164079480Y-85544571D01*
X164193766Y-85544571D01*
X164269957Y-85582666D01*
X164308052Y-85620761D01*
X164346147Y-85696952D01*
X164346147Y-85925523D01*
X164308052Y-86001714D01*
X164269957Y-86039809D01*
X164193766Y-86077904D01*
X164079480Y-86077904D01*
X164689004Y-86077904D02*
X164689004Y-85544571D01*
X164689004Y-85696952D02*
X164727100Y-85620761D01*
X164765195Y-85582666D01*
X164841385Y-85544571D01*
X164917576Y-85544571D01*
X165184242Y-86001714D02*
X165222338Y-86039809D01*
X165184242Y-86077904D01*
X165146147Y-86039809D01*
X165184242Y-86001714D01*
X165184242Y-86077904D01*
X165184242Y-85582666D02*
X165222338Y-85620761D01*
X165184242Y-85658857D01*
X165146147Y-85620761D01*
X165184242Y-85582666D01*
X165184242Y-85658857D01*
X166174719Y-86077904D02*
X166174719Y-85277904D01*
X166365195Y-85277904D01*
X166479480Y-85316000D01*
X166555671Y-85392190D01*
X166593766Y-85468380D01*
X166631861Y-85620761D01*
X166631861Y-85735047D01*
X166593766Y-85887428D01*
X166555671Y-85963619D01*
X166479480Y-86039809D01*
X166365195Y-86077904D01*
X166174719Y-86077904D01*
X166974719Y-86077904D02*
X166974719Y-85544571D01*
X166974719Y-85696952D02*
X167012814Y-85620761D01*
X167050909Y-85582666D01*
X167127100Y-85544571D01*
X167203290Y-85544571D01*
X167469957Y-86001714D02*
X167508052Y-86039809D01*
X167469957Y-86077904D01*
X167431861Y-86039809D01*
X167469957Y-86001714D01*
X167469957Y-86077904D01*
X168727100Y-85658857D02*
X168841385Y-85696952D01*
X168879480Y-85735047D01*
X168917576Y-85811238D01*
X168917576Y-85925523D01*
X168879480Y-86001714D01*
X168841385Y-86039809D01*
X168765195Y-86077904D01*
X168460433Y-86077904D01*
X168460433Y-85277904D01*
X168727100Y-85277904D01*
X168803290Y-85316000D01*
X168841385Y-85354095D01*
X168879480Y-85430285D01*
X168879480Y-85506476D01*
X168841385Y-85582666D01*
X168803290Y-85620761D01*
X168727100Y-85658857D01*
X168460433Y-85658857D01*
X169603290Y-86077904D02*
X169603290Y-85658857D01*
X169565195Y-85582666D01*
X169489004Y-85544571D01*
X169336623Y-85544571D01*
X169260433Y-85582666D01*
X169603290Y-86039809D02*
X169527100Y-86077904D01*
X169336623Y-86077904D01*
X169260433Y-86039809D01*
X169222338Y-85963619D01*
X169222338Y-85887428D01*
X169260433Y-85811238D01*
X169336623Y-85773142D01*
X169527100Y-85773142D01*
X169603290Y-85735047D01*
X169946147Y-86039809D02*
X170022338Y-86077904D01*
X170174719Y-86077904D01*
X170250909Y-86039809D01*
X170289004Y-85963619D01*
X170289004Y-85925523D01*
X170250909Y-85849333D01*
X170174719Y-85811238D01*
X170060433Y-85811238D01*
X169984242Y-85773142D01*
X169946147Y-85696952D01*
X169946147Y-85658857D01*
X169984242Y-85582666D01*
X170060433Y-85544571D01*
X170174719Y-85544571D01*
X170250909Y-85582666D01*
X170631861Y-86077904D02*
X170631861Y-85277904D01*
X170974719Y-86077904D02*
X170974719Y-85658857D01*
X170936623Y-85582666D01*
X170860433Y-85544571D01*
X170746147Y-85544571D01*
X170669957Y-85582666D01*
X170631861Y-85620761D01*
X171355671Y-86077904D02*
X171355671Y-85544571D01*
X171355671Y-85277904D02*
X171317576Y-85316000D01*
X171355671Y-85354095D01*
X171393766Y-85316000D01*
X171355671Y-85277904D01*
X171355671Y-85354095D01*
X171736623Y-86077904D02*
X171736623Y-85544571D01*
X171736623Y-85696952D02*
X171774719Y-85620761D01*
X171812814Y-85582666D01*
X171889004Y-85544571D01*
X171965195Y-85544571D01*
X172841385Y-86077904D02*
X172841385Y-85277904D01*
X173222338Y-86001714D02*
X173260433Y-86039809D01*
X173222338Y-86077904D01*
X173184242Y-86039809D01*
X173222338Y-86001714D01*
X173222338Y-86077904D01*
X174212814Y-86077904D02*
X174212814Y-85277904D01*
X174479480Y-85849333D01*
X174746147Y-85277904D01*
X174746147Y-86077904D01*
X175241385Y-86077904D02*
X175165195Y-86039809D01*
X175127100Y-86001714D01*
X175089004Y-85925523D01*
X175089004Y-85696952D01*
X175127100Y-85620761D01*
X175165195Y-85582666D01*
X175241385Y-85544571D01*
X175355671Y-85544571D01*
X175431861Y-85582666D01*
X175469957Y-85620761D01*
X175508052Y-85696952D01*
X175508052Y-85925523D01*
X175469957Y-86001714D01*
X175431861Y-86039809D01*
X175355671Y-86077904D01*
X175241385Y-86077904D01*
X175850909Y-86077904D02*
X175850909Y-85544571D01*
X175850909Y-85696952D02*
X175889004Y-85620761D01*
X175927100Y-85582666D01*
X176003290Y-85544571D01*
X176079480Y-85544571D01*
X176308052Y-86039809D02*
X176384242Y-86077904D01*
X176536623Y-86077904D01*
X176612814Y-86039809D01*
X176650909Y-85963619D01*
X176650909Y-85925523D01*
X176612814Y-85849333D01*
X176536623Y-85811238D01*
X176422338Y-85811238D01*
X176346147Y-85773142D01*
X176308052Y-85696952D01*
X176308052Y-85658857D01*
X176346147Y-85582666D01*
X176422338Y-85544571D01*
X176536623Y-85544571D01*
X176612814Y-85582666D01*
X176993766Y-86077904D02*
X176993766Y-85277904D01*
X177336623Y-86077904D02*
X177336623Y-85658857D01*
X177298528Y-85582666D01*
X177222338Y-85544571D01*
X177108052Y-85544571D01*
X177031861Y-85582666D01*
X176993766Y-85620761D01*
X178022338Y-86039809D02*
X177946147Y-86077904D01*
X177793766Y-86077904D01*
X177717576Y-86039809D01*
X177679480Y-85963619D01*
X177679480Y-85658857D01*
X177717576Y-85582666D01*
X177793766Y-85544571D01*
X177946147Y-85544571D01*
X178022338Y-85582666D01*
X178060433Y-85658857D01*
X178060433Y-85735047D01*
X177679480Y-85811238D01*
X178746147Y-86077904D02*
X178746147Y-85277904D01*
X178746147Y-86039809D02*
X178669957Y-86077904D01*
X178517576Y-86077904D01*
X178441385Y-86039809D01*
X178403290Y-86001714D01*
X178365195Y-85925523D01*
X178365195Y-85696952D01*
X178403290Y-85620761D01*
X178441385Y-85582666D01*
X178517576Y-85544571D01*
X178669957Y-85544571D01*
X178746147Y-85582666D01*
X161298528Y-87365904D02*
X160917576Y-87365904D01*
X160917576Y-86565904D01*
X161908052Y-87365904D02*
X161908052Y-86946857D01*
X161869957Y-86870666D01*
X161793766Y-86832571D01*
X161641385Y-86832571D01*
X161565195Y-86870666D01*
X161908052Y-87327809D02*
X161831861Y-87365904D01*
X161641385Y-87365904D01*
X161565195Y-87327809D01*
X161527100Y-87251619D01*
X161527100Y-87175428D01*
X161565195Y-87099238D01*
X161641385Y-87061142D01*
X161831861Y-87061142D01*
X161908052Y-87023047D01*
X162289004Y-87365904D02*
X162289004Y-86565904D01*
X162289004Y-86870666D02*
X162365195Y-86832571D01*
X162517576Y-86832571D01*
X162593766Y-86870666D01*
X162631861Y-86908761D01*
X162669957Y-86984952D01*
X162669957Y-87213523D01*
X162631861Y-87289714D01*
X162593766Y-87327809D01*
X162517576Y-87365904D01*
X162365195Y-87365904D01*
X162289004Y-87327809D01*
X163317576Y-87327809D02*
X163241385Y-87365904D01*
X163089004Y-87365904D01*
X163012814Y-87327809D01*
X162974719Y-87251619D01*
X162974719Y-86946857D01*
X163012814Y-86870666D01*
X163089004Y-86832571D01*
X163241385Y-86832571D01*
X163317576Y-86870666D01*
X163355671Y-86946857D01*
X163355671Y-87023047D01*
X162974719Y-87099238D01*
X163812814Y-87365904D02*
X163736623Y-87327809D01*
X163698528Y-87251619D01*
X163698528Y-86565904D01*
X164117576Y-87289714D02*
X164155671Y-87327809D01*
X164117576Y-87365904D01*
X164079480Y-87327809D01*
X164117576Y-87289714D01*
X164117576Y-87365904D01*
X164117576Y-86870666D02*
X164155671Y-86908761D01*
X164117576Y-86946857D01*
X164079480Y-86908761D01*
X164117576Y-86870666D01*
X164117576Y-86946857D01*
X160803290Y-87853904D02*
X161260433Y-87853904D01*
X161031861Y-88653904D02*
X161031861Y-87853904D01*
X161336623Y-88730095D02*
X161946147Y-88730095D01*
X162746147Y-88577714D02*
X162784242Y-88615809D01*
X162746147Y-88653904D01*
X162708052Y-88615809D01*
X162746147Y-88577714D01*
X162746147Y-88653904D01*
X162746147Y-88158666D02*
X162784242Y-88196761D01*
X162746147Y-88234857D01*
X162708052Y-88196761D01*
X162746147Y-88158666D01*
X162746147Y-88234857D01*
X163622338Y-87853904D02*
X164079480Y-87853904D01*
X163850909Y-88653904D02*
X163850909Y-87853904D01*
X164650909Y-88615809D02*
X164574719Y-88653904D01*
X164422338Y-88653904D01*
X164346147Y-88615809D01*
X164308052Y-88539619D01*
X164308052Y-88234857D01*
X164346147Y-88158666D01*
X164422338Y-88120571D01*
X164574719Y-88120571D01*
X164650909Y-88158666D01*
X164689004Y-88234857D01*
X164689004Y-88311047D01*
X164308052Y-88387238D01*
X165031861Y-88653904D02*
X165031861Y-88120571D01*
X165031861Y-88196761D02*
X165069957Y-88158666D01*
X165146147Y-88120571D01*
X165260433Y-88120571D01*
X165336623Y-88158666D01*
X165374719Y-88234857D01*
X165374719Y-88653904D01*
X165374719Y-88234857D02*
X165412814Y-88158666D01*
X165489004Y-88120571D01*
X165603290Y-88120571D01*
X165679480Y-88158666D01*
X165717576Y-88234857D01*
X165717576Y-88653904D01*
X166098528Y-88120571D02*
X166098528Y-88920571D01*
X166098528Y-88158666D02*
X166174719Y-88120571D01*
X166327100Y-88120571D01*
X166403290Y-88158666D01*
X166441385Y-88196761D01*
X166479480Y-88272952D01*
X166479480Y-88501523D01*
X166441385Y-88577714D01*
X166403290Y-88615809D01*
X166327100Y-88653904D01*
X166174719Y-88653904D01*
X166098528Y-88615809D01*
X167127100Y-88615809D02*
X167050909Y-88653904D01*
X166898528Y-88653904D01*
X166822338Y-88615809D01*
X166784242Y-88539619D01*
X166784242Y-88234857D01*
X166822338Y-88158666D01*
X166898528Y-88120571D01*
X167050909Y-88120571D01*
X167127100Y-88158666D01*
X167165195Y-88234857D01*
X167165195Y-88311047D01*
X166784242Y-88387238D01*
X167508052Y-88653904D02*
X167508052Y-88120571D01*
X167508052Y-88272952D02*
X167546147Y-88196761D01*
X167584242Y-88158666D01*
X167660433Y-88120571D01*
X167736623Y-88120571D01*
X168346147Y-88653904D02*
X168346147Y-88234857D01*
X168308052Y-88158666D01*
X168231861Y-88120571D01*
X168079480Y-88120571D01*
X168003290Y-88158666D01*
X168346147Y-88615809D02*
X168269957Y-88653904D01*
X168079480Y-88653904D01*
X168003290Y-88615809D01*
X167965195Y-88539619D01*
X167965195Y-88463428D01*
X168003290Y-88387238D01*
X168079480Y-88349142D01*
X168269957Y-88349142D01*
X168346147Y-88311047D01*
X168612814Y-88120571D02*
X168917576Y-88120571D01*
X168727100Y-87853904D02*
X168727100Y-88539619D01*
X168765195Y-88615809D01*
X168841385Y-88653904D01*
X168917576Y-88653904D01*
X169527100Y-88120571D02*
X169527100Y-88653904D01*
X169184242Y-88120571D02*
X169184242Y-88539619D01*
X169222338Y-88615809D01*
X169298528Y-88653904D01*
X169412814Y-88653904D01*
X169489004Y-88615809D01*
X169527100Y-88577714D01*
X169908052Y-88653904D02*
X169908052Y-88120571D01*
X169908052Y-88272952D02*
X169946147Y-88196761D01*
X169984242Y-88158666D01*
X170060433Y-88120571D01*
X170136623Y-88120571D01*
X170708052Y-88615809D02*
X170631861Y-88653904D01*
X170479480Y-88653904D01*
X170403290Y-88615809D01*
X170365195Y-88539619D01*
X170365195Y-88234857D01*
X170403290Y-88158666D01*
X170479480Y-88120571D01*
X170631861Y-88120571D01*
X170708052Y-88158666D01*
X170746147Y-88234857D01*
X170746147Y-88311047D01*
X170365195Y-88387238D01*
X172346147Y-88653904D02*
X172308052Y-88653904D01*
X172231861Y-88615809D01*
X172117576Y-88501523D01*
X171927100Y-88272952D01*
X171850909Y-88158666D01*
X171812814Y-88044380D01*
X171812814Y-87968190D01*
X171850909Y-87892000D01*
X171927100Y-87853904D01*
X171965195Y-87853904D01*
X172041385Y-87892000D01*
X172079480Y-87968190D01*
X172079480Y-88006285D01*
X172041385Y-88082476D01*
X172003290Y-88120571D01*
X171774719Y-88272952D01*
X171736623Y-88311047D01*
X171698528Y-88387238D01*
X171698528Y-88501523D01*
X171736623Y-88577714D01*
X171774719Y-88615809D01*
X171850909Y-88653904D01*
X171965195Y-88653904D01*
X172041385Y-88615809D01*
X172079480Y-88577714D01*
X172193766Y-88425333D01*
X172231861Y-88311047D01*
X172231861Y-88234857D01*
X173298528Y-88653904D02*
X173298528Y-87853904D01*
X173298528Y-88234857D02*
X173755671Y-88234857D01*
X173755671Y-88653904D02*
X173755671Y-87853904D01*
X174479480Y-88120571D02*
X174479480Y-88653904D01*
X174136623Y-88120571D02*
X174136623Y-88539619D01*
X174174719Y-88615809D01*
X174250909Y-88653904D01*
X174365195Y-88653904D01*
X174441385Y-88615809D01*
X174479480Y-88577714D01*
X174860433Y-88653904D02*
X174860433Y-88120571D01*
X174860433Y-88196761D02*
X174898528Y-88158666D01*
X174974719Y-88120571D01*
X175089004Y-88120571D01*
X175165195Y-88158666D01*
X175203290Y-88234857D01*
X175203290Y-88653904D01*
X175203290Y-88234857D02*
X175241385Y-88158666D01*
X175317576Y-88120571D01*
X175431861Y-88120571D01*
X175508052Y-88158666D01*
X175546147Y-88234857D01*
X175546147Y-88653904D01*
X175927100Y-88653904D02*
X175927100Y-88120571D01*
X175927100Y-87853904D02*
X175889004Y-87892000D01*
X175927100Y-87930095D01*
X175965195Y-87892000D01*
X175927100Y-87853904D01*
X175927100Y-87930095D01*
X176650909Y-88653904D02*
X176650909Y-87853904D01*
X176650909Y-88615809D02*
X176574719Y-88653904D01*
X176422338Y-88653904D01*
X176346147Y-88615809D01*
X176308052Y-88577714D01*
X176269957Y-88501523D01*
X176269957Y-88272952D01*
X176308052Y-88196761D01*
X176346147Y-88158666D01*
X176422338Y-88120571D01*
X176574719Y-88120571D01*
X176650909Y-88158666D01*
X177031861Y-88653904D02*
X177031861Y-88120571D01*
X177031861Y-87853904D02*
X176993766Y-87892000D01*
X177031861Y-87930095D01*
X177069957Y-87892000D01*
X177031861Y-87853904D01*
X177031861Y-87930095D01*
X177298528Y-88120571D02*
X177603290Y-88120571D01*
X177412814Y-87853904D02*
X177412814Y-88539619D01*
X177450909Y-88615809D01*
X177527100Y-88653904D01*
X177603290Y-88653904D01*
X177793766Y-88120571D02*
X177984242Y-88653904D01*
X178174719Y-88120571D02*
X177984242Y-88653904D01*
X177908052Y-88844380D01*
X177869957Y-88882476D01*
X177793766Y-88920571D01*
X160917576Y-89941904D02*
X160917576Y-89141904D01*
X161222338Y-89141904D01*
X161298528Y-89180000D01*
X161336623Y-89218095D01*
X161374719Y-89294285D01*
X161374719Y-89408571D01*
X161336623Y-89484761D01*
X161298528Y-89522857D01*
X161222338Y-89560952D01*
X160917576Y-89560952D01*
X161527100Y-90018095D02*
X162136623Y-90018095D01*
X162936623Y-89865714D02*
X162974719Y-89903809D01*
X162936623Y-89941904D01*
X162898528Y-89903809D01*
X162936623Y-89865714D01*
X162936623Y-89941904D01*
X162936623Y-89446666D02*
X162974719Y-89484761D01*
X162936623Y-89522857D01*
X162898528Y-89484761D01*
X162936623Y-89446666D01*
X162936623Y-89522857D01*
X163927100Y-89941904D02*
X163927100Y-89141904D01*
X164231861Y-89141904D01*
X164308052Y-89180000D01*
X164346147Y-89218095D01*
X164384242Y-89294285D01*
X164384242Y-89408571D01*
X164346147Y-89484761D01*
X164308052Y-89522857D01*
X164231861Y-89560952D01*
X163927100Y-89560952D01*
X165069957Y-89408571D02*
X165069957Y-89941904D01*
X164727100Y-89408571D02*
X164727100Y-89827619D01*
X164765195Y-89903809D01*
X164841385Y-89941904D01*
X164955671Y-89941904D01*
X165031861Y-89903809D01*
X165069957Y-89865714D01*
X165565195Y-89941904D02*
X165489004Y-89903809D01*
X165450909Y-89827619D01*
X165450909Y-89141904D01*
X165831861Y-89903809D02*
X165908052Y-89941904D01*
X166060433Y-89941904D01*
X166136623Y-89903809D01*
X166174719Y-89827619D01*
X166174719Y-89789523D01*
X166136623Y-89713333D01*
X166060433Y-89675238D01*
X165946147Y-89675238D01*
X165869957Y-89637142D01*
X165831861Y-89560952D01*
X165831861Y-89522857D01*
X165869957Y-89446666D01*
X165946147Y-89408571D01*
X166060433Y-89408571D01*
X166136623Y-89446666D01*
X166822338Y-89903809D02*
X166746147Y-89941904D01*
X166593766Y-89941904D01*
X166517576Y-89903809D01*
X166479480Y-89827619D01*
X166479480Y-89522857D01*
X166517576Y-89446666D01*
X166593766Y-89408571D01*
X166746147Y-89408571D01*
X166822338Y-89446666D01*
X166860433Y-89522857D01*
X166860433Y-89599047D01*
X166479480Y-89675238D01*
X167927100Y-89941904D02*
X167850909Y-89903809D01*
X167812814Y-89865714D01*
X167774719Y-89789523D01*
X167774719Y-89560952D01*
X167812814Y-89484761D01*
X167850909Y-89446666D01*
X167927100Y-89408571D01*
X168041385Y-89408571D01*
X168117576Y-89446666D01*
X168155671Y-89484761D01*
X168193766Y-89560952D01*
X168193766Y-89789523D01*
X168155671Y-89865714D01*
X168117576Y-89903809D01*
X168041385Y-89941904D01*
X167927100Y-89941904D01*
X168460433Y-89941904D02*
X168879480Y-89408571D01*
X168460433Y-89408571D02*
X168879480Y-89941904D01*
X169184242Y-89941904D02*
X169184242Y-89408571D01*
X169184242Y-89141904D02*
X169146147Y-89180000D01*
X169184242Y-89218095D01*
X169222338Y-89180000D01*
X169184242Y-89141904D01*
X169184242Y-89218095D01*
X169565195Y-89941904D02*
X169565195Y-89408571D01*
X169565195Y-89484761D02*
X169603290Y-89446666D01*
X169679480Y-89408571D01*
X169793766Y-89408571D01*
X169869957Y-89446666D01*
X169908052Y-89522857D01*
X169908052Y-89941904D01*
X169908052Y-89522857D02*
X169946147Y-89446666D01*
X170022338Y-89408571D01*
X170136623Y-89408571D01*
X170212814Y-89446666D01*
X170250909Y-89522857D01*
X170250909Y-89941904D01*
X170936623Y-89903809D02*
X170860433Y-89941904D01*
X170708052Y-89941904D01*
X170631861Y-89903809D01*
X170593766Y-89827619D01*
X170593766Y-89522857D01*
X170631861Y-89446666D01*
X170708052Y-89408571D01*
X170860433Y-89408571D01*
X170936623Y-89446666D01*
X170974719Y-89522857D01*
X170974719Y-89599047D01*
X170593766Y-89675238D01*
X171203290Y-89408571D02*
X171508052Y-89408571D01*
X171317576Y-89141904D02*
X171317576Y-89827619D01*
X171355671Y-89903809D01*
X171431861Y-89941904D01*
X171508052Y-89941904D01*
X172079480Y-89903809D02*
X172003290Y-89941904D01*
X171850909Y-89941904D01*
X171774719Y-89903809D01*
X171736623Y-89827619D01*
X171736623Y-89522857D01*
X171774719Y-89446666D01*
X171850909Y-89408571D01*
X172003290Y-89408571D01*
X172079480Y-89446666D01*
X172117576Y-89522857D01*
X172117576Y-89599047D01*
X171736623Y-89675238D01*
X172460433Y-89941904D02*
X172460433Y-89408571D01*
X172460433Y-89560952D02*
X172498528Y-89484761D01*
X172536623Y-89446666D01*
X172612814Y-89408571D01*
X172689004Y-89408571D01*
D11*
X157536533Y-78447066D02*
X157536533Y-77747066D01*
X157803200Y-77747066D01*
X157869866Y-77780400D01*
X157903200Y-77813733D01*
X157936533Y-77880400D01*
X157936533Y-77980400D01*
X157903200Y-78047066D01*
X157869866Y-78080400D01*
X157803200Y-78113733D01*
X157536533Y-78113733D01*
X158069866Y-78513733D02*
X158603200Y-78513733D01*
X158736533Y-78413733D02*
X158836533Y-78447066D01*
X159003200Y-78447066D01*
X159069866Y-78413733D01*
X159103200Y-78380400D01*
X159136533Y-78313733D01*
X159136533Y-78247066D01*
X159103200Y-78180400D01*
X159069866Y-78147066D01*
X159003200Y-78113733D01*
X158869866Y-78080400D01*
X158803200Y-78047066D01*
X158769866Y-78013733D01*
X158736533Y-77947066D01*
X158736533Y-77880400D01*
X158769866Y-77813733D01*
X158803200Y-77780400D01*
X158869866Y-77747066D01*
X159036533Y-77747066D01*
X159136533Y-77780400D01*
X159836533Y-78380400D02*
X159803200Y-78413733D01*
X159703200Y-78447066D01*
X159636533Y-78447066D01*
X159536533Y-78413733D01*
X159469866Y-78347066D01*
X159436533Y-78280400D01*
X159403200Y-78147066D01*
X159403200Y-78047066D01*
X159436533Y-77913733D01*
X159469866Y-77847066D01*
X159536533Y-77780400D01*
X159636533Y-77747066D01*
X159703200Y-77747066D01*
X159803200Y-77780400D01*
X159836533Y-77813733D01*
X160469866Y-78447066D02*
X160136533Y-78447066D01*
X160136533Y-77747066D01*
X158224533Y-83492133D02*
X158157866Y-83492133D01*
X158091200Y-83458800D01*
X158057866Y-83425466D01*
X158024533Y-83358800D01*
X157991200Y-83225466D01*
X157991200Y-83058800D01*
X158024533Y-82925466D01*
X158057866Y-82858800D01*
X158091200Y-82825466D01*
X158157866Y-82792133D01*
X158224533Y-82792133D01*
X158291200Y-82825466D01*
X158324533Y-82858800D01*
X158357866Y-82925466D01*
X158391200Y-83058800D01*
X158391200Y-83225466D01*
X158357866Y-83358800D01*
X158324533Y-83425466D01*
X158291200Y-83458800D01*
X158224533Y-83492133D01*
X157553571Y-80120520D02*
X157986905Y-80120520D01*
X157753571Y-80387187D01*
X157853571Y-80387187D01*
X157920238Y-80420520D01*
X157953571Y-80453854D01*
X157986905Y-80520520D01*
X157986905Y-80687187D01*
X157953571Y-80753854D01*
X157920238Y-80787187D01*
X157853571Y-80820520D01*
X157653571Y-80820520D01*
X157586905Y-80787187D01*
X157553571Y-80753854D01*
X158186905Y-80120520D02*
X158420238Y-80820520D01*
X158653571Y-80120520D01*
X158391534Y-74197766D02*
X157691534Y-74197766D01*
X157691534Y-73931099D01*
X157724868Y-73864432D01*
X157758201Y-73831099D01*
X157824868Y-73797766D01*
X157924868Y-73797766D01*
X157991534Y-73831099D01*
X158024868Y-73864432D01*
X158058201Y-73931099D01*
X158058201Y-74197766D01*
X158458201Y-73664432D02*
X158458201Y-73131099D01*
X158391534Y-72964432D02*
X157691534Y-72964432D01*
X158391534Y-72631099D02*
X157691534Y-72631099D01*
X158391534Y-72231099D01*
X157691534Y-72231099D01*
X157691534Y-71997766D02*
X157691534Y-71597766D01*
X158391534Y-71797766D02*
X157691534Y-71797766D01*
X157602813Y-85028850D02*
X158002813Y-85028850D01*
X157802813Y-85728850D02*
X157802813Y-85028850D01*
X158069479Y-85795517D02*
X158602813Y-85795517D01*
X158736146Y-85695517D02*
X158836146Y-85728850D01*
X159002813Y-85728850D01*
X159069479Y-85695517D01*
X159102813Y-85662184D01*
X159136146Y-85595517D01*
X159136146Y-85528850D01*
X159102813Y-85462184D01*
X159069479Y-85428850D01*
X159002813Y-85395517D01*
X158869479Y-85362184D01*
X158802813Y-85328850D01*
X158769479Y-85295517D01*
X158736146Y-85228850D01*
X158736146Y-85162184D01*
X158769479Y-85095517D01*
X158802813Y-85062184D01*
X158869479Y-85028850D01*
X159036146Y-85028850D01*
X159136146Y-85062184D01*
X159436146Y-85728850D02*
X159436146Y-85028850D01*
X159602813Y-85028850D01*
X159702813Y-85062184D01*
X159769479Y-85128850D01*
X159802813Y-85195517D01*
X159836146Y-85328850D01*
X159836146Y-85428850D01*
X159802813Y-85562184D01*
X159769479Y-85628850D01*
X159702813Y-85695517D01*
X159602813Y-85728850D01*
X159436146Y-85728850D01*
X160102813Y-85528850D02*
X160436146Y-85528850D01*
X160036146Y-85728850D02*
X160269479Y-85028850D01*
X160502813Y-85728850D01*
X157367466Y-88161066D02*
X157767466Y-88161066D01*
X157567466Y-88861066D02*
X157567466Y-88161066D01*
X157834133Y-88927733D02*
X158367466Y-88927733D01*
X158500800Y-88827733D02*
X158600800Y-88861066D01*
X158767466Y-88861066D01*
X158834133Y-88827733D01*
X158867466Y-88794400D01*
X158900800Y-88727733D01*
X158900800Y-88661066D01*
X158867466Y-88594400D01*
X158834133Y-88561066D01*
X158767466Y-88527733D01*
X158634133Y-88494400D01*
X158567466Y-88461066D01*
X158534133Y-88427733D01*
X158500800Y-88361066D01*
X158500800Y-88294400D01*
X158534133Y-88227733D01*
X158567466Y-88194400D01*
X158634133Y-88161066D01*
X158800800Y-88161066D01*
X158900800Y-88194400D01*
X159600800Y-88794400D02*
X159567466Y-88827733D01*
X159467466Y-88861066D01*
X159400800Y-88861066D01*
X159300800Y-88827733D01*
X159234133Y-88761066D01*
X159200800Y-88694400D01*
X159167466Y-88561066D01*
X159167466Y-88461066D01*
X159200800Y-88327733D01*
X159234133Y-88261066D01*
X159300800Y-88194400D01*
X159400800Y-88161066D01*
X159467466Y-88161066D01*
X159567466Y-88194400D01*
X159600800Y-88227733D01*
X160234133Y-88861066D02*
X159900800Y-88861066D01*
X159900800Y-88161066D01*
X157573790Y-75918190D02*
X157573790Y-75418190D01*
X157764266Y-75418190D01*
X157811885Y-75442000D01*
X157835695Y-75465809D01*
X157859504Y-75513428D01*
X157859504Y-75584857D01*
X157835695Y-75632476D01*
X157811885Y-75656285D01*
X157764266Y-75680095D01*
X157573790Y-75680095D01*
X157954742Y-75965809D02*
X158335695Y-75965809D01*
X158430933Y-75894380D02*
X158502361Y-75918190D01*
X158621409Y-75918190D01*
X158669028Y-75894380D01*
X158692838Y-75870571D01*
X158716647Y-75822952D01*
X158716647Y-75775333D01*
X158692838Y-75727714D01*
X158669028Y-75703904D01*
X158621409Y-75680095D01*
X158526171Y-75656285D01*
X158478552Y-75632476D01*
X158454742Y-75608666D01*
X158430933Y-75561047D01*
X158430933Y-75513428D01*
X158454742Y-75465809D01*
X158478552Y-75442000D01*
X158526171Y-75418190D01*
X158645219Y-75418190D01*
X158716647Y-75442000D01*
X158930933Y-75918190D02*
X158930933Y-75418190D01*
X159049980Y-75418190D01*
X159121409Y-75442000D01*
X159169028Y-75489619D01*
X159192838Y-75537238D01*
X159216647Y-75632476D01*
X159216647Y-75703904D01*
X159192838Y-75799142D01*
X159169028Y-75846761D01*
X159121409Y-75894380D01*
X159049980Y-75918190D01*
X158930933Y-75918190D01*
X159407123Y-75775333D02*
X159645219Y-75775333D01*
X159359504Y-75918190D02*
X159526171Y-75418190D01*
X159692838Y-75918190D01*
D10*
%TO.C,PO*%
X160707485Y-74569580D02*
X160707485Y-73569580D01*
X161088438Y-73569580D01*
X161183676Y-73617200D01*
X161231295Y-73664819D01*
X161278914Y-73760057D01*
X161278914Y-73902914D01*
X161231295Y-73998152D01*
X161183676Y-74045771D01*
X161088438Y-74093390D01*
X160707485Y-74093390D01*
X161897961Y-73569580D02*
X162088438Y-73569580D01*
X162183676Y-73617200D01*
X162278914Y-73712438D01*
X162326533Y-73902914D01*
X162326533Y-74236247D01*
X162278914Y-74426723D01*
X162183676Y-74521961D01*
X162088438Y-74569580D01*
X161897961Y-74569580D01*
X161802723Y-74521961D01*
X161707485Y-74426723D01*
X161659866Y-74236247D01*
X161659866Y-73902914D01*
X161707485Y-73712438D01*
X161802723Y-73617200D01*
X161897961Y-73569580D01*
%TO.C,THD1*%
X171156380Y-80779714D02*
X171156380Y-80208285D01*
X172156380Y-80494000D02*
X171156380Y-80494000D01*
X172156380Y-79874952D02*
X171156380Y-79874952D01*
X171632571Y-79874952D02*
X171632571Y-79303523D01*
X172156380Y-79303523D02*
X171156380Y-79303523D01*
X172156380Y-78827333D02*
X171156380Y-78827333D01*
X171156380Y-78589238D01*
X171204000Y-78446380D01*
X171299238Y-78351142D01*
X171394476Y-78303523D01*
X171584952Y-78255904D01*
X171727809Y-78255904D01*
X171918285Y-78303523D01*
X172013523Y-78351142D01*
X172108761Y-78446380D01*
X172156380Y-78589238D01*
X172156380Y-78827333D01*
X172156380Y-77303523D02*
X172156380Y-77874952D01*
X172156380Y-77589238D02*
X171156380Y-77589238D01*
X171299238Y-77684476D01*
X171394476Y-77779714D01*
X171442095Y-77874952D01*
X175260000Y-78192380D02*
X175260000Y-78430476D01*
X175021904Y-78335238D02*
X175260000Y-78430476D01*
X175498095Y-78335238D01*
X175117142Y-78620952D02*
X175260000Y-78430476D01*
X175402857Y-78620952D01*
%TO.C,3V*%
X179527295Y-81297980D02*
X180146342Y-81297980D01*
X179813009Y-81678933D01*
X179955866Y-81678933D01*
X180051104Y-81726552D01*
X180098723Y-81774171D01*
X180146342Y-81869409D01*
X180146342Y-82107504D01*
X180098723Y-82202742D01*
X180051104Y-82250361D01*
X179955866Y-82297980D01*
X179670152Y-82297980D01*
X179574914Y-82250361D01*
X179527295Y-82202742D01*
X180432057Y-81297980D02*
X180765390Y-82297980D01*
X181098723Y-81297980D01*
%TO.C,5V*%
X180098723Y-76116380D02*
X179622533Y-76116380D01*
X179574914Y-76592571D01*
X179622533Y-76544952D01*
X179717771Y-76497333D01*
X179955866Y-76497333D01*
X180051104Y-76544952D01*
X180098723Y-76592571D01*
X180146342Y-76687809D01*
X180146342Y-76925904D01*
X180098723Y-77021142D01*
X180051104Y-77068761D01*
X179955866Y-77116380D01*
X179717771Y-77116380D01*
X179622533Y-77068761D01*
X179574914Y-77021142D01*
X180432057Y-76116380D02*
X180765390Y-77116380D01*
X181098723Y-76116380D01*
%TO.C,1.8V*%
X179228857Y-71782380D02*
X178657428Y-71782380D01*
X178943142Y-71782380D02*
X178943142Y-70782380D01*
X178847904Y-70925238D01*
X178752666Y-71020476D01*
X178657428Y-71068095D01*
X179657428Y-71687142D02*
X179705047Y-71734761D01*
X179657428Y-71782380D01*
X179609809Y-71734761D01*
X179657428Y-71687142D01*
X179657428Y-71782380D01*
X180276476Y-71210952D02*
X180181238Y-71163333D01*
X180133619Y-71115714D01*
X180086000Y-71020476D01*
X180086000Y-70972857D01*
X180133619Y-70877619D01*
X180181238Y-70830000D01*
X180276476Y-70782380D01*
X180466952Y-70782380D01*
X180562190Y-70830000D01*
X180609809Y-70877619D01*
X180657428Y-70972857D01*
X180657428Y-71020476D01*
X180609809Y-71115714D01*
X180562190Y-71163333D01*
X180466952Y-71210952D01*
X180276476Y-71210952D01*
X180181238Y-71258571D01*
X180133619Y-71306190D01*
X180086000Y-71401428D01*
X180086000Y-71591904D01*
X180133619Y-71687142D01*
X180181238Y-71734761D01*
X180276476Y-71782380D01*
X180466952Y-71782380D01*
X180562190Y-71734761D01*
X180609809Y-71687142D01*
X180657428Y-71591904D01*
X180657428Y-71401428D01*
X180609809Y-71306190D01*
X180562190Y-71258571D01*
X180466952Y-71210952D01*
X180943142Y-70782380D02*
X181276476Y-71782380D01*
X181609809Y-70782380D01*
D12*
%TO.C,PO*%
X164541200Y-75158600D02*
X160985200Y-75158600D01*
X160985200Y-81000600D02*
X164541200Y-81000600D01*
X160763000Y-75679600D02*
G75*
G03*
X160763000Y-75679600I-76200J0D01*
G01*
D13*
%TO.C,THD1*%
X173634400Y-80365600D02*
X176885600Y-80365600D01*
X176885600Y-77114400D02*
X173634400Y-77114400D01*
X177736500Y-79730600D02*
G75*
G03*
X177736500Y-79730600I-76200J0D01*
G01*
%TO.C,3V*%
X181619200Y-85445600D02*
X181619200Y-85505600D01*
X178959200Y-82845600D02*
X180289200Y-82845600D01*
X178959200Y-84175600D02*
X178959200Y-82845600D01*
X178959200Y-85445600D02*
X181619200Y-85445600D01*
X178959200Y-85445600D02*
X178959200Y-85505600D01*
X178959200Y-85505600D02*
X181619200Y-85505600D01*
%TO.C,5V*%
X178959200Y-77664000D02*
X180289200Y-77664000D01*
X181619200Y-80264000D02*
X181619200Y-80324000D01*
X178959200Y-80264000D02*
X181619200Y-80264000D01*
X178959200Y-78994000D02*
X178959200Y-77664000D01*
X178959200Y-80264000D02*
X178959200Y-80324000D01*
X178959200Y-80324000D02*
X181619200Y-80324000D01*
%TO.C,1.8V*%
X178756000Y-73660000D02*
X178756000Y-72330000D01*
X178756000Y-74930000D02*
X181416000Y-74930000D01*
X178756000Y-74990000D02*
X181416000Y-74990000D01*
X178756000Y-72330000D02*
X180086000Y-72330000D01*
X181416000Y-74930000D02*
X181416000Y-74990000D01*
X178756000Y-74930000D02*
X178756000Y-74990000D01*
%TD*%
%LPC*%
D14*
%TO.C,PO*%
X161569400Y-75679600D03*
X161569400Y-76479601D03*
X161569400Y-77279599D03*
X161569400Y-78079600D03*
X161569400Y-78879598D03*
X161569400Y-79679599D03*
X161569400Y-80479600D03*
X163957000Y-80479600D03*
X163957000Y-79679599D03*
X163957000Y-78879601D03*
X163957000Y-78079600D03*
X163957000Y-77279602D03*
X163957000Y-76479601D03*
X163957000Y-75679600D03*
%TD*%
D15*
%TO.C,THD1*%
X176682400Y-79730600D03*
X176682400Y-78740000D03*
X176682400Y-77749400D03*
X173837600Y-77749400D03*
X173837600Y-78740000D03*
X173837600Y-79730600D03*
D16*
X175260000Y-78740000D03*
%TD*%
D17*
%TO.C,3V*%
X180289200Y-84175600D03*
%TD*%
%TO.C,5V*%
X180289200Y-78994000D03*
%TD*%
%TO.C,1.8V*%
X180086000Y-73660000D03*
%TD*%
%TO.C,J1*%
X155956000Y-73147000D03*
D18*
X155956000Y-75687000D03*
X155956000Y-78227000D03*
X155956000Y-80767000D03*
X155956000Y-83307000D03*
X155956000Y-85847000D03*
X155956000Y-88387000D03*
%TD*%
M02*
