M48
; DRILL file {KiCad (6.0.9)} date Tue Sep  5 16:32:58 2023
; FORMAT={-:-/ absolute / metric / decimal}
; #@! TF.CreationDate,2023-09-05T16:32:58-05:00
; #@! TF.GenerationSoftware,Kicad,Pcbnew,(6.0.9)
; #@! TF.FileFunction,MixedPlating,1,2
FMAT,2
METRIC
; #@! TA.AperFunction,Plated,PTH,ViaDrill
T1C0.400
; #@! TA.AperFunction,Plated,PTH,ComponentDrill
T2C1.000
%
G90
G05
T1
X158.86Y-78.948
X158.881Y-87.507
X158.96Y-84.017
X160.02Y-73.951
X160.477Y-71.222
X163.322Y-73.914
X167.081Y-73.914
X167.64Y-89.814
X167.894Y-84.074
X168.402Y-81.788
X168.402Y-87.122
X168.656Y-78.74
X169.672Y-81.788
X170.18Y-77.47
X171.247Y-90.729
X172.364Y-74.828
X172.466Y-79.756
X172.466Y-84.836
X174.244Y-81.788
X175.362Y-90.932
X176.026Y-86.356
X177.038Y-75.946
X177.292Y-81.026
T2
X155.956Y-73.147
X155.956Y-75.687
X155.956Y-78.227
X155.956Y-80.767
X155.956Y-83.307
X155.956Y-85.847
X155.956Y-88.387
X180.086Y-73.66
X180.289Y-78.994
X180.289Y-84.176
T0
M30
